SplineFontDB: 1.0
FontName: FreeSansBold
FullName: Free Sans Bold
FamilyName: FreeSans
Weight: Bold
Copyright: Copyleft 2002, 2003 Free Software Foundation.
Version: $Revision: 1.29 $
ItalicAngle: 0
UnderlinePosition: -155
UnderlineWidth: 69
Ascent: 800
Descent: 200
NeedsXUIDChange: 1
FSType: 0
PfmFamily: 33
TTFWeight: 700
TTFWidth: 5
LineGap: 90
VLineGap: 0
Panose: 2 11 7 4 2 2 2 2 2 4
OS2TypoAscent: 0
OS2TypoAOffset: 1
OS2TypoDescent: 0
OS2TypoDOffset: 1
OS2TypoLinegap: 0
OS2WinAscent: 0
OS2WinAOffset: 1
OS2WinDescent: 0
OS2WinDOffset: 1
HheadAscent: 0
HheadAOffset: 1
HheadDescent: 0
HheadDOffset: 1
OS2Vendor: 'PfEd'
ScriptLang: 5
 1 latn 1 dflt 
 1 hebr 1 dflt 
 1 DFLT 1 dflt 
 1 grek 1 dflt 
 1 armn 1 dflt 
ChainSub: class 0 0 'ccmp' 3 0 3 1
  Class: 3 i j
  Class: 109 gravecomb acutecomb uni0302 tildecomb uni0304 uni0306 uni0307 uni0308 uni030A uni030B uni030C uni030F uni0311
  FClass: 3 i j
  FClass: 109 gravecomb acutecomb uni0302 tildecomb uni0304 uni0306 uni0307 uni0308 uni030A uni030B uni030C uni030F uni0311
 1 0 1
  ClsList: 1
  BClsList:
  FClsList: 2
 1
  SeqLookup: 0 's001'
EndFPST
GenTags: 1 sb's001'
TtfTable: cvt  4
!$MDh
EndTtf
LangName: 1033 "" "" "" "" "" "" "" "" "" "" "" "" "" "The use of this font is granted subject to GNU General Public License." "http://www.gnu.org/copyleft/gpl.html" "" "" "" "" "The quick brown fox jumps over the lazy dog." 
LangName: 1060 "" "" "polkrepko" "" "" "" "" "" "" "" "" "" "" "Dovoljena je uporaba v skladu z licenco GNU General Public License." "http://www.gnu.org/copyleft/gpl.html" "" "" "" "" "+AWAA-erif bo za vajo spet kuhal doma+AQ0A-e +AX4A-gance." 
Encoding: UnicodeBmp
UnicodeInterp: none
DisplaySize: -36
AntiAlias: 1
FitToEm: 1
WinInfo: 1296 16 11
BeginPrivate: 8
UniqueID 7 5020904
BlueValues 31 [-23 0 540 560 729 749 701 724]
BlueScale 8 0.039625
StdHW 5 [118]
StdVW 5 [141]
StemSnapH 200 [106 114 118 127] 
systemdict /internaldict known
{1183615869 systemdict /internaldict get exec

StartChar: exclam
Encoding: 33 33 1
Width: 333
Flags: W
HStem: 0 21G<112 262>
Fore
262 726 m 1
 262 516 l 1
 220 207 l 1
 153 207 l 1
 112 516 l 1
 112 726 l 1
 262 726 l 1
262 146 m 1
 262 0 l 1
 112 0 l 1
 112 146 l 1
 262 146 l 1
EndSplineSet
EndChar
StartChar: quotedbl
Encoding: 34 34 2
Width: 474
Flags: W
HStem: 709 20G<50 188 286 424>
VStem: 50 138<599 729> 286 138<599 729>
Fore
188 729 m 1
 188 599 l 1
 146 470 l 1
 90 470 l 1
 50 599 l 1
 50 729 l 1
 188 729 l 1
424 729 m 1
 424 599 l 1
 382 470 l 1
 326 470 l 1
 286 599 l 1
 286 729 l 1
 424 729 l 1
EndSplineSet
EndChar
StartChar: numbersign
Encoding: 35 35 3
Width: 556
Flags: W
HStem: 172 99<3 100 186 308 394 513> 424 99<31 150 235 358 444 553>
Fore
146 -32 m 1
 40 -32 l 1
 80 172 l 1
 3 172 l 1
 3 271 l 1
 100 271 l 1
 130 424 l 1
 31 424 l 1
 31 523 l 1
 150 523 l 1
 184 697 l 1
 289 697 l 1
 255 523 l 1
 358 523 l 1
 392 697 l 1
 497 697 l 1
 463 523 l 1
 553 523 l 1
 553 424 l 1
 444 424 l 1
 413 271 l 1
 513 271 l 1
 513 172 l 1
 394 172 l 1
 354 -32 l 1
 249 -32 l 1
 289 172 l 1
 186 172 l 1
 146 -32 l 1
205 271 m 1
 308 271 l 1
 338 424 l 1
 235 424 l 1
 205 271 l 1
EndSplineSet
EndChar
StartChar: dollar
Encoding: 36 36 4
Width: 556
Flags: W
VStem: 39 123<456.5 568> 243 68<-126 -21 86 299 407 608 709 763> 395 132<130 250>
Fore
243 -21 m 1
 100 -7 22 79 22 198 c 2
 22 207 l 1
 153 207 l 1
 156 137 187 96 243 86 c 1
 243 299 l 1
 108 330 39 401 39 512 c 0
 39 624 114 697 243 709 c 1
 243 763 l 1
 311 763 l 1
 311 709 l 1
 437 702 515 623 517 498 c 1
 389 498 l 1
 389 504 l 0
 389 562 360 601 311 608 c 1
 311 407 l 1
 466 364 527 305 527 195 c 0
 527 65 446 -6 311 -21 c 1
 311 -126 l 1
 243 -126 l 1
 243 -21 l 1
243 427 m 1
 243 608 l 1
 188 597 162 567 162 516 c 0
 162 472 187 445 243 427 c 1
311 282 m 1
 311 86 l 1
 367 100 395 133 395 183 c 0
 395 231 367 265 311 282 c 1
EndSplineSet
EndChar
StartChar: percent
Encoding: 37 37 5
Width: 889
Flags: W
HStem: -13 98<628.5 729> 253 99<628.5 730.5> 337 98<155.5 256> 602 99<155.5 257.5>
VStem: 22 99<469 569> 291 99<468 568.5> 495 99<119.5 220> 764 99<118 219>
Fore
206 701 m 0xbf
 309 701 390 620 390 517 c 0
 390 419 306 337 206 337 c 0
 105 337 22 419 22 519 c 0
 22 619 105 701 206 701 c 0xbf
206 602 m 0
 159 602 121 564 121 519 c 0
 121 473 159 435 206 435 c 0
 252 435 291 473 291 518 c 0
 291 565 253 602 206 602 c 0
606 709 m 1
 682 709 l 1
 287 -20 l 1
 210 -20 l 1
 606 709 l 1
679 352 m 0xdf
 782 352 863 271 863 167 c 0
 863 69 779 -13 679 -13 c 0
 578 -13 495 69 495 170 c 0
 495 270 578 352 679 352 c 0xdf
679 253 m 0
 632 253 594 215 594 169 c 0
 594 123 632 85 679 85 c 0
 725 85 764 123 764 168 c 0
 764 215 726 253 679 253 c 0
EndSplineSet
EndChar
StartChar: ampersand
Encoding: 38 38 6
Width: 722
Flags: W
HStem: -23 116<221 326> 614 109<265.5 372.5>
VStem: 55 133<128 240> 377 120<532 614.5>
Fore
526 373 m 1
 639 373 l 1
 639 357 l 2
 637 281 611 200 571 154 c 1
 694 0 l 1
 533 0 l 1
 487 56 l 1
 406 -5 360 -23 292 -23 c 0
 150 -23 55 63 55 193 c 0
 55 287 95 340 212 401 c 1
 206 409 202 414 200 416 c 2
 172 450 l 2
 144 483 130 519 130 556 c 0
 130 650 212 723 319 723 c 0
 426 723 497 661 497 568 c 0
 497 496 469 453 380 392 c 1
 496 248 l 1
 518 290 526 320 526 363 c 2
 526 373 l 1
278 319 m 1
 231 290 l 2
 204 272 188 243 188 210 c 0
 188 150 240 93 294 93 c 0
 325 93 367 112 414 148 c 1
 278 319 l 1
317 470 m 1
 357 492 377 521 377 556 c 0
 377 593 356 614 320 614 c 0
 286 614 262 594 262 566 c 0
 262 541 267 533 317 470 c 1
EndSplineSet
EndChar
StartChar: quotesingle
Encoding: 39 39 7
Width: 238
Flags: W
HStem: 709 20G<50 188>
VStem: 50 138<599 729>
Fore
188 729 m 1
 188 599 l 1
 146 470 l 1
 90 470 l 1
 50 599 l 1
 50 729 l 1
 188 729 l 1
EndSplineSet
EndChar
StartChar: parenleft
Encoding: 40 40 8
Width: 333
Flags: W
HStem: 709 20G<203 303>
VStem: 40 123<188 341.5>
Fore
203 729 m 1
 303 729 l 1
 197 525 163 411 163 265 c 0
 163 118 197 6 303 -200 c 1
 203 -200 l 1
 88 -27 40 111 40 265 c 0
 40 418 88 556 203 729 c 1
EndSplineSet
EndChar
StartChar: parenright
Encoding: 41 41 9
Width: 333
Flags: W
HStem: 709 20G<22 122>
VStem: 162 123<187.5 341>
Fore
122 -200 m 1
 22 -200 l 1
 128 4 162 118 162 264 c 0
 162 411 128 523 22 729 c 1
 122 729 l 1
 237 556 285 418 285 264 c 0
 285 111 237 -27 122 -200 c 1
EndSplineSet
EndChar
StartChar: asterisk
Encoding: 42 42 10
Width: 389
Flags: W
HStem: 709 20G<154 226>
VStem: 154 72<613 729>
Fore
132 544 m 1
 23 580 l 1
 45 649 l 1
 154 613 l 1
 154 729 l 1
 226 729 l 1
 226 613 l 1
 335 649 l 1
 357 579 l 1
 248 544 l 1
 315 450 l 1
 257 407 l 1
 190 501 l 1
 123 407 l 1
 65 450 l 1
 132 544 l 1
EndSplineSet
EndChar
StartChar: plus
Encoding: 43 43 11
Width: 584
Flags: W
HStem: -10 21G<232 351>
VStem: 232 119<-10 172 291 473>
Fore
533 291 m 1
 533 172 l 1
 351 172 l 1
 351 -10 l 1
 232 -10 l 1
 232 172 l 1
 50 172 l 1
 50 291 l 1
 232 291 l 1
 232 473 l 1
 351 473 l 1
 351 291 l 1
 533 291 l 1
EndSplineSet
EndChar
StartChar: comma
Encoding: 44 44 12
Width: 278
Flags: W
HStem: -20 20G<64 150>
VStem: 150 64<-37 9>
Fore
64 146 m 1
 214 146 l 1
 214 9 l 2
 214 -69 200 -157 64 -174 c 5
 64 -118 l 1
 123 -106 150 -71 150 -3 c 2
 150 0 l 1
 64 0 l 1
 64 146 l 1
EndSplineSet
KernsSLIFO: 989 -30 2 0 992 -33 2 0 1030 -73 2 0
EndChar
StartChar: hyphen
Encoding: 45 45 13
Width: 333
Flags: W
Fore
298 342 m 5
 298 207 l 5
 26 207 l 5
 26 342 l 5
 298 342 l 5
EndSplineSet
KernsSLIFO: 33 -1 2 0 52 -57 2 0 54 -27 2 0 55 -9 2 0 57 -64 2 0 126 -1 2 0 129 -1 2 0 130 -1 2 0 131 10 2 0
EndChar
StartChar: period
Encoding: 46 46 14
Width: 278
Flags: W
HStem: 0 21G<64 214>
Fore
214 146 m 1
 214 0 l 1
 64 0 l 1
 64 146 l 1
 214 146 l 1
EndSplineSet
KernsSLIFO: 989 -29 2 0 992 -32 2 0 1030 -73 2 0
EndChar
StartChar: slash
Encoding: 47 47 15
Width: 278
Flags: W
HStem: -14 21G<2 69> 694 20G<208 275>
Fore
208 714 m 1
 275 714 l 1
 69 -14 l 1
 2 -14 l 1
 208 714 l 1
EndSplineSet
EndChar
StartChar: zero
Encoding: 48 48 16
Width: 556
Flags: W
HStem: -23 120<175.5 371.5> 611 113<235 314.5>
VStem: 29 140<245.5 451.5> 377 140<246.5 459.5>
Fore
273 -23 m 0
 78 -23 29 144 29 350 c 0
 29 487 48 578 89 633 c 0
 132 692 197 724 273 724 c 0
 356 724 425 687 467 619 c 0
 501 564 517 476 517 346 c 0
 517 147 470 -23 273 -23 c 0
377 349 m 0
 377 570 337 611 273 611 c 0
 201 611 169 552 169 351 c 0
 169 140 208 97 273 97 c 0
 313 97 343 120 359 162 c 0
 369 190 377 270 377 349 c 0
EndSplineSet
EndChar
StartChar: one
Encoding: 49 49 17
Width: 556
Flags: W
HStem: 0 21G<238 378> 489 93<68 238> 689 20G<285 378>
Fore
238 489 m 1
 68 489 l 1
 68 582 l 1
 190 582 263 625 285 709 c 1
 378 709 l 1
 378 0 l 1
 238 0 l 1
 238 489 l 1
EndSplineSet
EndChar
StartChar: two
Encoding: 50 50 18
Width: 556
Flags: W
HStem: 0 21G<30 512> 610 114<198.5 346.5>
VStem: 39 135<462 562> 375 140<393 567.5>
Fore
515 499 m 0
 515 287 272 252 212 125 c 1
 512 125 l 1
 512 0 l 1
 30 0 l 1
 37 131 75 193 194 276 c 0
 351 386 375 418 375 496 c 0
 375 567 337 610 275 610 c 0
 211 610 174 564 174 485 c 2
 174 462 l 1
 40 462 l 1
 39 473 39 481 39 487 c 0
 39 637 125 724 272 724 c 4
 421 724 515 636 515 499 c 0
EndSplineSet
EndChar
StartChar: three
Encoding: 51 51 19
Width: 556
Flags: W
HStem: -23 120<195.5 343.5> 317 94<217 270.5> 611 113<222.5 336.5>
VStem: 38 130<486 594> 353 140<482.5 590> 376 140<135 245.5>
Fore
38 498 m 6xf8
 38 690 177 724 268 724 c 4
 405 724 493 649 493 531 c 4xf8
 493 466 466 421 400 380 c 5
 480 341 516 287 516 204 c 4
 516 66 419 -23 268 -23 c 4
 123 -23 30 66 29 208 c 5
 165 208 l 5
 169 135 205 97 271 97 c 4
 332 97 376 142 376 204 c 4xf4
 376 256 346 297 299 310 c 4
 275 316 266 317 217 317 c 5
 217 411 l 5
 229 411 l 6
 312 411 353 447 353 518 c 4
 353 577 321 611 265 611 c 4
 186 611 170 562 168 486 c 5
 38 486 l 5
 38 498 l 6xf8
EndSplineSet
EndChar
StartChar: four
Encoding: 52 52 20
Width: 556
Flags: W
HStem: 0 21G<308 448> 689 20G<283 448>
Fore
522 273 m 1
 522 157 l 1
 448 157 l 1
 448 0 l 1
 308 0 l 1
 308 157 l 1
 24 157 l 1
 24 275 l 1
 283 709 l 1
 448 709 l 1
 448 273 l 1
 522 273 l 1
308 273 m 5
 308 576 l 1
 123 273 l 1
 308 273 l 5
EndSplineSet
EndChar
StartChar: five
Encoding: 53 53 21
Width: 556
Flags: W
HStem: -23 120<192 337> 368 111<241.5 361.5> 689 20G<110 489>
VStem: 377 140<157.5 306.5>
Fore
489 709 m 1
 489 584 l 1
 196 584 l 1
 173 436 l 1
 214 467 249 479 296 479 c 0
 427 479 517 379 517 234 c 0
 517 81 413 -23 261 -23 c 0
 123 -23 29 61 27 185 c 1
 165 185 l 1
 168 128 202 97 263 97 c 0
 333 97 377 148 377 231 c 0
 377 317 334 368 263 368 c 0
 220 368 188 349 173 314 c 1
 47 314 l 1
 110 709 l 1
 489 709 l 1
EndSplineSet
EndChar
StartChar: six
Encoding: 54 54 22
Width: 556
Flags: W
HStem: -23 120<240 352.5> 357 110<246.5 374> 548 21G<377 507> 611 113<194 315.5>
VStem: 32 138<187.5 446> 386 133<160 305>
Fore
32 337 m 0
 32 555 94 724 294 724 c 0
 337 724 481 716 507 548 c 1
 377 548 l 1
 359 593 335 611 290 611 c 0
 234 611 194 573 181 509 c 0
 175 479 175 479 172 404 c 1
 216 450 255 467 313 467 c 0
 435 467 519 373 519 237 c 0
 519 83 423 -23 282 -23 c 0
 198 -23 124 16 83 82 c 0
 47 139 32 215 32 337 c 0
279 357 m 0
 214 357 170 303 170 225 c 0
 170 150 214 97 278 97 c 0
 340 97 386 152 386 228 c 0
 386 306 344 357 279 357 c 0
EndSplineSet
EndChar
StartChar: seven
Encoding: 55 55 23
Width: 556
Flags: W
HStem: 0 21G<133 274> 689 20G<29 528>
Fore
528 709 m 1
 528 599 l 1
 360 396 287 224 274 0 c 1
 133 0 l 1
 152 151 177 244 226 347 c 0
 254 409 339 538 382 584 c 1
 29 584 l 1
 29 709 l 1
 528 709 l 1
EndSplineSet
EndChar
StartChar: eight
Encoding: 56 56 24
Width: 556
Flags: W
HStem: -23 120<199.5 348> 330 95<239.5 307.5> 611 113<208 339.5>
VStem: 22 140<137 248> 46 123<491.5 587> 380 121<491 587.5> 385 140<137 247>
Fore
501 532 m 0xec
 501 450 458 412 409 386 c 1
 491 342 525 288 525 204 c 0
 525 70 422 -23 274 -23 c 0
 125 -23 22 70 22 204 c 0xf2
 22 288 56 342 138 386 c 1
 74 420 46 463 46 531 c 0
 46 643 142 724 274 724 c 0
 405 724 501 643 501 532 c 0xec
275 611 m 0
 212 611 169 573 169 519 c 0
 169 464 213 425 275 425 c 0
 336 425 380 464 380 518 c 0xec
 380 573 337 611 275 611 c 0
273 330 m 0
 206 330 162 284 162 212 c 0
 162 142 205 97 273 97 c 0
 341 97 385 142 385 210 c 0xf2
 385 284 342 330 273 330 c 0
EndSplineSet
EndChar
StartChar: nine
Encoding: 57 57 25
Width: 556
Flags: W
HStem: -24 120<194 311> 228 116<177 297> 610 114<196 317>
VStem: 28 133<401 548> 373 143<202.5 520.5>
Fore
516 370 m 0
 516 35 367 -24 255 -24 c 0
 133 -24 41 56 38 165 c 1
 173 165 l 1
 176 123 210 96 259 96 c 0
 338 96 376 163 376 298 c 1
 359 279 327 228 240 228 c 0
 114 228 28 328 28 474 c 0
 28 622 125 724 267 724 c 0
 367 724 516 671 516 370 c 0
263 610 m 0
 201 610 161 558 161 476 c 0
 161 395 201 344 265 344 c 0
 329 344 373 396 373 474 c 0
 373 557 331 610 263 610 c 0
EndSplineSet
EndChar
StartChar: colon
Encoding: 58 58 26
Width: 333
Flags: W
HStem: 0 21G<113 263>
Fore
263 146 m 1
 263 0 l 1
 113 0 l 1
 113 146 l 1
 263 146 l 1
263 520 m 1
 263 374 l 1
 113 374 l 1
 113 520 l 1
 263 520 l 1
EndSplineSet
EndChar
StartChar: semicolon
Encoding: 59 59 27
Width: 333
Flags: W
HStem: -20 20G<113 199>
VStem: 199 64<-37 9>
Fore
113 146 m 1
 263 146 l 1
 263 9 l 2
 263 -69 249 -157 113 -174 c 1
 113 -118 l 1
 172 -106 199 -71 199 -3 c 2
 199 0 l 1
 113 0 l 1
 113 146 l 1
263 520 m 1
 263 374 l 1
 113 374 l 1
 113 520 l 1
 263 520 l 1
EndSplineSet
EndChar
StartChar: less
Encoding: 60 60 28
Width: 584
Flags: W
Fore
529 474 m 1
 529 365 l 1
 147 232 l 1
 529 101 l 1
 529 -10 l 1
 40 172 l 1
 40 293 l 1
 529 474 l 1
EndSplineSet
EndChar
StartChar: equal
Encoding: 61 61 29
Width: 584
Flags: W
Fore
534 411 m 1
 534 292 l 1
 50 292 l 1
 50 411 l 1
 534 411 l 1
534 171 m 1
 534 52 l 1
 50 52 l 1
 50 171 l 1
 534 171 l 1
EndSplineSet
EndChar
StartChar: greater
Encoding: 62 62 30
Width: 584
Flags: W
Fore
40 -10 m 1
 40 99 l 1
 422 232 l 1
 40 363 l 1
 40 474 l 1
 529 292 l 1
 529 171 l 1
 40 -10 l 1
EndSplineSet
EndChar
StartChar: question
Encoding: 63 63 31
Width: 611
Flags: W
HStem: 0 21G<235 385> 626 118<258.5 380.5>
VStem: 245 124<201 305> 415 141<451 582>
Fore
64 481 m 1
 67 707 210 744 307 744 c 0
 454 744 556 650 556 514 c 0
 556 430 529 386 436 320 c 0
 376 278 369 267 369 201 c 1
 245 201 l 1
 245 206 245 210 245 215 c 0
 245 395 415 391 415 511 c 0
 415 576 370 626 310 626 c 0
 247 626 200 569 200 492 c 0
 200 483 l 1
 200 481 l 1
 64 481 l 1
385 146 m 1
 385 0 l 1
 235 0 l 1
 235 146 l 1
 385 146 l 1
EndSplineSet
EndChar
StartChar: at
Encoding: 64 64 32
Width: 975
Flags: W
HStem: -138 78<343.5 531> 56 81<376.5 486.5 662 749.5> 447 71<413 542> 668 77<395 635>
VStem: 27 97<153 371.5> 258 97<179.5 295> 595 53<171 376.5> 858 89<262 469.5>
Fore
258 227 m 0
 258 289 312 518 514 518 c 0
 570 518 604 496 628 446 c 1
 644 508 l 1
 734 508 l 1
 656 228 l 1
 648 198 648 198 648 186 c 0
 648 156 667 137 697 137 c 0
 761 137 858 239 858 370 c 0
 858 449 826 517 760 576 c 0
 690 638 609 668 511 668 c 0
 279 668 124 477 124 266 c 0
 124 64 296 -60 486 -60 c 0
 558 -60 635 -45 693 -19 c 1
 721 -92 l 1
 651 -124 578 -138 484 -138 c 0
 203 -138 27 42 27 264 c 0
 27 380 82 510 170 601 c 0
 262 696 380 745 516 745 c 0
 754 745 947 584 947 355 c 0
 947 169 802 56 697 56 c 0
 627 56 585 92 572 131 c 1
 533 84 477 56 422 56 c 0
 331 56 258 132 258 227 c 0
444 137 m 0
 529 137 595 264 595 345 c 0
 595 408 563 447 511 447 c 0
 433 447 355 346 355 244 c 0
 355 184 394 137 444 137 c 0
EndSplineSet
EndChar
StartChar: A
Encoding: 65 65 33
Width: 722
Flags: W
HStem: 0 21G<26 179 549 703> 709 20G<285 451>
Fore
501 147 m 1
 228 147 l 1
 179 0 l 1
 26 0 l 1
 285 729 l 1
 451 729 l 1
 703 0 l 1
 549 0 l 1
 501 147 l 1
460 272 m 1
 365 557 l 1
 270 272 l 1
 460 272 l 1
EndSplineSet
KernsSLIFO: 12 19 0 0 13 7 0 0 14 19 0 0 34 56 0 0 35 -33 0 0 36 57 0 0 37 56 0 0 38 60 0 0 39 -35 0 0 40 66 0 0 41 71 0 0 43 60 0 0 44 56 0 0 45 68 0 0 46 66 0 0 47 -34 0 0 48 58 0 0 49 -35 0 0 50 56 0 0 51 42 0 0 52 -81 0 0 53 -32 0 0 54 -66 0 0 55 -51 0 0 56 56 0 0 57 -90 0 0 58 56 0 0 65 -1 0 0 66 -1 0 0 67 -14 0 0 68 -13 0 0 69 -9 0 0 70 49 0 0 71 -14 0 0 72 67 0 0 73 67 0 0 74 64 0 0 75 75 0 0 76 67 0 0 77 74 0 0 78 71 0 0 79 -16 0 0 80 76 0 0 81 -12 0 0 82 71 0 0 84 -18 0 0 85 -12 0 0 86 -37 0 0 87 -23 0 0 88 134 0 0 89 -35 0 0 90 105 0 0 105 -43 0 0 132 -33 0 0 147 -34 0 0 150 -32 0 0 151 -32 0 0 152 -32 0 0 153 -32 0 0 164 -14 0 0 989 -61 0 0 992 -65 0 0 999 -40 0 0 1021 95 0 0 1022 43 0 0 1024 48 0 0 1027 47 0 0 1030 -89 0 0
EndChar
StartChar: B
Encoding: 66 66 34
Width: 722
Flags: W
HStem: 0 21G<82 410> 709 20G<82 407>
VStem: 522 144<166.5 250>
Fore
666 210 m 4
 666 123 615 0 410 0 c 6
 82 0 l 5
 82 729 l 5
 407 729 l 6
 599 729 645 604 645 537 c 4
 645 475 617 433 545 387 c 5
 627 339 666 282 666 210 c 4
232 604 m 5
 232 439 l 5
 395 439 l 6
 464 439 501 468 501 521 c 4
 501 575 464 604 395 604 c 6
 232 604 l 5
232 314 m 5
 232 125 l 5
 411 125 l 6
 484 125 522 158 522 219 c 4
 522 281 484 314 411 314 c 6
 232 314 l 5
EndSplineSet
KernsSLIFO: 33 -32 0 0 34 56 0 0 36 56 0 0 37 56 0 0 38 56 0 0 40 56 0 0 41 56 0 0 43 56 0 0 44 56 0 0 45 56 0 0 46 56 0 0 47 -11 0 0 48 56 0 0 50 56 0 0 54 -39 0 0 55 -27 0 0 57 -51 0 0 58 46 0 0 65 50 0 0 66 56 0 0 72 56 0 0 73 56 0 0 75 56 0 0 76 56 0 0 77 56 0 0 78 56 0 0 80 56 0 0 82 56 0 0 85 56 0 0 88 56 0 0 90 50 0 0 126 -32 0 0 127 -32 0 0 128 -32 0 0 129 -32 0 0 130 -32 0 0 131 -20 0 0 143 -11 0 0 144 -11 0 0 145 -11 0 0 147 -11 0 0 149 -5 0 0 271 -2 0 0 1021 45 0 0
EndChar
StartChar: C
Encoding: 67 67 35
Width: 722
Flags: W
HStem: -23 126<272.5 464.5> 613 128<275 463>
VStem: 44 150<241 476>
Fore
539 482 m 1
 531 519 508 613 383 613 c 0
 265 613 194 517 194 356 c 0
 194 197 262 103 378 103 c 0
 471 103 530 156 539 249 c 1
 685 249 l 1
 676 82 555 -23 374 -23 c 0
 171 -23 44 124 44 358 c 0
 44 594 172 741 378 741 c 0
 548 741 669 646 682 482 c 1
 539 482 l 1
EndSplineSet
KernsSLIFO: 33 -29 0 0 34 56 0 0 36 56 0 0 37 56 0 0 38 56 0 0 40 5 0 0 41 67 0 0 42 56 0 0 43 2 0 0 44 56 0 0 45 64 0 0 46 62 0 0 47 -6 0 0 48 56 0 0 50 56 0 0 51 53 0 0 53 56 0 0 57 -55 0 0 58 51 0 0 65 73 0 0 66 71 0 0 67 56 0 0 68 56 0 0 69 56 0 0 70 86 0 0 71 56 0 0 72 63 0 0 73 63 0 0 74 60 0 0 75 71 0 0 76 63 0 0 77 70 0 0 78 67 0 0 79 56 0 0 80 72 0 0 81 56 0 0 82 67 0 0 83 52 0 0 84 53 0 0 85 72 0 0 87 45 0 0 88 81 0 0 90 81 0 0 126 -29 0 0 129 -29 0 0 130 -29 0 0 131 -17 0 0 144 -6 0 0 147 -6 0 0 1020 52 0 0 1021 80 0 0 1022 52 0 0 1024 47 0 0 1025 53 0 0 1026 50 0 0 1027 53 0 0 1028 53 0 0
EndChar
StartChar: D
Encoding: 68 68 36
Width: 722
Flags: W
HStem: 0 125<227 418.5> 604 125<227 418.5>
VStem: 531 150<284 444.5>
Fore
77 0 m 1
 77 729 l 1
 362 729 l 2
 474 729 543 704 592 645 c 0
 650 576 681 477 681 365 c 0
 681 252 650 153 592 85 c 0
 543 26 473 0 362 0 c 2
 77 0 l 1
227 125 m 1
 362 125 l 2
 475 125 531 204 531 364 c 0
 531 525 475 604 362 604 c 2
 227 604 l 1
 227 125 l 1
EndSplineSet
KernsSLIFO: 33 -37 0 0 34 56 0 0 36 56 0 0 37 56 0 0 38 56 0 0 40 56 0 0 41 56 0 0 42 2 0 0 43 56 0 0 44 56 0 0 45 56 0 0 46 56 0 0 48 56 0 0 50 56 0 0 52 -17 0 0 54 -35 0 0 55 -20 0 0 56 -35 0 0 57 -56 0 0 66 56 0 0 72 56 0 0 73 56 0 0 75 56 0 0 76 56 0 0 77 56 0 0 78 56 0 0 80 56 0 0 82 56 0 0 125 -37 0 0 126 -37 0 0 127 -37 0 0 128 -37 0 0 129 -37 0 0 130 -37 0 0
EndChar
StartChar: E
Encoding: 69 69 37
Width: 667
Flags: HW
HStem: 0 21G<79 624> 314 125<229 578> 709 20G<79 606>
Fore
229 314 m 1
 229 125 l 1
 624 125 l 1
 624 0 l 1
 79 0 l 1
 79 729 l 1
 606 729 l 1
 606 604 l 1
 229 604 l 1
 229 439 l 1
 578 439 l 1
 578 314 l 1
 229 314 l 1
EndSplineSet
KernsSLIFO: 33 72 0 0 34 56 0 0 36 56 0 0 37 56 0 0 38 56 0 0 40 56 0 0 41 61 0 0 43 56 0 0 44 56 0 0 45 58 0 0 46 56 0 0 48 56 0 0 50 56 0 0 52 49 0 0 54 45 0 0 55 62 0 0 56 83 0 0 57 51 0 0 58 78 0 0 66 65 0 0 70 57 0 0 72 57 0 0 73 57 0 0 74 54 0 0 75 65 0 0 76 57 0 0 84 59 0 0 1020 62 0 0 1024 74 0 0 1025 58 0 0 1026 47 0 0 1027 75 0 0 1028 73 0 0 1030 -88 0 0
EndChar
StartChar: F
Encoding: 70 70 38
Width: 611
Flags: W
HStem: 0 21G<74 224> 314 125<224 543> 709 20G<74 586>
Fore
224 314 m 5
 224 0 l 1
 74 0 l 1
 74 729 l 1
 586 729 l 1
 586 604 l 1
 224 604 l 1
 224 439 l 5
 543 439 l 5
 543 314 l 5
 224 314 l 5
EndSplineSet
KernsSLIFO: 12 -76 0 0 13 11 0 0 14 -75 0 0 33 -63 0 0 42 -25 0 0 47 -16 0 0 65 -15 0 0 69 -7 0 0 73 -7 0 0 74 -9 0 0 79 -14 0 0 82 -27 0 0 85 -24 0 0 125 -63 0 0 126 -63 0 0 127 -63 0 0 128 -63 0 0 129 -63 0 0 130 -63 0 0 147 -16 0 0 158 -15 0 0 161 -15 0 0 162 -15 0 0 163 -17 0 0 166 -7 0 0 176 -14 0 0 179 -14 0 0 181 -15 0 0 272 -8 0 0 1030 -70 0 0
EndChar
StartChar: G
Encoding: 71 71 39
Width: 778
Flags: W
HStem: -23 128<284.5 432> 613 128<290 483>
VStem: 42 150<248.5 472.5>
Fore
570 496 m 1
 549 558 500 613 396 613 c 0
 269 613 192 518 192 361 c 0
 192 211 279 105 400 105 c 0
 437 105 572 129 585 267 c 1
 419 267 l 1
 419 392 l 1
 711 392 l 1
 711 -2 l 1
 621 -2 l 1
 603 94 l 1
 547 12 481 -23 383 -23 c 0
 186 -23 42 138 42 359 c 0
 42 586 185 741 395 741 c 0
 571 741 693 646 711 496 c 1
 570 496 l 1
EndSplineSet
KernsSLIFO: 33 -8 0 0 34 56 0 0 35 56 0 0 36 56 0 0 37 56 0 0 38 56 0 0 39 56 0 0 40 56 0 0 41 56 0 0 42 56 0 0 43 56 0 0 44 56 0 0 45 56 0 0 46 56 0 0 47 56 0 0 48 56 0 0 49 56 0 0 50 56 0 0 51 66 0 0 52 -17 0 0 53 56 0 0 54 -36 0 0 55 -20 0 0 56 67 0 0 57 -56 0 0 58 65 0 0 65 66 0 0 66 56 0 0 67 56 0 0 68 60 0 0 69 67 0 0 71 56 0 0 72 56 0 0 73 56 0 0 75 56 0 0 76 56 0 0 77 56 0 0 78 56 0 0 79 56 0 0 80 56 0 0 81 61 0 0 82 56 0 0 83 61 0 0 85 56 0 0 86 65 0 0 87 77 0 0 88 84 0 0 89 70 0 0 90 74 0 0 125 -8 0 0 126 -8 0 0 127 -8 0 0 128 -8 0 0 129 -8 0 0 130 -8 0 0 131 4 0 0 1020 70 0 0 1021 56 0 0 1022 61 0 0 1023 56 0 0 1024 67 0 0 1025 66 0 0 1027 75 0 0 1028 63 0 0 1030 48 0 0
EndChar
StartChar: H
Encoding: 72 72 40
Width: 722
Flags: HW
HStem: 0 21G<68 218 507 657> 709 20G<68 218 506 657>
Fore
507 331 m 1
 218 331 l 1
 218 0 l 1
 68 0 l 1
 68 729 l 1
 218 729 l 1
 218 456 l 1
 506 456 l 1
 506 729 l 1
 657 729 l 1
 657 0 l 1
 507 0 l 1
 507 331 l 1
EndSplineSet
KernsSLIFO: 33 62 0 0 34 56 0 0 35 56 0 0 36 56 0 0 37 56 0 0 38 56 0 0 39 56 0 0 40 56 0 0 41 56 0 0 42 56 0 0 43 56 0 0 44 56 0 0 45 56 0 0 46 56 0 0 47 58 0 0 48 56 0 0 49 56 0 0 50 56 0 0 51 69 0 0 52 90 0 0 53 56 0 0 54 56 0 0 55 65 0 0 56 72 0 0 57 56 0 0 58 70 0 0 65 68 0 0 66 56 0 0 67 57 0 0 68 62 0 0 69 69 0 0 70 90 0 0 71 58 0 0 72 56 0 0 73 56 0 0 75 56 0 0 76 56 0 0 77 56 0 0 78 56 0 0 79 56 0 0 80 56 0 0 81 63 0 0 82 56 0 0 83 63 0 0 84 73 0 0 85 56 0 0 86 74 0 0 87 86 0 0 88 87 0 0 89 79 0 0 90 80 0 0 1020 72 0 0 1021 72 0 0 1022 73 0 0 1023 56 0 0 1024 70 0 0 1025 69 0 0 1026 56 0 0 1027 78 0 0 1028 73 0 0 1030 56 0 0
EndChar
StartChar: I
Encoding: 73 73 41
Width: 278
Flags: W
HStem: 0 21G<63 213> 709 20G<63 213>
Fore
213 729 m 1
 213 0 l 1
 63 0 l 1
 63 729 l 1
 213 729 l 1
EndSplineSet
KernsSLIFO: 33 62 0 0 34 56 0 0 35 56 0 0 36 56 0 0 37 56 0 0 38 56 0 0 39 56 0 0 40 56 0 0 41 56 0 0 42 56 0 0 43 56 0 0 44 56 0 0 45 56 0 0 46 56 0 0 47 58 0 0 48 56 0 0 49 56 0 0 50 56 0 0 51 69 0 0 52 90 0 0 53 56 0 0 54 56 0 0 55 65 0 0 56 72 0 0 57 56 0 0 58 70 0 0 65 68 0 0 66 56 0 0 67 57 0 0 68 62 0 0 69 69 0 0 70 90 0 0 71 58 0 0 72 56 0 0 73 56 0 0 75 56 0 0 76 56 0 0 77 56 0 0 78 56 0 0 79 56 0 0 80 56 0 0 81 63 0 0 82 56 0 0 83 63 0 0 84 73 0 0 85 56 0 0 86 74 0 0 87 86 0 0 88 87 0 0 89 79 0 0 90 80 0 0 1020 72 0 0 1021 72 0 0 1022 73 0 0 1023 56 0 0 1024 70 0 0 1025 69 0 0 1026 56 0 0 1027 78 0 0 1028 73 0 0 1030 56 0 0
EndChar
StartChar: J
Encoding: 74 74 42
Width: 556
Flags: W
HStem: -23 128<202 326.5> 709 20G<336 486>
VStem: 24 150<109.5 270> 336 150<122 729>
Fore
252 -23 m 4
 152 -23 24 21 24 198 c 6
 24 270 l 5
 174 270 l 5
 174 200 l 6
 174 133 198 105 255 105 c 4
 307 105 336 135 336 190 c 6
 336 729 l 5
 486 729 l 5
 486 190 l 6
 486 54 401 -23 252 -23 c 4
EndSplineSet
KernsSLIFO: 33 -32 0 0 34 56 0 0 35 56 0 0 36 56 0 0 37 56 0 0 38 56 0 0 39 56 0 0 40 56 0 0 41 56 0 0 42 56 0 0 43 56 0 0 44 56 0 0 45 56 0 0 46 56 0 0 47 56 0 0 48 56 0 0 49 56 0 0 50 56 0 0 51 64 0 0 52 56 0 0 53 56 0 0 55 56 0 0 56 48 0 0 58 56 0 0 65 54 0 0 66 56 0 0 67 56 0 0 68 56 0 0 69 61 0 0 70 66 0 0 71 56 0 0 72 56 0 0 73 56 0 0 75 56 0 0 76 56 0 0 77 56 0 0 78 56 0 0 79 56 0 0 80 56 0 0 81 56 0 0 82 56 0 0 83 55 0 0 84 68 0 0 85 56 0 0 86 56 0 0 87 75 0 0 88 79 0 0 89 56 0 0 90 53 0 0 129 -32 0 0 130 -32 0 0 131 -20 0 0 1020 67 0 0 1021 52 0 0 1022 68 0 0 1024 65 0 0 1025 64 0 0 1026 56 0 0 1027 73 0 0 1028 68 0 0 1030 56 0 0
EndChar
StartChar: K
Encoding: 75 75 43
Width: 722
Flags: W
HStem: 0 21G<74 224 538 717> 709 20G<74 224 509 686>
Fore
224 244 m 1
 224 0 l 1
 74 0 l 1
 74 729 l 1
 224 729 l 1
 224 409 l 1
 509 729 l 1
 686 729 l 1
 395 415 l 1
 717 0 l 1
 538 0 l 1
 299 322 l 1
 224 244 l 1
EndSplineSet
KernsSLIFO: 13 -44 0 0 34 68 0 0 35 -53 0 0 36 73 0 0 37 71 0 0 38 76 0 0 39 -55 0 0 40 82 0 0 41 87 0 0 43 76 0 0 44 70 0 0 45 84 0 0 46 82 0 0 47 -54 0 0 48 74 0 0 49 -60 0 0 50 70 0 0 51 -30 0 0 52 13 0 0 55 43 0 0 56 56 0 0 65 -3 0 0 66 91 0 0 67 -47 0 0 69 -25 0 0 70 49 0 0 72 83 0 0 73 83 0 0 74 66 0 0 75 91 0 0 76 83 0 0 77 88 0 0 78 85 0 0 79 -33 0 0 80 90 0 0 82 85 0 0 85 -23 0 0 86 -42 0 0 88 79 0 0 89 -65 0 0 90 114 0 0 144 -54 0 0 147 -54 0 0 161 -3 0 0 162 -3 0 0 176 -33 0 0 179 -33 0 0 185 -23 0 0 271 -44 0 0 1021 112 0 0 1030 -75 0 0
EndChar
StartChar: L
Encoding: 76 76 44
Width: 611
Flags: W
HStem: 0 21G<80 579> 709 20G<80 230>
Fore
230 729 m 1
 230 125 l 1
 579 125 l 1
 579 0 l 1
 80 0 l 1
 80 729 l 1
 230 729 l 1
EndSplineSet
KernsSLIFO: 13 -12 0 0 33 9 0 0 35 -26 0 0 39 -30 0 0 47 -29 0 0 51 -2 0 0 52 -95 0 0 53 -24 0 0 54 -90 0 0 55 -68 0 0 57 -112 0 0 85 -7 0 0 86 -74 0 0 87 -60 0 0 89 -55 0 0 126 9 0 0 129 9 0 0 130 9 0 0 131 21 0 0 132 -26 0 0 143 -29 0 0 144 -29 0 0 145 -29 0 0 146 -29 0 0 147 -29 0 0 153 -24 0 0 185 -7 0 0 989 -138 0 0 992 -141 0 0 1023 -186 0 0 1026 -48 0 0 1030 -114 0 0
EndChar
StartChar: M
Encoding: 77 77 45
Width: 833
Flags: HW
HStem: 0 21G<66 216 347 497 626 776> 709 20G<66 290 550 776>
Fore
216 568 m 1
 216 0 l 1
 66 0 l 1
 66 729 l 1
 290 729 l 1
 422 149 l 1
 550 729 l 1
 776 729 l 1
 776 0 l 1
 626 0 l 1
 626 568 l 1
 497 0 l 1
 347 0 l 1
 216 568 l 1
EndSplineSet
KernsSLIFO: 33 70 0 0 34 56 0 0 35 63 0 0 36 56 0 0 37 56 0 0 38 56 0 0 39 64 0 0 40 56 0 0 41 56 0 0 42 56 0 0 43 56 0 0 44 56 0 0 45 56 0 0 46 56 0 0 47 66 0 0 48 56 0 0 49 63 0 0 50 56 0 0 51 77 0 0 52 98 0 0 53 56 0 0 54 57 0 0 55 73 0 0 56 80 0 0 57 56 0 0 58 78 0 0 65 76 0 0 66 56 0 0 67 65 0 0 68 70 0 0 69 77 0 0 70 98 0 0 71 66 0 0 72 56 0 0 73 56 0 0 74 42 0 0 75 56 0 0 76 56 0 0 77 56 0 0 78 56 0 0 79 63 0 0 80 56 0 0 81 71 0 0 82 56 0 0 83 71 0 0 84 81 0 0 85 56 0 0 86 82 0 0 87 94 0 0 88 95 0 0 89 87 0 0 90 88 0 0 1020 80 0 0 1021 80 0 0 1022 81 0 0 1023 56 0 0 1024 78 0 0 1025 77 0 0 1026 56 0 0 1027 86 0 0 1028 81 0 0 1030 56 0 0
EndChar
StartChar: N
Encoding: 78 78 46
Width: 722
Flags: W
HStem: 0 21G<68 218 511 661> 709 20G<68 222 511 661>
VStem: 511 150<0 729>
Fore
511 0 m 1
 218 504 l 1
 218 0 l 1
 68 0 l 1
 68 729 l 1
 222 729 l 1
 511 233 l 1
 511 729 l 1
 661 729 l 1
 661 0 l 1
 511 0 l 1
EndSplineSet
KernsSLIFO: 12 15 0 0 14 16 0 0 33 -5 0 0 34 56 0 0 35 9 0 0 36 56 0 0 37 56 0 0 38 56 0 0 39 8 0 0 40 56 0 0 41 56 0 0 42 56 0 0 43 56 0 0 44 56 0 0 45 56 0 0 46 56 0 0 47 8 0 0 48 56 0 0 49 59 0 0 50 56 0 0 51 73 0 0 52 94 0 0 53 56 0 0 54 56 0 0 55 69 0 0 56 76 0 0 57 56 0 0 58 74 0 0 65 13 0 0 66 56 0 0 67 61 0 0 68 66 0 0 69 18 0 0 70 94 0 0 71 62 0 0 72 56 0 0 73 56 0 0 75 56 0 0 76 56 0 0 77 56 0 0 78 56 0 0 79 11 0 0 80 56 0 0 81 67 0 0 82 56 0 0 83 67 0 0 84 77 0 0 85 12 0 0 86 78 0 0 87 90 0 0 88 91 0 0 89 83 0 0 90 84 0 0 126 -5 0 0 129 -5 0 0 130 -5 0 0 131 7 0 0 132 9 0 0 144 8 0 0 147 8 0 0 158 13 0 0 161 13 0 0 162 13 0 0 163 13 0 0 166 18 0 0 176 11 0 0 179 11 0 0 181 11 0 0 185 12 0 0 1020 76 0 0 1021 76 0 0 1022 77 0 0 1023 56 0 0 1024 74 0 0 1025 73 0 0 1026 56 0 0 1027 82 0 0 1028 77 0 0 1030 56 0 0
EndChar
StartChar: O
Encoding: 79 79 47
Width: 778
Flags: W
HStem: -23 128<284 500.5> 613 128<284 495.5>
VStem: 40 150<248 470> 592 150<249.5 470>
Fore
40 359 m 0
 40 581 178 741 390 741 c 0
 601 741 742 586 742 354 c 0
 742 145 610 -23 391 -23 c 0
 177 -23 40 137 40 359 c 0
391 613 m 0
 270 613 190 512 190 359 c 0
 190 206 270 105 391 105 c 0
 511 105 592 206 592 355 c 0
 592 513 514 613 391 613 c 0
EndSplineSet
KernsSLIFO: 33 -37 0 0 34 56 0 0 36 56 0 0 37 56 0 0 38 56 0 0 40 59 0 0 41 64 0 0 43 56 0 0 44 56 0 0 45 61 0 0 46 59 0 0 48 56 0 0 50 56 0 0 52 -20 0 0 54 -36 0 0 55 -21 0 0 56 -36 0 0 57 -59 0 0 65 47 0 0 66 68 0 0 70 50 0 0 72 60 0 0 73 60 0 0 74 56 0 0 75 68 0 0 76 60 0 0 77 67 0 0 78 64 0 0 80 69 0 0 82 64 0 0 84 50 0 0 85 56 0 0 88 59 0 0 90 74 0 0 126 -37 0 0 129 -37 0 0 130 -37 0 0 131 -26 0 0 1021 63 0 0 1028 42 0 0
EndChar
StartChar: P
Encoding: 80 80 48
Width: 667
Flags: HW
HStem: 0 21G<76 226> 709 20G<76 398>
VStem: 483 150<429 576>
Fore
226 260 m 1
 226 0 l 1
 76 0 l 1
 76 729 l 1
 398 729 l 2
 550 729 633 649 633 503 c 0
 633 355 547 260 413 260 c 2
 226 260 l 1
226 385 m 1
 366 385 l 2
 446 385 483 420 483 494 c 0
 483 569 446 604 366 604 c 2
 226 604 l 1
 226 385 l 1
EndSplineSet
KernsSLIFO: 12 -94 0 0 14 -94 0 0 33 -65 0 0 42 -44 0 0 56 -69 0 0 57 -45 0 0 65 -7 0 0 69 -8 0 0 79 -14 0 0 126 -65 0 0 129 -65 0 0 130 -65 0 0 131 -54 0 0 158 -7 0 0 161 -7 0 0 162 -7 0 0 163 -8 0 0 166 -8 0 0 176 -14 0 0 179 -14 0 0 181 -17 0 0 272 -8 0 0
EndChar
StartChar: Q
Encoding: 81 81 49
Width: 778
Flags: W
HStem: -23 128<287 431.5> 613 128<287 502.5>
VStem: 43 150<249 469> 595 150<312 468>
Fore
394 741 m 0
 611 741 745 575 745 361 c 0
 745 263 714 163 665 103 c 1
 745 27 l 5
 669 -54 l 5
 583 27 l 1
 525 -8 469 -23 394 -23 c 0
 180 -23 43 139 43 359 c 0
 43 579 180 741 394 741 c 0
480 278 m 5
 562 200 l 1
 584 244 595 298 595 358 c 0
 595 513 516 613 394 613 c 0
 273 613 193 512 193 359 c 0
 193 206 273 105 393 105 c 0
 425 105 458 112 481 124 c 1
 404 197 l 5
 480 278 l 5
EndSplineSet
KernsSLIFO: 33 82 0 0 34 56 0 0 35 81 0 0 36 57 0 0 37 56 0 0 38 60 0 0 39 82 0 0 40 66 0 0 41 71 0 0 43 60 0 0 44 56 0 0 45 68 0 0 46 66 0 0 47 84 0 0 48 58 0 0 49 81 0 0 50 56 0 0 51 77 0 0 53 56 0 0 56 82 0 0 57 -41 0 0 58 91 0 0 65 84 0 0 66 75 0 0 67 76 0 0 68 81 0 0 69 87 0 0 70 96 0 0 71 76 0 0 72 67 0 0 73 67 0 0 74 64 0 0 75 75 0 0 76 67 0 0 77 74 0 0 78 71 0 0 79 75 0 0 80 76 0 0 81 83 0 0 82 71 0 0 83 76 0 0 84 95 0 0 85 71 0 0 86 72 0 0 87 84 0 0 88 98 0 0 89 77 0 0 90 106 0 0 1020 98 0 0 1021 96 0 0 1022 79 0 0 1023 49 0 0 1024 75 0 0 1025 95 0 0 1027 81 0 0 1028 88 0 0
EndChar
StartChar: R
Encoding: 82 82 50
Width: 722
Flags: W
HStem: 0 21G<80 230 516 677> 709 20G<80 471>
VStem: 493 152<71 152> 517 150<468.5 572.5>
Fore
493 125 m 0xe0
 493 179 495 171 495 202 c 0
 495 263 467 289 402 289 c 2
 230 289 l 1
 230 0 l 1
 80 0 l 1
 80 729 l 1
 471 729 l 2
 628 729 667 613 667 532 c 0xd0
 667 443 626 384 544 352 c 1
 637 312 641 302 645 87 c 0
 645 55 654 40 677 27 c 1
 677 0 l 1
 516 0 l 1
 497 35 493 57 493 125 c 0xe0
517 511 m 0
 517 592 474 604 411 604 c 2
 230 604 l 1
 230 414 l 1
 411 414 l 2
 473 414 517 426 517 511 c 0
EndSplineSet
KernsSLIFO: 13 15 0 0 33 87 0 0 34 56 0 0 35 -5 0 0 36 56 0 0 37 56 0 0 38 56 0 0 39 -6 0 0 40 56 0 0 41 59 0 0 43 56 0 0 44 56 0 0 45 56 0 0 46 56 0 0 47 -6 0 0 48 56 0 0 50 56 0 0 51 66 0 0 53 -4 0 0 54 -26 0 0 55 -17 0 0 56 80 0 0 57 -37 0 0 58 56 0 0 65 52 0 0 66 63 0 0 69 2 0 0 70 67 0 0 72 56 0 0 73 56 0 0 74 52 0 0 75 63 0 0 76 56 0 0 77 62 0 0 78 59 0 0 79 -4 0 0 80 64 0 0 82 59 0 0 83 40 0 0 84 64 0 0 85 52 0 0 86 75 0 0 87 88 0 0 88 106 0 0 89 5 0 0 90 98 0 0 132 -5 0 0 144 -6 0 0 147 -6 0 0 153 -4 0 0 166 2 0 0 176 -4 0 0 179 -4 0 0 271 3 0 0 272 1 0 0 1020 64 0 0 1021 90 0 0 1022 72 0 0 1023 44 0 0 1024 57 0 0 1025 57 0 0 1026 41 0 0 1027 68 0 0 1028 70 0 0 1030 46 0 0
EndChar
StartChar: S
Encoding: 83 83 51
Width: 667
Flags: W
HStem: -23 120<241 428> 621 120<233.5 377.5>
VStem: 45 143<460.5 588> 489 144<139 270.5>
Fore
607 507 m 1
 467 507 l 1
 462 581 409 621 314 621 c 0
 237 621 188 586 188 531 c 0
 188 478 219 457 326 436 c 2
 440 414 l 2
 575 388 633 328 633 213 c 0
 633 65 522 -23 334 -23 c 0
 148 -23 41 62 32 218 c 1
 178 218 l 1
 183 140 240 97 342 97 c 0
 433 97 489 134 489 195 c 0
 489 254 452 282 352 301 c 2
 250 321 l 2
 102 349 45 404 45 517 c 0
 45 659 146 741 321 741 c 0
 434 741 607 706 607 507 c 1
EndSplineSet
KernsSLIFO: 33 -20 0 0 34 56 0 0 36 56 0 0 37 56 0 0 38 56 0 0 40 62 0 0 41 67 0 0 43 56 0 0 44 56 0 0 45 64 0 0 46 62 0 0 48 56 0 0 50 56 0 0 51 56 0 0 52 -5 0 0 53 56 0 0 54 -31 0 0 55 -17 0 0 57 -43 0 0 58 53 0 0 65 81 0 0 66 71 0 0 67 54 0 0 68 54 0 0 69 54 0 0 70 80 0 0 71 62 0 0 72 63 0 0 73 63 0 0 74 60 0 0 75 71 0 0 76 63 0 0 77 70 0 0 78 67 0 0 79 53 0 0 80 72 0 0 81 57 0 0 82 67 0 0 83 72 0 0 84 1 0 0 85 72 0 0 88 73 0 0 90 67 0 0 126 -20 0 0 129 -20 0 0 130 -20 0 0 131 -8 0 0 1020 48 0 0 1021 65 0 0 1022 63 0 0 1024 67 0 0 1025 49 0 0 1026 48 0 0 1027 56 0 0 1028 68 0 0
EndChar
StartChar: T
Encoding: 84 84 52
Width: 611
Flags: W
HStem: 0 21G<235 385> 709 20G<14 598>
VStem: 235 150<0 604>
Fore
385 604 m 1
 385 0 l 1
 235 0 l 1
 235 604 l 1
 14 604 l 1
 14 729 l 1
 598 729 l 1
 598 604 l 1
 385 604 l 1
EndSplineSet
KernsSLIFO: 12 -67 0 0 13 -48 0 0 14 -67 0 0 26 -97 0 0 27 -98 0 0 33 -87 0 0 34 74 0 0 35 -20 0 0 36 79 0 0 37 77 0 0 38 82 0 0 39 -22 0 0 40 88 0 0 41 93 0 0 42 -87 0 0 43 82 0 0 44 76 0 0 45 90 0 0 46 88 0 0 47 -22 0 0 48 80 0 0 50 76 0 0 51 3 0 0 54 18 0 0 55 24 0 0 56 48 0 0 57 16 0 0 65 -73 0 0 66 97 0 0 67 -74 0 0 68 -99 0 0 69 -69 0 0 70 43 0 0 71 -75 0 0 72 89 0 0 73 -1 0 0 74 -3 0 0 75 97 0 0 76 89 0 0 77 -117 0 0 78 -120 0 0 79 -76 0 0 80 -115 0 0 81 -98 0 0 82 -71 0 0 83 -74 0 0 85 -72 0 0 86 -82 0 0 87 -77 0 0 88 -74 0 0 89 -80 0 0 90 -81 0 0 105 -101 0 0 125 -87 0 0 126 -87 0 0 127 -87 0 0 128 -87 0 0 129 -87 0 0 130 -87 0 0 131 -75 0 0 143 -22 0 0 144 -22 0 0 145 -22 0 0 146 -22 0 0 147 -22 0 0 149 -23 0 0 163 -73 0 0 181 -73 0 0 271 -11 0 0 999 -98 0 0 1021 48 0 0 1023 -140 0 0 1030 -53 0 0
EndChar
StartChar: U
Encoding: 85 85 53
Width: 722
Flags: W
HStem: -23 128<303.5 426.5> 709 20G<76 226 504 654>
VStem: 76 150<132 729> 504 150<132 729>
Fore
365 -23 m 0
 242 -23 76 29 76 235 c 2
 76 729 l 1
 226 729 l 1
 226 235 l 2
 226 147 271 105 365 105 c 0
 459 105 504 147 504 235 c 2
 504 729 l 1
 654 729 l 1
 654 235 l 2
 654 29 488 -23 365 -23 c 0
EndSplineSet
KernsSLIFO: 12 -7 0 0 14 -4 0 0 33 -34 0 0 34 56 0 0 36 56 0 0 37 56 0 0 38 56 0 0 40 56 0 0 41 56 0 0 42 56 0 0 43 56 0 0 44 56 0 0 45 56 0 0 46 56 0 0 48 56 0 0 50 56 0 0 51 56 0 0 53 56 0 0 56 48 0 0 58 56 0 0 65 53 0 0 66 56 0 0 67 56 0 0 68 56 0 0 69 56 0 0 70 68 0 0 71 56 0 0 72 56 0 0 73 56 0 0 75 56 0 0 76 56 0 0 77 6 0 0 78 5 0 0 79 56 0 0 80 7 0 0 81 56 0 0 82 5 0 0 83 49 0 0 84 68 0 0 85 56 0 0 87 56 0 0 88 61 0 0 90 55 0 0 126 -34 0 0 127 -34 0 0 128 -34 0 0 129 -34 0 0 130 -34 0 0 131 -22 0 0 1020 56 0 0 1021 53 0 0 1022 58 0 0 1024 63 0 0 1025 56 0 0 1026 56 0 0 1027 55 0 0 1028 63 0 0 1030 56 0 0
EndChar
StartChar: V
Encoding: 86 86 54
Width: 667
Flags: W
HStem: 0 21G<270 397> 709 20G<24 175 496 647>
Fore
397 0 m 1
 270 0 l 1
 24 729 l 1
 175 729 l 1
 337 180 l 1
 496 729 l 1
 647 729 l 1
 397 0 l 1
EndSplineSet
KernsSLIFO: 12 -69 0 0 13 -21 0 0 14 -69 0 0 26 -65 0 0 27 -67 0 0 33 -71 0 0 34 56 0 0 35 -36 0 0 36 56 0 0 37 56 0 0 38 56 0 0 39 -38 0 0 40 56 0 0 41 56 0 0 42 -84 0 0 43 56 0 0 44 56 0 0 45 56 0 0 46 56 0 0 47 -37 0 0 48 56 0 0 49 -46 0 0 50 56 0 0 51 -21 0 0 52 21 0 0 56 48 0 0 58 56 0 0 65 -47 0 0 66 58 0 0 67 -49 0 0 68 -45 0 0 69 -43 0 0 71 -49 0 0 72 56 0 0 73 -5 0 0 75 58 0 0 76 56 0 0 79 -50 0 0 81 -42 0 0 82 -34 0 0 85 -34 0 0 88 64 0 0 89 -10 0 0 90 45 0 0 105 -74 0 0 125 -71 0 0 126 -71 0 0 127 -71 0 0 128 -71 0 0 129 -71 0 0 130 -71 0 0 131 -59 0 0 143 -37 0 0 144 -37 0 0 145 -37 0 0 146 -37 0 0 147 -37 0 0 149 -31 0 0 163 -48 0 0 181 -48 0 0 999 -72 0 0 1021 41 0 0 1023 -99 0 0
EndChar
StartChar: W
Encoding: 87 87 55
Width: 944
Flags: W
HStem: 0 21G<219 354 595 730> 709 20G<13 172 398 546 773 932>
Fore
730 0 m 1
 595 0 l 1
 473 569 l 1
 354 0 l 1
 219 0 l 1
 13 729 l 1
 172 729 l 1
 285 183 l 1
 398 729 l 1
 546 729 l 1
 664 182 l 1
 773 729 l 1
 932 729 l 1
 730 0 l 1
EndSplineSet
KernsSLIFO: 12 -45 0 0 13 -3 0 0 14 -45 0 0 26 -53 0 0 27 -54 0 0 33 -54 0 0 34 56 0 0 35 -20 0 0 36 56 0 0 37 56 0 0 38 57 0 0 39 -22 0 0 40 63 0 0 41 68 0 0 42 -42 0 0 43 57 0 0 44 56 0 0 45 65 0 0 46 63 0 0 47 -21 0 0 48 56 0 0 50 56 0 0 51 -12 0 0 52 25 0 0 56 73 0 0 58 56 0 0 65 -29 0 0 66 72 0 0 69 -24 0 0 71 -30 0 0 72 64 0 0 73 -1 0 0 74 61 0 0 75 72 0 0 76 64 0 0 79 -31 0 0 82 -24 0 0 85 -23 0 0 88 60 0 0 90 66 0 0 105 -55 0 0 125 -54 0 0 126 -54 0 0 127 -54 0 0 128 -54 0 0 129 -54 0 0 130 -54 0 0 131 -43 0 0 143 -21 0 0 144 -21 0 0 145 -21 0 0 146 -21 0 0 147 -21 0 0 149 -15 0 0 163 -29 0 0 181 -29 0 0 999 -53 0 0 1021 62 0 0 1023 -69 0 0
EndChar
StartChar: X
Encoding: 88 88 56
Width: 667
Flags: W
HStem: 0 21G<22 196 475 653> 709 20G<30 208 470 644>
Fore
419 372 m 1
 653 0 l 1
 475 0 l 1
 335 253 l 1
 196 0 l 1
 22 0 l 1
 252 367 l 1
 30 729 l 1
 208 729 l 1
 336 489 l 1
 470 729 l 1
 644 729 l 1
 419 372 l 1
EndSplineSet
KernsSLIFO: 13 -27 0 0 33 56 0 0 34 63 0 0 35 -34 0 0 36 68 0 0 37 66 0 0 38 71 0 0 40 77 0 0 41 82 0 0 42 -57 0 0 43 71 0 0 44 65 0 0 45 79 0 0 46 77 0 0 47 -35 0 0 48 69 0 0 49 -37 0 0 50 65 0 0 53 47 0 0 54 47 0 0 55 70 0 0 56 86 0 0 65 -5 0 0 66 86 0 0 69 -25 0 0 70 55 0 0 72 78 0 0 73 78 0 0 74 75 0 0 75 86 0 0 76 78 0 0 77 82 0 0 78 79 0 0 79 -32 0 0 80 84 0 0 82 79 0 0 85 -25 0 0 88 106 0 0 89 -40 0 0 90 110 0 0 147 -35 0 0 1021 101 0 0
EndChar
StartChar: Y
Encoding: 89 89 57
Width: 667
Flags: W
HStem: 0 21G<269 419> 709 20G<27 194 482 650>
VStem: 269 150<0 270>
Fore
419 270 m 1
 419 0 l 1
 269 0 l 1
 269 270 l 1
 27 729 l 1
 194 729 l 1
 343 407 l 1
 482 729 l 1
 650 729 l 1
 419 270 l 1
EndSplineSet
KernsSLIFO: 12 -78 0 0 13 -50 0 0 14 -78 0 0 26 -81 0 0 27 -83 0 0 33 -86 0 0 34 56 0 0 35 -52 0 0 36 56 0 0 37 56 0 0 38 56 0 0 39 -54 0 0 40 56 0 0 41 58 0 0 42 -119 0 0 43 56 0 0 44 56 0 0 45 56 0 0 46 56 0 0 47 -54 0 0 48 56 0 0 49 -76 0 0 50 56 0 0 51 -29 0 0 52 22 0 0 65 -66 0 0 66 62 0 0 67 -89 0 0 68 -84 0 0 69 -63 0 0 71 -68 0 0 72 56 0 0 73 -3 0 0 74 41 0 0 75 62 0 0 76 56 0 0 79 -70 0 0 80 -45 0 0 81 -83 0 0 83 -85 0 0 85 -48 0 0 86 -27 0 0 105 -98 0 0 125 -86 0 0 126 -86 0 0 127 -86 0 0 128 -86 0 0 129 -86 0 0 130 -86 0 0 131 -74 0 0 143 -54 0 0 144 -54 0 0 145 -54 0 0 146 -54 0 0 147 -54 0 0 149 -47 0 0 163 -67 0 0 181 -67 0 0 999 -96 0 0 1023 -172 0 0
EndChar
StartChar: Z
Encoding: 90 90 58
Width: 611
Flags: W
HStem: 0 125<30 578> 604 125<30 578>
Fore
578 729 m 1
 578 604 l 1
 206 125 l 1
 578 125 l 1
 578 0 l 1
 30 0 l 1
 30 125 l 1
 403 604 l 1
 30 604 l 1
 30 729 l 5
 578 729 l 1
EndSplineSet
KernsSLIFO: 33 56 0 0 34 56 0 0 36 56 0 0 37 56 0 0 38 58 0 0 40 64 0 0 41 69 0 0 43 58 0 0 44 56 0 0 45 66 0 0 46 64 0 0 48 56 0 0 50 56 0 0 51 51 0 0 53 56 0 0 54 56 0 0 55 56 0 0 65 56 0 0 66 73 0 0 67 40 0 0 68 43 0 0 69 52 0 0 70 42 0 0 71 42 0 0 72 65 0 0 73 65 0 0 74 62 0 0 75 73 0 0 76 65 0 0 77 68 0 0 78 65 0 0 80 70 0 0 81 45 0 0 82 65 0 0 83 86 0 0 84 45 0 0 85 61 0 0 86 -11 0 0 87 67 0 0 88 56 0 0 89 -9 0 0 1020 64 0 0 1022 44 0 0 1023 -90 0 0 1024 78 0 0 1025 59 0 0 1027 74 0 0 1028 79 0 0
EndChar
StartChar: bracketleft
Encoding: 91 91 59
Width: 333
Flags: W
HStem: 709 20G<66 308>
Fore
308 729 m 1
 308 627 l 1
 196 627 l 1
 196 -98 l 1
 308 -98 l 1
 308 -200 l 1
 66 -200 l 1
 66 729 l 1
 308 729 l 1
EndSplineSet
EndChar
StartChar: backslash
Encoding: 92 92 60
Width: 278
Flags: W
HStem: -14 21G<222 289> 694 20G<-12 55>
Fore
55 714 m 1
 289 -14 l 1
 222 -14 l 1
 -12 714 l 1
 55 714 l 1
EndSplineSet
EndChar
StartChar: bracketright
Encoding: 93 93 61
Width: 333
Flags: W
HStem: 709 20G<18 260>
Fore
18 -200 m 1
 18 -98 l 1
 130 -98 l 1
 130 627 l 1
 18 627 l 1
 18 729 l 1
 260 729 l 1
 260 -200 l 1
 18 -200 l 1
EndSplineSet
EndChar
StartChar: asciicircum
Encoding: 94 94 62
Width: 584
Flags: W
Fore
522 270 m 1
 409 270 l 1
 288 570 l 1
 173 270 l 1
 61 270 l 1
 226 695 l 1
 351 695 l 1
 522 270 l 1
EndSplineSet
EndChar
StartChar: underscore
Encoding: 95 95 63
Width: 556
Flags: W
HStem: -189 69<-22 578>
Fore
578 -120 m 1
 578 -189 l 1
 -22 -189 l 1
 -22 -120 l 1
 578 -120 l 1
EndSplineSet
EndChar
StartChar: grave
Encoding: 96 96 64
Width: 333
Flags: W
Fore
17 757 m 1
 143 757 l 1
 213 607 l 1
 143 607 l 1
 17 757 l 1
EndSplineSet
EndChar
StartChar: a
Encoding: 97 97 65
Width: 556
Flags: W
HStem: -23 113<143 279.5> 436 113<198 344>
VStem: 28 140<90.5 187.5> 355 137<83 438>
Fore
192 -23 m 0
 94 -23 28 42 28 139 c 0
 28 236 80 291 187 309 c 2
 243 319 l 2
 289 326 355 329 355 382 c 0
 355 418 328 436 274 436 c 0
 205 436 182 418 175 362 c 1
 40 362 l 1
 49 487 125 549 271 549 c 0
 417 549 492 493 492 383 c 2
 492 83 l 2
 492 55 499 40 524 17 c 1
 524 0 l 1
 372 0 l 1
 359 16 356 26 356 54 c 1
 307 3 252 -23 192 -23 c 0
355 217 m 2
 355 255 l 1
 339 247 333 245 296 238 c 2
 248 229 l 2
 190 217 168 197 168 155 c 0
 168 115 197 90 244 90 c 0
 315 90 355 136 355 217 c 2
EndSplineSet
KernsSLIFO: 34 56 0 0 35 58 0 0 36 56 0 0 37 56 0 0 38 58 0 0 39 46 0 0 40 64 0 0 41 69 0 0 43 58 0 0 44 56 0 0 45 66 0 0 46 64 0 0 47 48 0 0 48 56 0 0 49 45 0 0 50 56 0 0 51 57 0 0 52 -103 0 0 54 -49 0 0 56 56 0 0 57 -110 0 0 66 73 0 0 70 72 0 0 72 65 0 0 73 65 0 0 74 -1 0 0 75 73 0 0 76 65 0 0 77 72 0 0 78 69 0 0 80 74 0 0 82 69 0 0 84 67 0 0 85 43 0 0 86 -19 0 0 87 -5 0 0 88 97 0 0 89 -17 0 0 90 104 0 0 989 -11 0 0 1020 66 0 0 1021 93 0 0 1022 65 0 0 1024 68 0 0 1025 63 0 0 1026 -48 0 0 1027 65 0 0 1028 60 0 0
EndChar
StartChar: b
Encoding: 98 98 66
Width: 611
Flags: W
HStem: -23 117<281.5 412.5> 432 117<282 412> 709 20G<59 199>
VStem: 435 140<181.5 347.5>
Fore
348 549 m 0
 476 549 575 432 575 263 c 0
 575 100 477 -23 348 -23 c 0
 280 -23 233 2 199 55 c 1
 199 0 l 1
 59 0 l 1
 59 729 l 1
 199 729 l 1
 199 470 l 1
 233 524 281 549 348 549 c 0
317 432 m 0
 247 432 199 363 199 265 c 0
 199 162 246 94 317 94 c 0
 386 94 435 164 435 262 c 0
 435 362 386 432 317 432 c 0
EndSplineSet
KernsSLIFO: 34 56 0 0 35 49 0 0 36 56 0 0 37 56 0 0 38 56 0 0 40 56 0 0 41 57 0 0 43 56 0 0 44 56 0 0 45 56 0 0 46 56 0 0 48 56 0 0 50 56 0 0 51 54 0 0 52 -115 0 0 53 56 0 0 54 -43 0 0 57 -110 0 0 65 44 0 0 66 61 0 0 68 56 0 0 70 56 0 0 71 56 0 0 72 56 0 0 73 56 0 0 74 50 0 0 75 61 0 0 76 56 0 0 77 60 0 0 78 57 0 0 80 62 0 0 81 56 0 0 82 57 0 0 83 41 0 0 84 55 0 0 85 59 0 0 86 -20 0 0 87 -7 0 0 89 -20 0 0 90 48 0 0 1020 63 0 0 1022 78 0 0 1024 77 0 0 1025 59 0 0 1026 -55 0 0 1027 70 0 0 1028 68 0 0
EndChar
StartChar: c
Encoding: 99 99 67
Width: 556
Flags: W
HStem: -23 113<207 352.5> 436 113<208.5 356.5>
VStem: 34 140<170 351>
Fore
288 436 m 0
 191 436 174 334 174 259 c 0
 174 154 217 90 288 90 c 0
 342 90 370 117 388 187 c 1
 522 187 l 1
 509 58 418 -23 287 -23 c 0
 127 -23 34 81 34 259 c 0
 34 443 128 549 289 549 c 0
 424 549 512 470 522 338 c 1
 388 338 l 1
 372 409 345 436 288 436 c 0
EndSplineSet
KernsSLIFO: 34 56 0 0 35 56 0 0 36 56 0 0 37 56 0 0 38 56 0 0 40 56 0 0 41 61 0 0 43 56 0 0 44 56 0 0 45 58 0 0 46 56 0 0 48 56 0 0 50 56 0 0 51 58 0 0 52 -111 0 0 53 56 0 0 57 -98 0 0 65 52 0 0 66 65 0 0 68 49 0 0 69 49 0 0 70 72 0 0 71 49 0 0 72 57 0 0 73 57 0 0 74 54 0 0 75 3 0 0 76 57 0 0 77 64 0 0 78 61 0 0 80 66 0 0 81 49 0 0 82 61 0 0 83 52 0 0 84 71 0 0 85 63 0 0 87 62 0 0 90 64 0 0 1020 73 0 0 1021 42 0 0 1022 69 0 0 1024 87 0 0 1025 70 0 0 1026 -81 0 0 1027 80 0 0 1028 80 0 0
EndChar
StartChar: d
Encoding: 100 100 68
Width: 611
Flags: W
HStem: -23 117<188 322> 432 117<191.5 322.5> 709 20G<405 545>
VStem: 29 140<183 343.5>
Fore
256 -23 m 0
 120 -23 29 104 29 262 c 0
 29 425 127 549 256 549 c 0
 323 549 370 524 405 470 c 1
 405 729 l 1
 545 729 l 1
 545 0 l 1
 405 0 l 1
 405 55 l 1
 370 2 323 -23 256 -23 c 0
287 432 m 0
 217 432 169 362 169 262 c 0
 169 163 217 94 287 94 c 0
 357 94 405 162 405 260 c 0
 405 363 358 432 287 432 c 0
EndSplineSet
KernsSLIFO: 33 61 0 0 34 56 0 0 35 56 0 0 36 56 0 0 37 56 0 0 38 56 0 0 39 56 0 0 40 56 0 0 41 56 0 0 42 56 0 0 43 56 0 0 44 56 0 0 45 56 0 0 46 56 0 0 47 57 0 0 48 56 0 0 49 56 0 0 50 56 0 0 51 68 0 0 52 89 0 0 53 56 0 0 54 56 0 0 55 64 0 0 56 71 0 0 57 56 0 0 58 69 0 0 65 67 0 0 66 56 0 0 67 56 0 0 68 61 0 0 69 68 0 0 70 89 0 0 71 57 0 0 72 56 0 0 73 56 0 0 75 56 0 0 76 56 0 0 77 56 0 0 78 56 0 0 79 56 0 0 80 56 0 0 81 62 0 0 82 56 0 0 83 62 0 0 84 72 0 0 85 56 0 0 86 73 0 0 87 85 0 0 88 86 0 0 89 78 0 0 90 79 0 0 1020 71 0 0 1021 71 0 0 1022 72 0 0 1023 56 0 0 1024 69 0 0 1025 68 0 0 1026 56 0 0 1027 77 0 0 1028 72 0 0 1030 56 0 0
EndChar
StartChar: e
Encoding: 101 101 69
Width: 556
Flags: W
HStem: -23 107<192.5 329.5> 226 93<162 524> 442 107<194.5 326>
Fore
272 549 m 0
 380 549 525 489 525 250 c 0
 525 243 525 238 524 226 c 1
 162 226 l 1
 165 153 180 84 274 84 c 0
 325 84 364 109 381 152 c 1
 519 152 l 1
 488 46 390 -23 269 -23 c 0
 116 -23 22 83 22 256 c 0
 22 437 117 549 272 549 c 0
379 319 m 1
 373 398 335 442 270 442 c 0
 208 442 173 401 164 319 c 1
 379 319 l 1
EndSplineSet
KernsSLIFO: 34 56 0 0 36 56 0 0 37 56 0 0 38 56 0 0 40 57 0 0 41 62 0 0 43 56 0 0 44 56 0 0 45 59 0 0 46 57 0 0 48 56 0 0 50 56 0 0 52 -110 0 0 53 56 0 0 54 -50 0 0 57 -105 0 0 66 66 0 0 70 61 0 0 72 58 0 0 73 58 0 0 74 55 0 0 75 66 0 0 76 58 0 0 77 65 0 0 78 62 0 0 80 67 0 0 82 62 0 0 84 -4 0 0 85 63 0 0 86 -19 0 0 87 -6 0 0 88 -21 0 0 89 -17 0 0 90 62 0 0 989 -12 0 0 1020 56 0 0 1021 45 0 0 1025 53 0 0 1026 -79 0 0 1027 63 0 0 1028 76 0 0
EndChar
StartChar: f
Encoding: 102 102 70
Width: 333
Flags: W
HStem: 0 21G<90 230> 436 93<14 90 230 313> 709 20G<181.5 237.5>
Fore
313 529 m 1
 313 436 l 1
 230 436 l 1
 230 0 l 1
 90 0 l 1
 90 436 l 1
 14 436 l 1
 14 529 l 1
 90 529 l 1
 90 594 l 2
 90 685 135 729 228 729 c 0
 247 729 282 728 308 726 c 1
 308 621 l 1
 296 623 280 624 268 624 c 0
 242 624 230 610 230 582 c 2
 230 529 l 1
 313 529 l 1
EndSplineSet
KernsSLIFO: 34 66 0 0 35 53 0 0 36 71 0 0 37 69 0 0 38 74 0 0 39 51 0 0 40 80 0 0 41 85 0 0 43 74 0 0 44 68 0 0 45 82 0 0 46 80 0 0 47 50 0 0 48 72 0 0 49 50 0 0 50 68 0 0 51 85 0 0 52 51 0 0 53 58 0 0 54 50 0 0 55 50 0 0 56 97 0 0 57 50 0 0 58 91 0 0 65 1 0 0 66 89 0 0 67 52 0 0 68 54 0 0 69 -3 0 0 70 21 0 0 71 50 0 0 72 81 0 0 73 -3 0 0 74 -6 0 0 75 89 0 0 76 -3 0 0 77 89 0 0 78 86 0 0 79 -9 0 0 80 91 0 0 81 56 0 0 82 86 0 0 83 -1 0 0 84 21 0 0 85 70 0 0 86 66 0 0 87 89 0 0 88 58 0 0 89 62 0 0 90 92 0 0 158 1 0 0 161 1 0 0 162 1 0 0 166 -3 0 0 176 -9 0 0 179 -9 0 0 181 -9 0 0 272 -3 0 0 989 10 0 0 1020 94 0 0 1021 90 0 0 1022 91 0 0 1024 67 0 0 1025 90 0 0 1027 64 0 0 1028 97 0 0 1030 67 0 0
EndChar
StartChar: g
Encoding: 103 103 71
Width: 611
Flags: W
HStem: -218 90<212.5 365.5> -23 117<188.5 322.5> 432 117<194 323>
VStem: 34 140<173 340.5> 410 131<-81.5 309>
Fore
408 540 m 1
 541 540 l 1
 541 -18 l 2
 541 -145 447 -218 284 -218 c 0
 141 -218 47 -159 45 -65 c 1
 190 -65 l 1
 201 -106 236 -128 289 -128 c 0
 359 -128 408 -83 408 -18 c 2
 408 55 l 1
 356 -4 318 -23 255 -23 c 0
 122 -23 34 89 34 257 c 0
 34 424 130 549 258 549 c 0
 320 549 366 521 408 457 c 1
 408 540 l 1
288 432 m 0
 220 432 174 361 174 259 c 0
 174 161 220 94 286 94 c 0
 359 94 410 161 410 259 c 0
 410 359 358 432 288 432 c 0
EndSplineSet
KernsSLIFO: 33 57 0 0 34 56 0 0 35 56 0 0 36 56 0 0 37 56 0 0 38 56 0 0 39 56 0 0 40 56 0 0 41 56 0 0 42 56 0 0 43 56 0 0 44 56 0 0 45 56 0 0 46 56 0 0 47 56 0 0 48 56 0 0 49 56 0 0 50 56 0 0 51 64 0 0 52 -136 0 0 53 56 0 0 56 64 0 0 58 56 0 0 65 3 0 0 66 56 0 0 67 56 0 0 68 57 0 0 69 8 0 0 70 85 0 0 71 62 0 0 72 56 0 0 73 56 0 0 75 56 0 0 76 56 0 0 77 56 0 0 78 56 0 0 79 56 0 0 80 56 0 0 81 58 0 0 82 1 0 0 83 58 0 0 84 68 0 0 85 56 0 0 86 69 0 0 87 81 0 0 88 82 0 0 89 74 0 0 90 75 0 0 161 3 0 0 162 3 0 0 163 3 0 0 166 8 0 0 176 1 0 0 179 1 0 0 1020 67 0 0 1021 67 0 0 1022 68 0 0 1023 56 0 0 1024 65 0 0 1025 64 0 0 1026 -45 0 0 1027 73 0 0 1028 68 0 0 1030 56 0 0
EndChar
StartChar: h
Encoding: 104 104 72
Width: 611
Flags: W
HStem: 0 21G<67 207 401 541> 430 119<283.5 403.5> 709 20G<67 207>
VStem: 401 140<0 437>
Fore
401 330 m 2
 401 388 380 430 315 430 c 0
 252 430 207 386 207 324 c 2
 207 0 l 1
 67 0 l 1
 67 729 l 1
 207 729 l 1
 207 462 l 1
 246 521 296 549 365 549 c 0
 442 549 541 512 541 362 c 2
 541 0 l 1
 401 0 l 1
 401 330 l 2
EndSplineSet
KernsSLIFO: 33 56 0 0 34 56 0 0 35 56 0 0 36 56 0 0 37 56 0 0 38 56 0 0 39 56 0 0 40 56 0 0 41 56 0 0 43 56 0 0 44 56 0 0 45 56 0 0 46 56 0 0 47 56 0 0 48 56 0 0 49 56 0 0 50 56 0 0 51 56 0 0 52 -136 0 0 53 56 0 0 54 -59 0 0 56 56 0 0 57 -124 0 0 58 56 0 0 65 63 0 0 66 56 0 0 67 56 0 0 68 56 0 0 69 56 0 0 70 59 0 0 71 56 0 0 72 56 0 0 73 56 0 0 75 56 0 0 76 56 0 0 77 56 0 0 78 56 0 0 79 56 0 0 80 56 0 0 81 56 0 0 82 56 0 0 83 58 0 0 84 57 0 0 85 56 0 0 88 83 0 0 89 -21 0 0 90 71 0 0 989 -14 0 0 1020 68 0 0 1021 61 0 0 1022 65 0 0 1023 56 0 0 1024 60 0 0 1025 66 0 0 1026 -45 0 0 1027 68 0 0 1028 59 0 0
EndChar
StartChar: i
Encoding: 105 105 73
Width: 278
Flags: W
HStem: 0 21<67 207> 520 20<67 207> 709 20G<67 207>
Fore
207 729 m 1
 207 604 l 1
 67 604 l 1
 67 729 l 1
 207 729 l 1
EndSplineSet
Refer: 238 305 N 1 0 0 1 0 0 2
KernsSLIFO: 33 56 0 0 34 56 0 0 35 56 0 0 36 56 0 0 37 56 0 0 38 56 0 0 39 56 0 0 40 56 0 0 41 56 0 0 42 56 0 0 43 56 0 0 44 56 0 0 45 56 0 0 46 56 0 0 47 56 0 0 48 56 0 0 49 56 0 0 50 56 0 0 51 63 0 0 52 -4 0 0 53 56 0 0 54 56 0 0 55 59 0 0 56 66 0 0 57 56 0 0 58 64 0 0 65 62 0 0 66 56 0 0 67 56 0 0 68 56 0 0 69 63 0 0 70 84 0 0 71 56 0 0 72 56 0 0 73 56 0 0 74 -2 0 0 75 56 0 0 76 56 0 0 77 56 0 0 78 56 0 0 79 56 0 0 80 56 0 0 81 57 0 0 82 56 0 0 83 57 0 0 84 67 0 0 85 56 0 0 86 68 0 0 87 80 0 0 88 81 0 0 89 73 0 0 90 74 0 0 1020 66 0 0 1021 66 0 0 1022 67 0 0 1023 56 0 0 1024 64 0 0 1025 63 0 0 1026 -46 0 0 1027 72 0 0 1028 67 0 0 1030 56 0 0
Substitution: 0 65534 's001' dotlessi
EndChar
StartChar: j
Encoding: 106 106 74
Width: 278
Flags: HW
HStem: 709 20G<70 210>
Fore
210 729 m 1
 210 604 l 1
 70 604 l 1
 70 729 l 1
 210 729 l 1
EndSplineSet
Refer: 1111 63166 N 1 0 0 1 0 0 2
KernsSLIFO: 33 59 0 0 34 56 0 0 35 56 0 0 36 56 0 0 37 56 0 0 38 56 0 0 39 56 0 0 40 56 0 0 41 56 0 0 42 56 0 0 43 56 0 0 44 56 0 0 45 56 0 0 46 56 0 0 47 56 0 0 48 56 0 0 49 56 0 0 50 56 0 0 51 66 0 0 52 87 0 0 53 56 0 0 54 56 0 0 55 62 0 0 56 69 0 0 57 56 0 0 58 67 0 0 65 65 0 0 66 56 0 0 67 56 0 0 68 59 0 0 69 66 0 0 70 87 0 0 71 64 0 0 72 56 0 0 73 56 0 0 75 56 0 0 76 56 0 0 77 56 0 0 78 56 0 0 79 56 0 0 80 56 0 0 81 60 0 0 82 56 0 0 83 60 0 0 84 70 0 0 85 56 0 0 86 71 0 0 87 83 0 0 88 84 0 0 89 76 0 0 90 77 0 0 1020 69 0 0 1021 69 0 0 1022 70 0 0 1023 56 0 0 1024 67 0 0 1025 66 0 0 1026 -43 0 0 1027 75 0 0 1028 70 0 0 1030 56 0 0
Substitution: 0 65534 's001' uniF6BE
EndChar
StartChar: k
Encoding: 107 107 75
Width: 556
Flags: W
HStem: 0 21G<59 199 384 548> 520 20G<376 535> 709 20G<59 199>
Fore
199 330 m 1
 376 540 l 1
 535 540 l 1
 351 336 l 1
 548 0 l 1
 384 0 l 1
 255 238 l 1
 199 177 l 1
 199 0 l 1
 59 0 l 1
 59 729 l 1
 199 729 l 1
 199 330 l 1
EndSplineSet
KernsSLIFO: 12 7 0 0 13 -25 0 0 14 6 0 0 33 116 0 0 34 77 0 0 35 58 0 0 36 82 0 0 37 80 0 0 38 85 0 0 39 55 0 0 40 91 0 0 41 96 0 0 43 85 0 0 44 79 0 0 45 93 0 0 46 91 0 0 47 56 0 0 48 83 0 0 49 52 0 0 50 79 0 0 51 88 0 0 52 -76 0 0 53 56 0 0 55 58 0 0 56 116 0 0 58 56 0 0 65 -2 0 0 66 100 0 0 69 -15 0 0 70 69 0 0 71 -21 0 0 72 92 0 0 73 92 0 0 74 89 0 0 75 100 0 0 76 92 0 0 77 99 0 0 78 96 0 0 79 -22 0 0 80 101 0 0 82 96 0 0 83 -10 0 0 84 60 0 0 85 -1 0 0 86 105 0 0 87 120 0 0 88 113 0 0 89 104 0 0 90 135 0 0 158 -2 0 0 161 -2 0 0 162 -2 0 0 163 1 0 0 166 -15 0 0 176 -22 0 0 179 -22 0 0 185 -1 0 0 1020 86 0 0 1021 127 0 0 1022 94 0 0 1024 59 0 0 1025 78 0 0 1027 90 0 0 1028 98 0 0 1030 54 0 0
EndChar
StartChar: l
Encoding: 108 108 76
Width: 278
Flags: W
HStem: 0 21G<67 207> 709 20G<67 207>
Fore
207 729 m 1
 207 0 l 1
 67 0 l 1
 67 729 l 1
 207 729 l 1
EndSplineSet
KernsSLIFO: 33 56 0 0 34 56 0 0 35 56 0 0 36 56 0 0 37 56 0 0 38 56 0 0 39 56 0 0 40 56 0 0 41 56 0 0 42 56 0 0 43 56 0 0 44 56 0 0 45 56 0 0 46 56 0 0 47 56 0 0 48 56 0 0 49 56 0 0 50 56 0 0 51 63 0 0 52 84 0 0 53 56 0 0 54 56 0 0 55 59 0 0 56 66 0 0 57 56 0 0 58 64 0 0 65 62 0 0 66 56 0 0 67 56 0 0 68 56 0 0 69 63 0 0 70 84 0 0 71 56 0 0 72 56 0 0 73 56 0 0 75 56 0 0 76 56 0 0 77 56 0 0 78 56 0 0 79 56 0 0 80 56 0 0 81 57 0 0 82 56 0 0 83 57 0 0 84 67 0 0 85 56 0 0 86 -5 0 0 87 80 0 0 88 81 0 0 89 -2 0 0 90 74 0 0 1020 66 0 0 1021 66 0 0 1022 67 0 0 1023 56 0 0 1024 64 0 0 1025 63 0 0 1026 56 0 0 1027 72 0 0 1028 67 0 0 1030 56 0 0
EndChar
StartChar: m
Encoding: 109 109 77
Width: 889
Flags: W
HStem: 0 21G<60 200 372 512 684 824> 430 119<266 380.5 578 706>
VStem: 372 140<0 381.5> 684 140<0 434.5>
Fore
60 540 m 1
 199 540 l 1
 199 473 l 1
 245 528 285 549 347 549 c 0
 414 549 468 520 494 469 c 1
 536 525 584 549 652 549 c 0
 760 549 824 487 824 382 c 2
 824 0 l 1
 684 0 l 1
 684 360 l 2
 684 403 655 430 608 430 c 0
 548 430 512 390 512 324 c 2
 512 0 l 1
 372 0 l 1
 372 360 l 2
 372 403 343 430 296 430 c 0
 236 430 200 390 200 324 c 2
 200 0 l 1
 60 0 l 1
 60 540 l 1
EndSplineSet
KernsSLIFO: 33 56 0 0 34 56 0 0 35 56 0 0 36 56 0 0 37 56 0 0 38 56 0 0 39 56 0 0 40 56 0 0 41 56 0 0 43 56 0 0 44 56 0 0 45 56 0 0 46 56 0 0 47 56 0 0 48 56 0 0 49 56 0 0 50 56 0 0 51 56 0 0 52 -131 0 0 53 56 0 0 54 -48 0 0 56 69 0 0 57 -110 0 0 65 68 0 0 66 56 0 0 67 56 0 0 68 62 0 0 69 56 0 0 70 66 0 0 71 58 0 0 72 56 0 0 73 56 0 0 75 56 0 0 76 56 0 0 77 56 0 0 78 56 0 0 79 56 0 0 80 6 0 0 81 63 0 0 82 56 0 0 83 63 0 0 84 64 0 0 85 56 0 0 86 -19 0 0 87 -6 0 0 88 76 0 0 89 -18 0 0 90 76 0 0 1020 63 0 0 1021 66 0 0 1022 71 0 0 1023 56 0 0 1024 65 0 0 1025 60 0 0 1026 -48 0 0 1027 70 0 0 1028 65 0 0
EndChar
StartChar: n
Encoding: 110 110 78
Width: 611
Flags: W
HStem: 0 21G<63 203 406 546> 430 119<282 422.5>
VStem: 406 140<0 421.5>
Fore
63 540 m 1
 203 540 l 1
 203 462 l 1
 243 522 292 549 365 549 c 0
 480 549 546 481 546 362 c 2
 546 0 l 1
 406 0 l 1
 406 333 l 2
 406 397 376 430 316 430 c 0
 248 430 203 388 203 324 c 2
 203 0 l 1
 63 0 l 1
 63 540 l 1
EndSplineSet
KernsSLIFO: 33 56 0 0 34 56 0 0 35 56 0 0 36 56 0 0 37 56 0 0 38 56 0 0 39 56 0 0 40 56 0 0 41 56 0 0 43 56 0 0 44 56 0 0 45 56 0 0 46 56 0 0 47 56 0 0 48 56 0 0 49 56 0 0 50 56 0 0 51 56 0 0 52 -80 0 0 53 56 0 0 54 -54 0 0 56 56 0 0 57 -119 0 0 65 67 0 0 66 56 0 0 67 56 0 0 68 56 0 0 69 56 0 0 70 63 0 0 71 57 0 0 72 56 0 0 73 56 0 0 75 56 0 0 76 56 0 0 77 56 0 0 78 56 0 0 79 56 0 0 80 5 0 0 81 57 0 0 82 56 0 0 83 62 0 0 84 61 0 0 85 56 0 0 86 -20 0 0 87 -7 0 0 88 88 0 0 89 -19 0 0 90 76 0 0 989 -12 0 0 1020 73 0 0 1021 66 0 0 1022 70 0 0 1023 56 0 0 1024 65 0 0 1025 71 0 0 1026 -48 0 0 1027 73 0 0 1028 64 0 0
EndChar
StartChar: o
Encoding: 111 111 79
Width: 611
Flags: W
HStem: -23 113<219 384> 436 113<218.5 385.5>
VStem: 35 140<174 351.5> 429 140<172.5 350.5>
Fore
301 549 m 0
 470 549 569 442 569 259 c 0
 569 86 466 -23 302 -23 c 0
 136 -23 35 85 35 263 c 0
 35 440 136 549 301 549 c 0
302 436 m 0
 226 436 175 366 175 263 c 0
 175 160 226 90 302 90 c 0
 377 90 429 160 429 261 c 0
 429 367 379 436 302 436 c 0
EndSplineSet
KernsSLIFO: 34 56 0 0 36 56 0 0 37 56 0 0 38 56 0 0 40 56 0 0 41 56 0 0 43 56 0 0 44 56 0 0 45 56 0 0 46 56 0 0 48 56 0 0 50 56 0 0 51 54 0 0 52 -84 0 0 53 56 0 0 54 -56 0 0 57 -117 0 0 66 56 0 0 70 49 0 0 72 56 0 0 73 56 0 0 74 43 0 0 75 56 0 0 76 56 0 0 77 56 0 0 78 56 0 0 80 56 0 0 82 56 0 0 84 -8 0 0 85 56 0 0 86 -23 0 0 87 -10 0 0 88 -25 0 0 89 -22 0 0 90 41 0 0 989 -17 0 0 1020 53 0 0 1022 66 0 0 1024 70 0 0 1025 54 0 0 1026 -88 0 0 1027 56 0 0 1028 61 0 0
EndChar
StartChar: p
Encoding: 112 112 80
Width: 611
Flags: HW
HStem: -24 117<281 413> 432 117<281 418>
VStem: 434 140<180 341.5>
Fore
348 549 m 0
 488 549 574 421 574 262 c 0
 574 98 478 -24 348 -24 c 0
 280 -24 232 4 198 64 c 1
 198 -218 l 1
 58 -218 l 1
 58 540 l 1
 198 540 l 1
 198 460 l 1
 232 520 280 549 348 549 c 0
316 432 m 0
 246 432 198 363 198 262 c 0
 198 161 246 93 316 93 c 0
 385 93 434 162 434 260 c 0
 434 363 387 432 316 432 c 0
EndSplineSet
KernsSLIFO: 34 56 0 0 35 48 0 0 36 56 0 0 37 56 0 0 38 56 0 0 40 56 0 0 41 56 0 0 43 56 0 0 44 56 0 0 45 56 0 0 46 56 0 0 48 56 0 0 50 56 0 0 51 54 0 0 52 -116 0 0 53 56 0 0 54 -41 0 0 57 -110 0 0 65 44 0 0 66 60 0 0 68 56 0 0 70 57 0 0 71 56 0 0 72 56 0 0 73 56 0 0 74 49 0 0 75 60 0 0 76 56 0 0 77 59 0 0 78 56 0 0 80 61 0 0 81 56 0 0 82 56 0 0 83 42 0 0 84 -5 0 0 85 58 0 0 87 52 0 0 89 -20 0 0 90 49 0 0 1020 67 0 0 1022 78 0 0 1024 77 0 0 1025 63 0 0 1026 -88 0 0 1027 73 0 0 1028 67 0 0
EndChar
StartChar: q
Encoding: 113 113 81
Width: 611
Flags: W
HStem: -24 117<185.5 321> 432 117<189 321.5>
VStem: 28 140<180 344.5>
Fore
253 -24 m 0
 118 -24 28 98 28 262 c 0
 28 427 124 549 254 549 c 0
 321 549 371 519 404 460 c 1
 404 540 l 1
 544 540 l 1
 544 -218 l 1
 404 -218 l 1
 404 64 l 1
 371 5 321 -24 253 -24 c 0
286 432 m 0
 216 432 168 363 168 262 c 0
 168 161 216 93 286 93 c 0
 356 93 404 161 404 259 c 0
 404 364 357 432 286 432 c 0
EndSplineSet
KernsSLIFO: 33 60 0 0 34 56 0 0 35 56 0 0 36 56 0 0 37 56 0 0 38 56 0 0 39 56 0 0 40 56 0 0 41 56 0 0 42 56 0 0 43 56 0 0 44 56 0 0 45 56 0 0 46 56 0 0 47 56 0 0 48 56 0 0 49 56 0 0 50 56 0 0 51 67 0 0 52 -133 0 0 53 56 0 0 56 67 0 0 58 56 0 0 65 66 0 0 66 56 0 0 67 4 0 0 68 60 0 0 69 67 0 0 70 88 0 0 71 65 0 0 72 56 0 0 73 56 0 0 74 98 0 0 75 56 0 0 76 56 0 0 77 56 0 0 78 56 0 0 79 56 0 0 80 56 0 0 81 61 0 0 82 56 0 0 83 61 0 0 84 71 0 0 85 4 0 0 86 72 0 0 87 84 0 0 88 85 0 0 89 81 0 0 90 78 0 0 1020 70 0 0 1021 70 0 0 1022 71 0 0 1023 56 0 0 1024 68 0 0 1025 67 0 0 1026 -42 0 0 1027 76 0 0 1028 71 0 0 1030 56 0 0
EndChar
StartChar: r
Encoding: 114 114 82
Width: 389
Flags: W
HStem: 0 21G<63 203> 520 20G<63 203>
Fore
63 540 m 1
 203 540 l 1
 203 434 l 1
 233 507 289 549 353 549 c 0
 357 549 362 549 370 548 c 1
 370 406 l 1
 351 409 341 410 326 410 c 0
 244 410 203 369 203 287 c 2
 203 0 l 1
 63 0 l 1
 63 540 l 1
EndSplineSet
KernsSLIFO: 12 -57 0 0 13 -35 0 0 14 -57 0 0 26 -27 0 0 27 -27 0 0 34 56 0 0 36 56 0 0 37 56 0 0 38 59 0 0 40 65 0 0 41 70 0 0 42 -54 0 0 43 59 0 0 44 56 0 0 45 67 0 0 46 65 0 0 48 57 0 0 50 56 0 0 51 43 0 0 52 -102 0 0 53 56 0 0 58 -55 0 0 65 6 0 0 66 74 0 0 69 4 0 0 70 22 0 0 71 -2 0 0 72 -4 0 0 73 -4 0 0 74 -6 0 0 75 74 0 0 76 -4 0 0 77 -1 0 0 78 -2 0 0 79 -1 0 0 80 75 0 0 81 1 0 0 82 -2 0 0 83 3 0 0 84 22 0 0 85 66 0 0 86 21 0 0 87 26 0 0 88 17 0 0 89 23 0 0 90 9 0 0 157 6 0 0 158 6 0 0 159 6 0 0 161 6 0 0 162 6 0 0 163 4 0 0 165 4 0 0 166 4 0 0 167 4 0 0 175 -1 0 0 176 -1 0 0 177 -1 0 0 179 -1 0 0 181 -4 0 0 272 5 0 0 989 14 0 0 1020 55 0 0 1021 84 0 0 1022 47 0 0 1024 51 0 0 1025 54 0 0 1026 -121 0 0 1028 56 0 0 1030 56 0 0
EndChar
StartChar: s
Encoding: 115 115 83
Width: 556
Flags: W
HStem: -23 110<202 378.5> 439 110<201.5 342.5>
VStem: 48 140<316 424.5> 380 140<122.5 195>
Fore
166 157 m 1
 174 120 188 87 276 87 c 0
 341 87 380 107 380 140 c 0
 380 162 368 173 333 184 c 2
 166 236 l 2
 135 246 48 263 48 369 c 0
 48 480 133 549 270 549 c 0
 415 549 503 480 505 366 c 1
 370 366 l 1
 369 415 336 439 269 439 c 0
 220 439 188 419 188 389 c 0
 188 367 198 359 237 347 c 2
 414 296 l 2
 485 275 520 230 520 160 c 0
 520 85 473 -23 284 -23 c 0
 120 -23 33 39 29 157 c 1
 166 157 l 1
EndSplineSet
KernsSLIFO: 34 56 0 0 35 41 0 0 36 56 0 0 37 56 0 0 38 56 0 0 39 41 0 0 40 56 0 0 41 60 0 0 43 56 0 0 44 56 0 0 45 57 0 0 46 56 0 0 47 41 0 0 48 56 0 0 49 41 0 0 50 56 0 0 51 73 0 0 52 -112 0 0 53 51 0 0 54 -44 0 0 57 -111 0 0 65 55 0 0 66 64 0 0 68 46 0 0 70 69 0 0 71 49 0 0 72 56 0 0 73 56 0 0 74 53 0 0 75 64 0 0 76 56 0 0 77 63 0 0 78 60 0 0 80 65 0 0 81 47 0 0 82 60 0 0 83 56 0 0 84 -1 0 0 85 60 0 0 87 49 0 0 90 65 0 0 989 -12 0 0 1020 75 0 0 1021 52 0 0 1022 81 0 0 1024 100 0 0 1025 72 0 0 1026 -75 0 0 1027 85 0 0 1028 46 0 0
EndChar
StartChar: t
Encoding: 116 116 84
Width: 333
Flags: W
HStem: -23 21G<174 235.5> 436 93<14 83 223 301>
Fore
301 529 m 1
 301 436 l 1
 223 436 l 1
 223 142 l 2
 223 94 232 83 269 83 c 0
 279 83 287 84 301 86 c 1
 301 -12 l 1
 276 -20 251 -23 220 -23 c 0
 128 -23 83 19 83 104 c 2
 83 436 l 1
 14 436 l 1
 14 529 l 1
 83 529 l 1
 83 674 l 1
 223 674 l 1
 223 529 l 1
 301 529 l 1
EndSplineSet
KernsSLIFO: 26 -25 0 0 27 -25 0 0 33 68 0 0 34 56 0 0 35 67 0 0 36 60 0 0 37 58 0 0 38 63 0 0 39 67 0 0 40 69 0 0 41 74 0 0 43 63 0 0 44 57 0 0 45 71 0 0 46 69 0 0 47 68 0 0 48 61 0 0 49 65 0 0 50 57 0 0 51 78 0 0 53 56 0 0 56 102 0 0 58 90 0 0 65 6 0 0 66 78 0 0 67 51 0 0 68 54 0 0 69 -3 0 0 70 106 0 0 71 51 0 0 72 2 0 0 73 70 0 0 74 67 0 0 75 78 0 0 76 70 0 0 77 77 0 0 78 74 0 0 79 -10 0 0 80 79 0 0 81 57 0 0 82 74 0 0 83 77 0 0 84 103 0 0 85 77 0 0 86 64 0 0 87 82 0 0 88 108 0 0 89 68 0 0 90 106 0 0 158 6 0 0 161 6 0 0 162 6 0 0 163 7 0 0 166 -3 0 0 176 -10 0 0 179 -10 0 0 989 4 0 0 1020 87 0 0 1021 99 0 0 1022 85 0 0 1024 71 0 0 1025 83 0 0 1027 72 0 0 1028 91 0 0 1030 56 0 0
EndChar
StartChar: u
Encoding: 117 117 85
Width: 611
Flags: W
HStem: -23 119<181.5 322> 520 20G<58 198 401 541>
VStem: 58 140<104.5 540>
Fore
541 0 m 1
 401 0 l 1
 401 64 l 1
 361 4 312 -23 239 -23 c 0
 124 -23 58 45 58 164 c 2
 58 540 l 1
 198 540 l 1
 198 193 l 2
 198 128 228 96 288 96 c 0
 356 96 401 138 401 202 c 2
 401 540 l 1
 541 540 l 1
 541 0 l 1
EndSplineSet
KernsSLIFO: 33 57 0 0 34 56 0 0 35 56 0 0 36 56 0 0 37 56 0 0 38 56 0 0 39 56 0 0 40 56 0 0 41 56 0 0 42 56 0 0 43 56 0 0 44 56 0 0 45 56 0 0 46 56 0 0 47 56 0 0 48 56 0 0 49 56 0 0 50 56 0 0 51 64 0 0 52 -136 0 0 53 56 0 0 56 64 0 0 58 56 0 0 65 63 0 0 66 56 0 0 67 56 0 0 68 57 0 0 69 64 0 0 70 85 0 0 71 56 0 0 72 56 0 0 73 56 0 0 75 56 0 0 76 56 0 0 77 56 0 0 78 56 0 0 79 56 0 0 80 56 0 0 81 58 0 0 82 56 0 0 83 58 0 0 84 68 0 0 85 56 0 0 86 69 0 0 87 81 0 0 88 82 0 0 89 74 0 0 90 75 0 0 989 -2 0 0 1020 67 0 0 1021 67 0 0 1022 68 0 0 1023 56 0 0 1024 65 0 0 1025 64 0 0 1026 -45 0 0 1027 73 0 0 1028 68 0 0 1030 56 0 0
EndChar
StartChar: v
Encoding: 118 118 86
Width: 556
Flags: W
HStem: 0 21G<203 350> 520 20G<14 162 388 536>
Fore
350 0 m 1
 203 0 l 1
 14 540 l 1
 162 540 l 1
 279 145 l 1
 388 540 l 1
 536 540 l 1
 350 0 l 1
EndSplineSet
KernsSLIFO: 12 -51 0 0 14 -50 0 0 26 -32 0 0 27 -34 0 0 33 -63 0 0 34 56 0 0 36 56 0 0 37 56 0 0 38 60 0 0 40 66 0 0 41 70 0 0 43 60 0 0 44 56 0 0 45 68 0 0 46 66 0 0 48 58 0 0 50 56 0 0 52 -102 0 0 57 -43 0 0 58 -56 0 0 65 -15 0 0 66 74 0 0 67 -20 0 0 69 -15 0 0 70 74 0 0 71 -21 0 0 72 66 0 0 73 66 0 0 74 64 0 0 75 74 0 0 76 -5 0 0 77 74 0 0 78 70 0 0 79 -22 0 0 80 76 0 0 82 70 0 0 83 -17 0 0 85 71 0 0 88 129 0 0 90 110 0 0 157 -15 0 0 158 -15 0 0 159 -15 0 0 160 -15 0 0 161 -15 0 0 162 -15 0 0 163 -16 0 0 165 -15 0 0 166 -15 0 0 167 -15 0 0 175 -22 0 0 176 -22 0 0 179 -22 0 0 181 -20 0 0 1021 106 0 0 1022 45 0 0 1026 -143 0 0 1028 49 0 0
EndChar
StartChar: w
Encoding: 119 119 87
Width: 778
Flags: W
HStem: 0 21G<157 301 468 613> 520 20G<5 150 318 458 621 766>
Fore
613 0 m 1
 468 0 l 1
 387 381 l 1
 301 0 l 1
 157 0 l 1
 5 540 l 1
 150 540 l 1
 236 162 l 1
 318 540 l 1
 458 540 l 1
 539 162 l 1
 621 540 l 1
 766 540 l 1
 613 0 l 1
EndSplineSet
KernsSLIFO: 12 -33 0 0 13 11 0 0 14 -32 0 0 26 -27 0 0 27 -29 0 0 34 62 0 0 36 67 0 0 37 65 0 0 38 70 0 0 40 76 0 0 41 81 0 0 43 70 0 0 44 64 0 0 45 78 0 0 46 76 0 0 48 68 0 0 50 64 0 0 51 42 0 0 52 -91 0 0 53 56 0 0 57 -43 0 0 65 -7 0 0 66 85 0 0 67 -8 0 0 68 52 0 0 69 -3 0 0 70 89 0 0 71 -9 0 0 72 77 0 0 73 77 0 0 74 74 0 0 75 85 0 0 76 -1 0 0 77 84 0 0 78 81 0 0 79 -10 0 0 80 86 0 0 81 53 0 0 82 81 0 0 83 -9 0 0 84 71 0 0 85 86 0 0 87 56 0 0 88 112 0 0 90 118 0 0 157 -7 0 0 158 -7 0 0 159 -7 0 0 160 -7 0 0 161 -7 0 0 162 -7 0 0 163 -8 0 0 165 -3 0 0 166 -3 0 0 167 -3 0 0 175 -10 0 0 176 -10 0 0 179 -10 0 0 181 -8 0 0 1020 45 0 0 1021 114 0 0 1022 61 0 0 1024 65 0 0 1025 41 0 0 1026 -113 0 0 1027 52 0 0 1028 66 0 0 1030 56 0 0
EndChar
StartChar: x
Encoding: 120 120 88
Width: 556
Flags: W
HStem: 0 21G<16 184 367 535> 520 20G<20 188 363 531>
Fore
355 272 m 1
 535 0 l 1
 367 0 l 1
 276 168 l 1
 184 0 l 1
 16 0 l 1
 196 272 l 1
 20 540 l 1
 188 540 l 1
 276 377 l 1
 363 540 l 1
 531 540 l 1
 355 272 l 1
EndSplineSet
KernsSLIFO: 33 102 0 0 34 65 0 0 35 52 0 0 36 70 0 0 37 68 0 0 38 73 0 0 39 50 0 0 40 79 0 0 41 84 0 0 43 73 0 0 44 67 0 0 45 81 0 0 46 79 0 0 47 51 0 0 48 71 0 0 49 47 0 0 50 67 0 0 51 80 0 0 52 -88 0 0 53 52 0 0 54 56 0 0 55 53 0 0 56 105 0 0 58 56 0 0 65 -9 0 0 66 88 0 0 67 -22 0 0 69 -17 0 0 70 60 0 0 72 80 0 0 73 80 0 0 74 77 0 0 75 88 0 0 76 80 0 0 77 87 0 0 78 84 0 0 79 -24 0 0 80 89 0 0 81 -20 0 0 82 84 0 0 84 55 0 0 85 73 0 0 86 130 0 0 87 114 0 0 88 100 0 0 89 135 0 0 90 123 0 0 166 -17 0 0 1020 84 0 0 1021 115 0 0 1022 104 0 0 1024 61 0 0 1025 70 0 0 1027 82 0 0 1028 91 0 0 1030 52 0 0
EndChar
StartChar: y
Encoding: 121 121 89
Width: 556
Flags: W
HStem: -219 103<117.5 212.5> 520 20G<9 163 394 538>
Fore
210 -26 m 2
 210 -22 l 1
 9 540 l 1
 163 540 l 1
 282 147 l 1
 394 540 l 1
 538 540 l 1
 316 -99 l 2
 303 -136 289 -219 136 -219 c 0
 119 -219 107 -218 86 -215 c 1
 86 -110 l 1
 104 -115 112 -116 123 -116 c 0
 172 -116 210 -77 210 -26 c 2
EndSplineSet
KernsSLIFO: 12 -51 0 0 14 -50 0 0 26 -31 0 0 27 -33 0 0 33 -63 0 0 34 56 0 0 36 58 0 0 37 56 0 0 38 61 0 0 40 67 0 0 41 72 0 0 43 61 0 0 44 56 0 0 45 69 0 0 46 67 0 0 48 59 0 0 50 56 0 0 52 -100 0 0 57 -43 0 0 58 -55 0 0 65 -14 0 0 66 76 0 0 67 -21 0 0 69 -16 0 0 70 74 0 0 71 -21 0 0 72 68 0 0 73 68 0 0 74 65 0 0 75 76 0 0 76 -4 0 0 77 75 0 0 78 72 0 0 79 -22 0 0 80 77 0 0 82 72 0 0 83 -16 0 0 85 69 0 0 88 131 0 0 90 112 0 0 157 -14 0 0 158 -14 0 0 159 -14 0 0 160 -14 0 0 161 -14 0 0 162 -14 0 0 163 -15 0 0 165 -16 0 0 166 -16 0 0 167 -16 0 0 175 -22 0 0 176 -22 0 0 179 -22 0 0 181 -20 0 0 1021 108 0 0 1022 45 0 0 1026 -142 0 0 1028 49 0 0
EndChar
StartChar: z
Encoding: 122 122 90
Width: 500
Flags: W
HStem: 0 113<21 468> 427 113<39 459>
Fore
459 540 m 1
 459 427 l 1
 194 113 l 1
 468 113 l 1
 468 0 l 1
 21 0 l 1
 21 113 l 1
 288 427 l 1
 39 427 l 1
 39 540 l 1
 459 540 l 1
EndSplineSet
KernsSLIFO: 33 93 0 0 34 56 0 0 35 69 0 0 36 58 0 0 37 56 0 0 38 62 0 0 39 69 0 0 40 68 0 0 41 72 0 0 42 45 0 0 43 62 0 0 44 56 0 0 45 70 0 0 46 68 0 0 47 71 0 0 48 60 0 0 49 68 0 0 50 56 0 0 51 83 0 0 52 -100 0 0 53 47 0 0 55 43 0 0 56 56 0 0 58 56 0 0 65 85 0 0 66 76 0 0 67 61 0 0 68 64 0 0 69 73 0 0 70 96 0 0 71 62 0 0 72 68 0 0 73 68 0 0 74 66 0 0 75 76 0 0 76 68 0 0 77 76 0 0 78 72 0 0 79 56 0 0 80 78 0 0 81 66 0 0 82 72 0 0 83 84 0 0 84 95 0 0 85 69 0 0 86 92 0 0 87 105 0 0 88 119 0 0 89 97 0 0 90 64 0 0 1020 89 0 0 1021 65 0 0 1022 82 0 0 1024 83 0 0 1025 84 0 0 1027 94 0 0 1028 92 0 0 1030 47 0 0
EndChar
StartChar: braceleft
Encoding: 123 123 91
Width: 389
Flags: W
HStem: -200 99<205 317 241 317> 222 93<37 71.5> 630 99<205 317>
Fore
118 150 m 2
 118 209 102 222 41 222 c 2
 37 223 l 1
 37 315 l 1
 53 315 l 2
 98 316 118 335 118 378 c 2
 118 589 l 2
 118 671 169 729 241 729 c 2
 317 729 l 1
 317 630 l 1
 280 630 l 2
 249 630 235 613 235 573 c 2
 235 378 l 2
 235 305 213 280 138 269 c 1
 213 257 235 232 235 159 c 2
 235 -36 l 2
 235 -85 246 -101 280 -101 c 2
 317 -101 l 1
 317 -200 l 1
 241 -200 l 2
 169 -200 118 -142 118 -60 c 2
 118 150 l 2
EndSplineSet
EndChar
StartChar: bar
Encoding: 124 124 92
Width: 280
Flags: W
HStem: 709 20G<100 180>
VStem: 100 80<-200 729>
Fore
180 729 m 1
 180 -200 l 1
 100 -200 l 1
 100 729 l 1
 180 729 l 1
EndSplineSet
EndChar
StartChar: braceright
Encoding: 125 125 93
Width: 389
Flags: W
HStem: -200 99<72 184> 214 93<317.5 352> 630 99<72 184>
Fore
271 379 m 2
 271 320 287 307 348 307 c 2
 352 306 l 1
 352 214 l 1
 336 214 l 2
 291 213 271 194 271 151 c 2
 271 -60 l 2
 271 -142 220 -200 148 -200 c 2
 72 -200 l 1
 72 -101 l 1
 109 -101 l 2
 140 -101 154 -84 154 -44 c 2
 154 151 l 2
 154 224 176 249 251 260 c 1
 176 272 154 297 154 370 c 2
 154 565 l 2
 154 614 143 630 109 630 c 2
 72 630 l 1
 72 729 l 1
 148 729 l 2
 220 729 271 671 271 589 c 2
 271 379 l 2
EndSplineSet
EndChar
StartChar: asciitilde
Encoding: 126 126 94
Width: 584
Flags: W
HStem: 142 80<375.5 432> 234 80<147.5 203.5>
Fore
388 222 m 0
 436 222 440 249 441 288 c 1
 519 288 l 1
 513 190 472 142 392 142 c 0
 359 142 335 150 309 168 c 2
 252 210 l 2
 229 227 212 234 191 234 c 0
 145 234 140 209 138 169 c 1
 60 169 l 1
 65 266 108 314 187 314 c 0
 220 314 246 306 270 289 c 2
 327 247 l 2
 353 228 367 222 388 222 c 0
EndSplineSet
EndChar
StartChar: cent
Encoding: 162 162 96
Width: 556
Flags: W
VStem: 36 140<176 345> 259 44<-124 -22 91 435 548 634>
Fore
303 435 m 1
 303 91 l 1
 349 98 373 126 388 187 c 1
 522 187 l 1
 511 67 422 -18 303 -23 c 1
 303 -124 l 1
 259 -124 l 1
 259 -22 l 1
 120 -13 36 93 36 259 c 0
 36 431 114 533 259 548 c 1
 259 634 l 1
 303 634 l 1
 303 549 l 1
 426 547 514 462 522 338 c 1
 388 338 l 1
 375 400 350 428 303 435 c 1
259 94 m 1
 259 433 l 1
 205 419 176 359 176 260 c 0
 176 167 205 110 259 94 c 1
EndSplineSet
EndChar
StartChar: sterling
Encoding: 163 163 97
Width: 556
Flags: W
HStem: -23 21G<357 416.5> 9 114<176 287> 316 55<31 120 236 375> 604 111<201.5 380.5>
VStem: 38 141<494 570>
Fore
179 513 m 0
 179 476 212 431 236 371 c 1
 375 371 l 1
 375 316 l 1
 253 316 l 1
 265 290 268 277 268 257 c 0
 268 199 237 153 152 86 c 1
 215 116 235 123 264 123 c 0
 310 123 341 102 391 102 c 0
 424 102 456 111 496 131 c 1
 537 22 l 1
 481 -11 441 -23 392 -23 c 0
 322 -23 265 9 195 9 c 0
 157 9 130 1 86 -21 c 1
 31 80 l 1
 115 137 141 173 141 231 c 0
 141 256 136 277 120 316 c 1
 31 316 l 1
 31 371 l 1
 91 371 l 1
 46 450 38 472 38 516 c 0
 38 624 127 715 276 715 c 0
 485 715 514 581 522 484 c 1
 390 484 l 1
 389 495 l 2
 383 540 367 604 277 604 c 0
 220 604 179 566 179 513 c 0
EndSplineSet
EndChar
StartChar: currency
Encoding: 164 164 98
Width: 556
Flags: W
HStem: 147 98<249.5 308.5> 460 98<250 309>
VStem: 76 96<322.5 382.5> 386 96<323 382>
Fore
388 528 m 1
 461 601 l 1
 530 532 l 1
 455 457 l 1
 475 417 482 392 482 354 c 0
 482 315 473 281 453 246 c 1
 530 170 l 1
 461 102 l 1
 386 177 l 1
 340 152 322 147 286 147 c 0
 246 147 201 159 175 178 c 1
 96 100 l 1
 28 169 l 1
 106 246 l 1
 84 286 76 314 76 352 c 0
 76 390 86 427 105 457 c 1
 26 536 l 1
 95 604 l 1
 172 527 l 1
 203 546 244 558 281 558 c 0
 318 558 359 546 388 528 c 1
280 460 m 0
 220 460 172 413 172 352 c 0
 172 293 220 245 279 245 c 0
 338 245 386 293 386 353 c 0
 386 411 338 460 280 460 c 0
EndSplineSet
EndChar
StartChar: yen
Encoding: 165 165 99
Width: 556
Flags: W
HStem: 0 21G<215 355> 180 59<70 215 355 497> 292 59<70 215 355 497> 684 20G<5 144 417 552>
Fore
497 351 m 1
 497 292 l 1
 355 292 l 1
 355 239 l 1
 497 239 l 1
 497 180 l 1
 355 180 l 1
 355 0 l 1
 215 0 l 1
 215 180 l 1
 70 180 l 1
 70 239 l 1
 215 239 l 1
 215 292 l 1
 70 292 l 1
 70 351 l 1
 208 351 l 1
 5 704 l 1
 144 704 l 1
 283 450 l 1
 417 704 l 1
 552 704 l 1
 360 351 l 1
 497 351 l 1
EndSplineSet
EndChar
StartChar: brokenbar
Encoding: 166 166 100
Width: 280
Flags: W
HStem: 709 20G<100 180>
VStem: 100 80<-200 189 340 729>
Fore
180 729 m 1
 180 340 l 1
 100 340 l 1
 100 729 l 1
 180 729 l 1
180 189 m 1
 180 -200 l 1
 100 -200 l 1
 100 189 l 1
 180 189 l 1
EndSplineSet
EndChar
StartChar: section
Encoding: 167 167 101
Width: 556
Flags: W
HStem: -201 111<206.5 341> -20 20G<65 196> 544 21G<346 473> 621 102<212.5 316.5>
VStem: 33 119<253.5 331.5> 64 140<516 601> 353 141<-67 18.5> 398 120<220.5 296>
Fore
125 428 m 1xfa
 105 448 64 481 64 551 c 0
 64 651 152 723 273 723 c 0
 360 723 467 693 473 544 c 1
 346 544 l 1
 339 597 315 621 268 621 c 0
 230 621 204 601 204 570 c 0
 204 542 223 524 294 485 c 2
 421 415 l 2
 487 378 518 330 518 262 c 0xf5
 518 195 491 155 424 124 c 1
 471 91 494 47 494 -10 c 0
 494 -124 406 -201 276 -201 c 0
 137 -201 66 -133 65 0 c 1
 196 0 l 1
 196 -10 l 2
 199 -57 215 -90 277 -90 c 0
 322 -90 353 -65 353 -29 c 0
 353 15 319 29 283 49 c 2
 112 149 l 2
 61 179 33 226 33 281 c 0
 33 341 54 374 125 428 c 1xfa
337 306 m 2
 194 382 l 1
 164 364 152 346 152 317 c 0xf9
 152 286 165 269 205 247 c 2
 352 167 l 1
 386 191 398 209 398 232 c 0
 398 264 384 281 337 306 c 2
EndSplineSet
EndChar
StartChar: dieresis
Encoding: 168 168 102
Width: 333
Flags: W
HStem: 723 20G<18 128 204 314>
Fore
128 743 m 1
 128 621 l 1
 18 621 l 1
 18 743 l 1
 128 743 l 1
314 743 m 1
 314 621 l 1
 204 621 l 1
 204 743 l 1
 314 743 l 1
EndSplineSet
EndChar
StartChar: copyright
Encoding: 169 169 103
Width: 737
Flags: W
HStem: -22 72<261 472> 128 83<302.5 420> 509 83<304 417.5> 671 72<263.5 474>
VStem: -14 78<256.5 466> 163 92<289 431.5> 673 78<254 466.5>
Fore
552 431 m 1
 462 431 l 1
 451 485 422 509 369 509 c 0
 298 509 255 453 255 359 c 0
 255 266 296 211 366 211 c 0
 423 211 457 241 462 297 c 1
 554 297 l 1
 549 192 476 128 364 128 c 0
 241 128 163 218 163 360 c 0
 163 503 241 592 367 592 c 0
 468 592 544 537 552 431 c 1
369 743 m 0
 579 743 751 572 751 361 c 0
 751 147 580 -22 364 -22 c 0
 158 -22 -14 152 -14 361 c 0
 -14 571 158 743 369 743 c 0
368 671 m 0
 201 671 64 532 64 361 c 0
 64 192 201 50 365 50 c 0
 537 50 673 188 673 361 c 0
 673 532 536 671 368 671 c 0
EndSplineSet
EndChar
StartChar: ordfeminine
Encoding: 170 170 104
Width: 370
Flags: W
HStem: 262 78<37 321> 386 68<99.5 182> 661 68<132 220>
VStem: 31 84<454.5 513.5> 227 82<450 662>
Fore
321 340 m 1
 321 262 l 1
 37 262 l 1
 37 340 l 1
 321 340 l 1
329 410 m 1
 329 400 l 1
 237 400 l 1
 229 410 228 416 227 432 c 1
 199 402 165 386 129 386 c 0
 70 386 31 425 31 484 c 0
 31 543 61 576 126 587 c 2
 160 593 l 2
 188 598 227 600 227 630 c 0
 227 650 210 661 178 661 c 0
 138 661 123 649 119 617 c 1
 41 617 l 1
 42 691 88 729 176 729 c 0
 264 729 309 695 309 629 c 2
 309 450 l 2
 309 433 313 424 329 410 c 1
227 530 m 2
 227 553 l 1
 217 548 214 547 192 543 c 2
 163 537 l 2
 128 530 115 518 115 493 c 0
 115 469 132 454 161 454 c 0
 203 454 227 482 227 530 c 2
EndSplineSet
EndChar
StartChar: guillemotleft
Encoding: 171 171 105
Width: 556
Flags: W
Fore
88 218 m 1
 88 332 l 1
 255 481 l 1
 255 364 l 1
 154 275 l 1
 255 186 l 1
 255 72 l 1
 88 218 l 1
301 218 m 1
 301 332 l 1
 468 481 l 1
 468 364 l 1
 367 275 l 1
 468 186 l 1
 468 72 l 1
 301 218 l 1
EndSplineSet
EndChar
StartChar: logicalnot
Encoding: 172 172 106
Width: 584
Flags: W
HStem: 298 77<40 467>
VStem: 467 77<86 375>
Fore
40 375 m 1
 544 375 l 1
 544 86 l 1
 467 86 l 1
 467 298 l 1
 40 298 l 1
 40 375 l 1
EndSplineSet
EndChar
StartChar: registered
Encoding: 174 174 107
Width: 737
Flags: W
HStem: -22 72<261 472> 313 81<288 391> 502 81<192 468> 671 72<263.5 474>
VStem: -14 78<256.5 466> 192 96<140 583> 440 98<185.5 225> 455 96<427.5 500> 673 78<254 466.5>
Fore
288 313 m 1xfe80
 288 140 l 1
 192 140 l 1
 192 583 l 1
 430 583 l 2
 506 583 551 538 551 462 c 0xfd80
 551 412 530 378 481 354 c 1
 533 330 535 323 538 195 c 0
 538 176 542 169 557 161 c 1
 557 140 l 1
 454 140 l 1
 442 163 440 177 440 221 c 0
 440 229 441 237 441 247 c 2
 441 264 l 2
 441 298 422 313 380 313 c 2
 288 313 l 1xfe80
288 394 m 1
 391 394 l 2
 439 394 455 407 455 448 c 0
 455 489 439 502 391 502 c 2
 288 502 l 1
 288 394 l 1
369 743 m 0
 579 743 751 572 751 361 c 0
 751 147 580 -22 364 -22 c 0
 158 -22 -14 152 -14 361 c 0
 -14 571 158 743 369 743 c 0
368 671 m 0
 201 671 64 532 64 361 c 0
 64 192 201 50 365 50 c 0
 537 50 673 188 673 361 c 0
 673 532 536 671 368 671 c 0
EndSplineSet
EndChar
StartChar: macron
Encoding: 175 175 108
Width: 333
Flags: W
HStem: 640 79<16 315>
Fore
315 719 m 1
 315 640 l 1
 16 640 l 1
 16 719 l 1
 315 719 l 1
EndSplineSet
EndChar
StartChar: degree
Encoding: 176 176 109
Width: 606
Flags: W
HStem: 383 63<260 343.5> 623 63<261 344.5>
VStem: 151 63<493.5 576.5> 391 63<492.5 576.5>
Fore
303 686 m 0
 386 686 454 618 454 535 c 0
 454 450 386 383 301 383 c 0
 219 383 151 452 151 535 c 0
 151 618 219 686 303 686 c 0
303 623 m 0
 254 623 214 583 214 534 c 0
 214 487 254 446 301 446 c 0
 351 446 391 485 391 535 c 0
 391 583 351 623 303 623 c 0
EndSplineSet
EndChar
StartChar: plusminus
Encoding: 177 177 110
Width: 584
Flags: W
HStem: -16 21G<56 527>
VStem: 232 119<137 313 432 608>
Fore
527 103 m 1
 527 -16 l 1
 56 -16 l 1
 56 103 l 1
 527 103 l 1
527 432 m 1
 527 313 l 1
 351 313 l 1
 351 137 l 1
 232 137 l 1
 232 313 l 1
 56 313 l 1
 56 432 l 1
 232 432 l 1
 232 608 l 1
 351 608 l 1
 351 432 l 1
 527 432 l 1
EndSplineSet
EndChar
StartChar: twosuperior
Encoding: 178 178 111
Width: 351
Flags: W
HStem: 284 81<16 326> 557 21G<22 114> 644 74<127 225.5>
VStem: 21 91<572 621> 233 95<518.5 627>
Fore
328 584 m 0
 328 464 213 454 139 365 c 1
 326 365 l 1
 326 284 l 1
 16 284 l 1
 23 482 233 457 233 580 c 0
 233 620 210 644 172 644 c 0
 134 644 112 618 112 573 c 0
 112 571 113 564 114 557 c 1
 22 557 l 1
 21 565 21 572 21 575 c 0
 21 667 77 718 177 718 c 0
 274 718 328 670 328 584 c 0
EndSplineSet
EndChar
StartChar: threesuperior
Encoding: 179 179 112
Width: 351
Flags: W
HStem: 271 77<121 218> 471 62<134 169.5> 645 73<139.5 214>
VStem: 220 95<572 636.5> 234 95<367 432.5>
Fore
22 571 m 1xf0
 27 700 109 718 170 718 c 0
 258 718 315 672 315 601 c 0xf0
 315 563 297 533 263 512 c 1
 307 491 329 456 329 409 c 0
 329 325 266 271 170 271 c 4
 72 271 16 323 15 414 c 1
 107 414 l 1
 110 369 130 348 172 348 c 0
 208 348 234 373 234 408 c 0xe8
 234 449 205 470 150 471 c 2
 134 471 l 1
 134 533 l 1
 145 533 l 2
 194 533 220 553 220 591 c 0
 220 624 199 645 167 645 c 0
 120 645 110 614 110 571 c 1
 22 571 l 1xf0
EndSplineSet
EndChar
StartChar: acute
Encoding: 180 180 113
Width: 333
Flags: W
Fore
317 757 m 1
 191 607 l 1
 121 607 l 1
 191 757 l 1
 317 757 l 1
EndSplineSet
EndChar
StartChar: mu
Encoding: 181 181 114
Width: 611
Flags: W
HStem: -23 100<479.5 556> -23 119<250.5 315> 520 20G<58 198 383 523>
VStem: 383 140<121 540>
Fore
198 206 m 2x70
 198 142 219 96 282 96 c 0x70
 341 96 383 140 383 202 c 2
 383 540 l 1
 523 540 l 1
 523 150 l 2
 523 92 529 77 553 77 c 0
 559 77 563 78 573 81 c 1
 573 -6 l 1
 550 -18 531 -23 503 -23 c 0xb0
 456 -23 432 -9 408 31 c 1
 369 -9 338 -23 292 -23 c 0
 251 -23 220 -12 192 15 c 1
 192 -220 l 1
 58 -220 l 1
 58 540 l 1
 198 540 l 1
 198 206 l 2x70
EndSplineSet
EndChar
StartChar: paragraph
Encoding: 182 182 115
Width: 556
Flags: W
HStem: 657 72<226 529>
VStem: 227 98<-191 657> 388 98<-191 657>
Fore
19 495 m 0
 19 627 109 729 226 729 c 2
 529 729 l 1
 529 657 l 1
 486 657 l 1
 486 -191 l 1
 388 -191 l 1
 388 657 l 1
 325 657 l 1
 325 -191 l 1
 227 -191 l 1
 227 267 l 1
 104 273 19 367 19 495 c 0
EndSplineSet
EndChar
StartChar: periodcentered
Encoding: 183 183 116
Width: 278
Flags: W
Fore
64 292 m 1
 188 292 l 1
 188 169 l 1
 64 169 l 1
 64 292 l 1
EndSplineSet
EndChar
StartChar: cedilla
Encoding: 184 184 117
Width: 333
Flags: W
HStem: -220 50<137 206.5> -94 94<147 172.5>
VStem: 208 86<-157 -105>
Fore
162 0 m 1
 205 0 l 1
 176 -63 l 1
 191 -58 203 -56 218 -56 c 0
 265 -56 294 -83 294 -127 c 0
 294 -187 248 -220 165 -220 c 0
 121 -220 92 -214 27 -192 c 1
 46 -140 l 1
 99 -163 123 -170 151 -170 c 0
 183 -170 208 -152 208 -129 c 0
 208 -108 188 -94 157 -94 c 0
 137 -94 127 -97 108 -106 c 1
 162 0 l 1
EndSplineSet
EndChar
StartChar: onesuperior
Encoding: 185 185 118
Width: 351
Flags: W
HStem: 573 61<40 147> 689 20G<178 242>
VStem: 147 95<284 709>
Fore
147 573 m 1
 40 573 l 1
 40 634 l 1
 118 634 164 659 178 709 c 1
 242 709 l 1
 242 284 l 1
 147 284 l 1
 147 573 l 1
EndSplineSet
EndChar
StartChar: ordmasculine
Encoding: 186 186 119
Width: 365
Flags: W
HStem: 262 78<33 334> 386 68<133.5 232> 661 68<133.5 233.5>
VStem: 23 84<504 610.5> 259 84<503 610>
Fore
334 340 m 1
 334 262 l 1
 33 262 l 1
 33 340 l 1
 334 340 l 1
183 729 m 0
 284 729 343 665 343 555 c 0
 343 451 281 386 183 386 c 0
 84 386 23 451 23 557 c 0
 23 664 84 729 183 729 c 0
183 661 m 0
 138 661 107 619 107 558 c 0
 107 496 138 454 183 454 c 0
 228 454 259 496 259 556 c 0
 259 619 229 661 183 661 c 0
EndSplineSet
EndChar
StartChar: guillemotright
Encoding: 187 187 120
Width: 556
Flags: W
Fore
255 335 m 1
 255 220 l 1
 88 72 l 1
 88 189 l 1
 189 278 l 1
 88 367 l 1
 88 481 l 1
 255 335 l 1
462 335 m 1
 462 220 l 1
 295 72 l 1
 295 189 l 1
 396 278 l 1
 295 367 l 1
 295 481 l 1
 462 335 l 1
EndSplineSet
KernsSLIFO: 33 -51 2 0 52 -108 2 0 54 -78 2 0 55 -60 2 0 57 -111 2 0 126 -51 2 0 129 -51 2 0 130 -51 2 0 131 -39 2 0
EndChar
StartChar: onequarter
Encoding: 188 188 121
Width: 869
Flags: W
HStem: -20 21G<170 257> 93 75<530 709 804 850> 573 61<40 147> 689 20G<178 242>
VStem: 147 95<284 709> 709 95<0 93 168 425>
Fore
147 573 m 1
 40 573 l 1
 40 634 l 1
 118 634 164 659 178 709 c 1
 242 709 l 1
 242 284 l 1
 147 284 l 1
 147 573 l 1
593 715 m 1
 680 715 l 1
 257 -20 l 1
 170 -20 l 1
 593 715 l 1
850 168 m 1
 850 93 l 1
 804 93 l 1
 804 0 l 1
 709 0 l 1
 709 93 l 1
 530 93 l 1
 530 167 l 1
 695 425 l 1
 804 425 l 1
 804 168 l 1
 850 168 l 1
709 168 m 1
 709 332 l 1
 603 168 l 1
 709 168 l 1
EndSplineSet
EndChar
StartChar: onehalf
Encoding: 189 189 122
Width: 869
Flags: W
HStem: 0 81<534 844> 360 74<645 743.5> 573 61<40 147> 689 20G<178 242>
VStem: 147 95<284 709> 539 91<288 337> 751 95<234.5 343>
Fore
147 573 m 1
 40 573 l 1
 40 634 l 1
 118 634 164 659 178 709 c 1
 242 709 l 1
 242 284 l 1
 147 284 l 1
 147 573 l 1
587 715 m 1
 674 715 l 1
 251 -20 l 1
 164 -20 l 1
 587 715 l 1
846 300 m 0
 846 180 731 170 657 81 c 1
 844 81 l 1
 844 0 l 1
 534 0 l 1
 541 198 751 173 751 296 c 0
 751 336 728 360 690 360 c 0
 652 360 630 334 630 289 c 0
 630 287 631 280 632 273 c 1
 540 273 l 1
 539 281 539 288 539 291 c 0
 539 383 595 434 695 434 c 0
 792 434 846 386 846 300 c 0
EndSplineSet
EndChar
StartChar: threequarters
Encoding: 190 190 123
Width: 869
Flags: W
HStem: -20 21G<202 289> 93 75<530 709 804 850> 271 77<121 218> 471 62<134 169.5> 645 73<139.5 214>
VStem: 220 95<572 636.5> 234 95<367 432.5> 709 95<0 93 168 425>
Fore
22 571 m 1xfd
 27 700 109 718 170 718 c 0
 258 718 315 672 315 601 c 0xfd
 315 563 297 533 263 512 c 1
 307 491 329 456 329 409 c 0
 329 325 266 271 170 271 c 0
 72 271 16 323 15 414 c 1
 107 414 l 1
 110 369 130 348 172 348 c 0
 208 348 234 373 234 408 c 0xfb
 234 449 205 470 150 471 c 2
 134 471 l 1
 134 533 l 1
 145 533 l 2
 194 533 220 553 220 591 c 0
 220 624 199 645 167 645 c 0
 120 645 110 614 110 571 c 1
 22 571 l 1xfd
625 715 m 1
 712 715 l 1
 289 -20 l 1
 202 -20 l 1
 625 715 l 1
850 168 m 1
 850 93 l 1
 804 93 l 1
 804 0 l 1
 709 0 l 1
 709 93 l 1
 530 93 l 1
 530 167 l 1
 695 425 l 1
 804 425 l 1
 804 168 l 1
 850 168 l 1
709 168 m 1
 709 332 l 1
 603 168 l 1
 709 168 l 1
EndSplineSet
EndChar
StartChar: AE
Encoding: 198 198 131
Width: 1000
Flags: W
HStem: 0 21G<1 154 430 966> 314 125<580 919> 709 20G<264 946>
Fore
430 152 m 1
 207 152 l 1
 154 0 l 1
 1 0 l 1
 264 729 l 1
 946 729 l 1
 946 604 l 1
 580 604 l 1
 580 439 l 1
 919 439 l 1
 919 314 l 1
 580 314 l 1
 580 125 l 1
 966 125 l 1
 966 0 l 1
 430 0 l 1
 430 152 l 1
430 277 m 1
 430 604 l 1
 363 604 l 1
 249 277 l 1
 430 277 l 1
EndSplineSet
EndChar
StartChar: Ccedilla
Encoding: 199 199 132
Width: 722
Flags: W
HStem: -220 50<321 390.5> 613 128<275 463>
VStem: 44 150<276.5 476> 392 86<-157 -105>
Fore
539 482 m 1
 531 519 508 613 383 613 c 0
 265 613 194 517 194 356 c 0
 194 197 262 103 378 103 c 0
 471 103 530 156 539 249 c 1
 685 249 l 1
 677 84 561 -19 379 -23 c 1
 360 -63 l 1
 374 -58 386 -56 402 -56 c 0
 449 -56 478 -83 478 -127 c 0
 478 -187 432 -220 349 -220 c 0
 305 -220 276 -214 211 -192 c 1
 230 -140 l 1
 283 -163 307 -170 335 -170 c 0
 367 -170 392 -152 392 -129 c 0
 392 -108 372 -94 341 -94 c 0
 321 -94 311 -97 292 -106 c 1
 335 -23 l 1
 242 -7 203 11 155 56 c 0
 82 126 44 230 44 358 c 0
 44 594 172 741 378 741 c 0
 548 741 669 646 682 482 c 1
 539 482 l 1
EndSplineSet
KernsSLIFO: 33 -28 0 0
EndChar
StartChar: Eth
Encoding: 208 208 141
Width: 722
Flags: W
HStem: 0 125<227 419> 339 80<0 77 227 377> 604 125<227 419.5>
VStem: 537 144<268.5 454>
Fore
77 339 m 1
 0 339 l 1
 0 419 l 1
 77 419 l 1
 77 729 l 1
 362 729 l 2
 477 729 545 705 593 645 c 0
 649 577 681 472 681 365 c 0
 681 257 648 154 593 85 c 0
 545 25 476 0 362 0 c 2
 77 0 l 1
 77 339 l 1
537 364 m 0
 537 544 469 604 362 604 c 2
 227 604 l 1
 227 419 l 1
 377 419 l 1
 377 339 l 1
 227 339 l 1
 227 125 l 1
 362 125 l 2
 459 125 537 173 537 364 c 0
EndSplineSet
EndChar
StartChar: multiply
Encoding: 215 215 148
Width: 584
Flags: W
Fore
421 444 m 1
 505 360 l 1
 376 231 l 1
 504 102 l 1
 420 18 l 1
 292 147 l 1
 164 19 l 1
 80 103 l 1
 208 231 l 1
 79 359 l 1
 163 444 l 1
 292 315 l 1
 421 444 l 1
EndSplineSet
EndChar
StartChar: Oslash
Encoding: 216 216 149
Width: 778
Flags: W
HStem: -23 128<343 497> 613 128<280.5 435.5>
VStem: 35 150<310 469> 590 150<251 403>
Fore
740 357 m 0
 740 145 606 -23 388 -23 c 0
 298 -23 223 2 165 52 c 1
 82 -39 l 1
 31 7 l 1
 117 102 l 1
 62 176 35 261 35 359 c 0
 35 579 173 741 388 741 c 0
 483 741 553 716 620 657 c 1
 703 749 l 1
 755 704 l 1
 666 605 l 1
 712 542 740 449 740 357 c 0
567 497 m 1
 256 153 l 1
 287 123 336 105 388 105 c 0
 510 105 590 206 590 361 c 0
 590 408 582 457 567 497 c 1
214 209 m 1
 528 555 l 1
 491 594 444 613 388 613 c 0
 264 613 185 512 185 356 c 0
 185 301 195 251 214 209 c 1
EndSplineSet
KernsSLIFO: 33 -32 0 0
EndChar
StartChar: Thorn
Encoding: 222 222 155
Width: 667
Flags: W
HStem: 0 21G<76 226> 709 20G<76 226>
VStem: 483 150<307.5 431.5>
Fore
398 609 m 2
 598 609 633 481 633 382 c 0
 633 233 548 140 413 140 c 2
 226 140 l 1
 226 0 l 1
 76 0 l 1
 76 729 l 1
 226 729 l 1
 226 609 l 1
 398 609 l 2
226 265 m 1
 366 265 l 2
 446 265 483 300 483 374 c 0
 483 449 446 484 366 484 c 2
 226 484 l 1
 226 265 l 1
EndSplineSet
EndChar
StartChar: germandbls
Encoding: 223 223 156
Width: 611
Flags: W
HStem: -17 120<318 422.5> 349 95<285 340.5> 616 113<208.5 370.5>
VStem: 67 140<0 574.5> 392 140<506 600.5> 435 140<160 306>
Fore
445 411 m 1xf8
 479 404 575 376 575 236 c 0
 575 84 488 -17 357 -17 c 0
 335 -17 318 -15 285 -11 c 1
 285 101 l 1
 291 102 296 102 298 102 c 2
 318 103 l 2
 387 104 435 155 435 226 c 0xf4
 435 302 383 349 298 349 c 2
 285 349 l 1
 285 444 l 1
 294 444 l 2
 354 445 392 479 392 533 c 0
 392 585 355 616 294 616 c 0
 239 616 207 587 207 537 c 2
 207 0 l 1
 67 0 l 1
 67 518 l 2
 67 631 114 729 303 729 c 0
 438 729 532 654 532 547 c 0
 532 480 502 433 445 411 c 1xf8
EndSplineSet
EndChar
StartChar: ae
Encoding: 230 230 163
Width: 889
Flags: W
HStem: -24 113<143.5 279> 226 93<494 856> 436 113<196.5 310>
VStem: 27 140<90.5 190>
Fore
494 226 m 1
 494 105 560 84 608 84 c 0
 656 84 700 113 712 152 c 1
 850 152 l 1
 819 45 721 -23 600 -23 c 0
 512 -23 442 13 400 81 c 1
 338 8 276 -24 195 -24 c 0
 92 -24 27 40 27 141 c 0
 27 239 78 294 186 312 c 2
 242 322 l 2
 295 331 354 334 354 383 c 0
 354 419 326 436 269 436 c 0
 206 436 181 416 174 362 c 1
 43 362 l 1
 45 486 122 549 271 549 c 0
 349 549 408 532 446 499 c 1
 487 532 540 549 601 549 c 0
 713 549 857 489 857 250 c 0
 857 245 857 238 856 226 c 1
 494 226 l 1
354 216 m 2
 354 254 l 1
 337 244 325 240 295 235 c 2
 247 228 l 2
 194 221 167 196 167 155 c 0
 167 114 196 89 243 89 c 0
 315 89 354 134 354 216 c 2
495 319 m 1
 711 319 l 1
 704 400 667 442 602 442 c 0
 538 442 501 400 495 319 c 1
EndSplineSet
KernsSLIFO: 86 -21 0 0 87 -7 0 0 89 -19 0 0
EndChar
StartChar: ccedilla
Encoding: 231 231 164
Width: 556
Flags: W
HStem: -220 50<234.5 304.5> -23 113<243 355> 436 113<208.5 356.5>
VStem: 34 140<177.5 351> 306 86<-157 -105>
Fore
174 260 m 0
 174 187 197 90 289 90 c 0
 342 90 371 118 388 187 c 1
 522 187 l 1
 511 63 417 -23 293 -23 c 0
 292 -23 292 -23 291 -23 c 1
 274 -63 l 1
 287 -58 300 -56 315 -56 c 0
 363 -56 392 -83 392 -127 c 0
 392 -187 346 -220 263 -220 c 0
 219 -220 185 -213 125 -192 c 1
 144 -140 l 1
 195 -163 221 -170 248 -170 c 0
 280 -170 306 -152 306 -129 c 0
 306 -108 286 -94 255 -94 c 0
 235 -94 224 -97 205 -106 c 1
 248 -21 l 1
 110 -3 34 96 34 259 c 0
 34 443 128 549 289 549 c 0
 424 549 512 470 522 338 c 1
 388 338 l 1
 372 409 345 436 288 436 c 0
 191 436 174 334 174 260 c 0
EndSplineSet
EndChar
StartChar: eth
Encoding: 240 240 173
Width: 611
Flags: W
HStem: -23 113<218.5 386> 429 105<203 340.5>
VStem: 35 141<175 345.5> 428 141<177 352>
Fore
192 741 m 1
 256 717 269 701 294 692 c 1
 381 744 l 1
 432 710 l 1
 348 660 l 1
 499 558 569 435 569 269 c 0
 569 85 470 -23 302 -23 c 0
 135 -23 35 85 35 265 c 0
 35 426 132 534 274 534 c 0
 300 534 320 530 359 515 c 1
 332 558 302 589 264 611 c 1
 187 565 l 1
 145 602 l 1
 215 646 l 1
 188 662 174 670 125 694 c 1
 192 741 l 1
302 429 m 0
 226 429 176 362 176 260 c 0
 176 157 226 90 302 90 c 0
 378 90 428 157 428 257 c 0
 428 362 379 429 302 429 c 0
EndSplineSet
EndChar
StartChar: divide
Encoding: 247 247 180
Width: 584
Flags: W
HStem: -11 21G<230 354>
Fore
534 291 m 1
 534 172 l 1
 50 172 l 1
 50 291 l 1
 534 291 l 1
230 474 m 1
 354 474 l 1
 354 351 l 1
 230 351 l 1
 230 474 l 1
230 112 m 1
 354 112 l 1
 354 -11 l 1
 230 -11 l 1
 230 112 l 1
EndSplineSet
EndChar
StartChar: oslash
Encoding: 248 248 181
Width: 611
Flags: W
HStem: -23 113<270.5 388.5> 437 112<221.5 341.5>
VStem: 36 140<225.5 352> 433 140<174.5 299>
Fore
126 35 m 1
 54 -38 l 1
 11 2 l 1
 86 79 l 1
 52 128 36 188 36 263 c 0
 36 441 138 549 305 549 c 0
 378 549 436 529 487 487 c 1
 555 557 l 1
 598 516 l 1
 526 443 l 1
 558 393 573 335 573 263 c 0
 573 86 471 -23 306 -23 c 0
 235 -23 166 -1 126 35 c 1
421 336 m 1
 220 132 l 1
 244 104 273 90 306 90 c 0
 380 90 433 161 433 260 c 0
 433 287 429 312 421 336 c 1
190 184 m 1
 392 390 l 1
 364 424 338 437 303 437 c 0
 228 437 176 366 176 266 c 0
 176 236 181 207 190 184 c 1
EndSplineSet
EndChar
StartChar: thorn
Encoding: 254 254 187
Width: 611
Flags: W
HStem: -23 117<281 413> 432 117<281 413> 709 20G<58 198>
VStem: 434 140<180.5 344.5>
Fore
198 729 m 1
 198 460 l 1
 232 520 280 549 348 549 c 0
 478 549 574 427 574 262 c 0
 574 99 478 -23 348 -23 c 0
 280 -23 232 5 198 64 c 1
 198 -218 l 1
 58 -218 l 1
 58 729 l 1
 198 729 l 1
316 432 m 0
 246 432 198 363 198 262 c 0
 198 162 246 94 316 94 c 0
 385 94 434 162 434 260 c 0
 434 363 387 432 316 432 c 0
EndSplineSet
EndChar
StartChar: Aogonek
Encoding: 260 260 193
Width: 722
Flags: W
HStem: -233 51<601 675.5> -20 20G<549 624> 0 21G<26 179> 709 20G<285 452>
VStem: 500 90<-168 -104.5>
Fore
501 147 m 1
 228 147 l 1
 179 0 l 1
 26 0 l 1
 285 729 l 1
 452 729 l 1
 703 0 l 1
 634 -30 590 -80 590 -129 c 0
 590 -165 614 -182 666 -182 c 0
 685 -182 705 -180 723 -177 c 1
 723 -224 l 1
 695 -231 675 -233 648 -233 c 0
 554 -233 500 -198 500 -138 c 0
 500 -79 546 -28 624 0 c 1
 549 0 l 1
 501 147 l 1
461 272 m 1
 366 557 l 1
 270 272 l 1
 461 272 l 1
EndSplineSet
EndChar
StartChar: aogonek
Encoding: 261 261 194
Width: 556
Flags: W
HStem: -233 51<426.5 500.5> -23 113<143 279.5> 436 113<198 344>
VStem: 28 140<90.5 187.5> 325 90<-168.5 -105.5> 355 137<83 438>
Fore
192 -23 m 0xf8
 94 -23 28 42 28 139 c 0
 28 236 80 291 187 309 c 2
 243 319 l 2
 289 326 355 329 355 382 c 0
 355 418 328 436 274 436 c 0
 205 436 182 418 175 362 c 1
 40 362 l 1
 49 487 125 549 271 549 c 0
 417 549 492 493 492 383 c 2
 492 83 l 2xf4
 492 55 499 40 524 17 c 1
 524 0 l 1
 453 -38 415 -82 415 -129 c 0
 415 -165 439 -182 491 -182 c 0
 510 -182 529 -180 548 -177 c 1
 548 -224 l 1
 520 -231 500 -233 473 -233 c 0
 380 -233 325 -198 325 -139 c 0
 325 -80 372 -27 449 0 c 1
 372 0 l 1
 359 16 356 26 356 54 c 1
 307 3 252 -23 192 -23 c 0xf8
355 217 m 2
 355 255 l 1
 339 247 333 245 296 238 c 2
 248 229 l 2
 190 217 168 197 168 155 c 0
 168 115 197 90 244 90 c 0
 315 90 355 136 355 217 c 2
EndSplineSet
EndChar
StartChar: dcroat
Encoding: 273 273 206
Width: 611
Flags: W
HStem: -23 117<191.5 322> 432 117<191.5 322.5> 596 67<272 405 545 605> 709 20G<405 545>
VStem: 29 140<181 343.5> 405 140<0 596 663 729>
Fore
405 596 m 5
 272 596 l 5
 272 663 l 5
 405 663 l 5
 405 729 l 1
 545 729 l 1
 545 663 l 5
 605 663 l 5
 605 596 l 5
 545 596 l 5
 545 0 l 1
 405 0 l 1
 405 55 l 1
 370 2 323 -23 256 -23 c 0
 127 -23 29 100 29 262 c 0
 29 425 127 549 256 549 c 0
 324 549 370 524 405 470 c 1
 405 596 l 5
287 432 m 0
 218 432 169 362 169 262 c 0
 169 163 217 94 287 94 c 0
 357 94 405 162 405 260 c 0
 405 363 358 432 287 432 c 0
EndSplineSet
EndChar
StartChar: Eogonek
Encoding: 280 280 213
Width: 667
Flags: W
HStem: -233 51<526.5 601> 0 125<79 624> 314 125<229 578> 709 20G<79 606>
VStem: 425 90<-168 -105.5>
Fore
229 314 m 1
 229 125 l 1
 624 125 l 1
 624 0 l 1
 553 -38 515 -82 515 -129 c 0
 515 -165 539 -182 591 -182 c 0
 611 -182 630 -180 648 -177 c 1
 648 -224 l 1
 621 -230 601 -233 574 -233 c 0
 479 -233 425 -198 425 -138 c 0
 425 -82 464 -39 550 0 c 1
 79 0 l 1
 79 729 l 1
 606 729 l 1
 606 604 l 1
 229 604 l 1
 229 439 l 1
 578 439 l 1
 578 314 l 1
 229 314 l 1
EndSplineSet
EndChar
StartChar: eogonek
Encoding: 281 281 214
Width: 556
Flags: W
HStem: -234 51<354.5 431> -24 107<192 299.5> 226 93<162 524> 442 107<193.5 326.5>
VStem: 255 90<-167 -78.5>
Fore
518 152 m 1
 483 25 345 -26 345 -131 c 0
 345 -166 369 -183 421 -183 c 0
 441 -183 459 -181 478 -177 c 1
 478 -224 l 1
 451 -231 427 -234 399 -234 c 0
 310 -234 255 -197 255 -137 c 0
 255 -92 279 -60 350 -11 c 1
 314 -21 296 -24 268 -24 c 0
 116 -24 21 83 21 256 c 0
 21 437 116 549 271 549 c 0
 382 549 525 489 525 250 c 0
 525 245 525 238 524 226 c 1
 162 226 l 1
 165 147 182 83 274 83 c 0
 325 83 363 108 380 152 c 1
 518 152 l 1
379 319 m 1
 372 400 332 442 270 442 c 0
 207 442 172 401 163 319 c 1
 379 319 l 1
EndSplineSet
EndChar
StartChar: Hbar
Encoding: 294 294 227
Width: 722
Flags: W
HStem: 0 21G<68 218 507 657> 532 67<8 68 218 506 657 717> 709 20G<68 218 506 657>
VStem: 68 150<0 532 599 729> 506 151<456 532 599 729>
Fore
657 599 m 1
 717 599 l 1
 717 532 l 1
 657 532 l 1
 657 0 l 1
 507 0 l 1
 507 331 l 1
 218 331 l 1
 218 0 l 1
 68 0 l 1
 68 532 l 1
 8 532 l 1
 8 599 l 1
 68 599 l 1
 68 729 l 1
 218 729 l 1
 218 599 l 5
 506 599 l 5
 506 729 l 1
 657 729 l 1
 657 599 l 1
506 532 m 5
 218 532 l 5
 218 456 l 1
 506 456 l 1
 506 532 l 5
EndSplineSet
EndChar
StartChar: hbar
Encoding: 295 295 228
Width: 611
Flags: W
HStem: 0 21G<67 207 401 541> 430 119<283.5 403.5> 596 67<8 67 207 341> 709 20G<67 207>
VStem: 67 140<0 596 663 729> 401 140<0 437>
Fore
401 330 m 2
 401 388 380 430 315 430 c 0
 252 430 207 386 207 324 c 2
 207 0 l 1
 67 0 l 1
 67 596 l 5
 8 596 l 5
 8 663 l 5
 67 663 l 5
 67 729 l 1
 207 729 l 1
 207 663 l 5
 341 663 l 5
 341 596 l 5
 207 596 l 5
 207 462 l 1
 246 521 296 549 365 549 c 0
 442 549 541 512 541 362 c 2
 541 0 l 1
 401 0 l 1
 401 330 l 2
EndSplineSet
EndChar
StartChar: Iogonek
Encoding: 302 302 235
Width: 278
Flags: W
HStem: -233 51<126 193.5> -20 20G<63 147> 709 20G<63 213>
VStem: 34 90<-166 -109.5> 63 150<0 729>
Fore
213 729 m 1xe8
 213 0 l 1xe8
 156 -41 124 -88 124 -131 c 0
 124 -161 150 -182 187 -182 c 0
 200 -182 221 -180 237 -177 c 1
 237 -224 l 1
 211 -230 189 -233 167 -233 c 0
 85 -233 34 -196 34 -136 c 0xf0
 34 -84 70 -41 147 0 c 1
 63 0 l 1
 63 729 l 1
 213 729 l 1xe8
EndSplineSet
EndChar
StartChar: iogonek
Encoding: 303 303 236
Width: 278
Flags: W
HStem: -233 51<126.5 192.5> -20 20G<67 144> 520 20G<67 207> 709 20G<67 207>
VStem: 34 90<-166 -105.5>
Fore
124 -128 m 0
 124 -172 161 -182 187 -182 c 0
 198 -182 208 -181 231 -177 c 1
 231 -224 l 1
 200 -231 188 -233 168 -233 c 0
 85 -233 34 -196 34 -136 c 0
 34 -87 69 -44 144 0 c 1
 67 0 l 1
 67 540 l 1
 207 540 l 1
 207 0 l 1
 153 -38 124 -83 124 -128 c 0
207 729 m 1
 207 604 l 1
 67 604 l 1
 67 729 l 1
 207 729 l 1
EndSplineSet
EndChar
StartChar: dotlessi
Encoding: 305 305 238
Width: 278
Flags: W
HStem: 0 21G<67 207> 520 20G<67 207>
Fore
207 540 m 1
 207 0 l 1
 67 0 l 1
 67 540 l 1
 207 540 l 1
EndSplineSet
EndChar
StartChar: jcircumflex
Encoding: 309 309 242
Width: 278
HStem: 520 20G<70 210>
VStem: 70 140<-138 540 -94 540>
Fore
210 540 m 1
 210 -94 l 2
 210 -182 174 -218 87 -218 c 0
 67 -218 32 -216 4 -213 c 1
 4 -101 l 1
 14 -104 20 -105 29 -105 c 0
 59 -105 70 -94 70 -63 c 2
 70 540 l 1
 210 540 l 1
89 783 m 1
 196 783 l 1
 299 633 l 1
 221 633 l 1
 139 733 l 1
 57 633 l 1
 -19 633 l 1
 89 783 l 1
EndSplineSet
EndChar
StartChar: Lslash
Encoding: 321 321 254
Width: 611
Flags: W
HStem: 0 21G<80 597> 709 20G<80 230>
VStem: 80 150<0 334 346 729>
Fore
230 423 m 1
 395 535 l 1
 395 447 l 1
 230 334 l 1
 230 125 l 1
 597 125 l 1
 597 0 l 1
 80 0 l 1
 80 257 l 1
 0 201 l 1
 0 290 l 1
 80 346 l 1
 80 729 l 1
 230 729 l 1
 230 423 l 1
EndSplineSet
EndChar
StartChar: lslash
Encoding: 322 322 255
Width: 278
Flags: W
HStem: 0 21G<56 196> 709 20G<56 196>
Fore
196 442 m 1
 252 482 l 1
 252 403 l 1
 196 363 l 1
 196 0 l 1
 56 0 l 1
 56 294 l 1
 0 254 l 1
 0 333 l 1
 56 373 l 1
 56 729 l 1
 196 729 l 1
 196 442 l 1
EndSplineSet
EndChar
StartChar: napostrophe
Encoding: 329 329 262
Width: 611
Flags: W
HStem: 0 21G<63 203 406 546> 430 119<282 422.5>
VStem: 406 140<0 421.5>
Fore
63 540 m 1
 203 540 l 1
 203 462 l 1
 243 522 292 549 365 549 c 0
 480 549 546 481 546 362 c 2
 546 0 l 1
 406 0 l 1
 406 333 l 2
 406 397 376 430 316 430 c 0
 248 430 203 388 203 324 c 2
 203 0 l 1
 63 0 l 1
 63 540 l 1
EndSplineSet
EndChar
StartChar: Eng
Encoding: 330 330 263
Width: 722
Flags: W
HStem: 0 21G<68 218> 709 20G<68 222 511 661>
VStem: 511 150<-138 729 -94 729>
Fore
661 729 m 1
 661 -94 l 2
 661 -182 624 -218 537 -218 c 0
 517 -218 482 -216 454 -213 c 1
 454 -101 l 1
 464 -104 460 -105 469 -105 c 0
 499 -105 511 -94 511 -63 c 2
 511 0 l 1
 218 504 l 1
 218 0 l 1
 68 0 l 1
 68 729 l 1
 222 729 l 1
 511 233 l 1
 511 729 l 1
 661 729 l 1
EndSplineSet
EndChar
StartChar: eng
Encoding: 331 331 264
Width: 611
Flags: W
HStem: 0 21G<63 203> 430 119<282 422.5>
Fore
63 540 m 1
 203 540 l 1
 203 462 l 1
 243 522 292 549 365 549 c 0
 480 549 546 481 546 362 c 2
 546 -94 l 2
 546 -182 510 -218 423 -218 c 0
 403 -218 368 -216 340 -213 c 1
 340 -101 l 1
 350 -104 356 -105 365 -105 c 0
 395 -105 406 -94 406 -63 c 2
 406 333 l 2
 406 397 376 430 316 430 c 0
 248 430 203 388 203 324 c 2
 203 0 l 1
 63 0 l 1
 63 540 l 1
EndSplineSet
EndChar
StartChar: OE
Encoding: 338 338 271
Width: 1000
Flags: W
HStem: -23 128<238.5 382> 314 125<624 923> 613 128<240 383>
VStem: 28 150<247.5 471.5> 474 150<178 540>
Fore
624 314 m 1
 624 125 l 1
 970 125 l 1
 970 0 l 1
 480 0 l 1
 480 59 l 1
 431 -3 393 -23 325 -23 c 0
 152 -23 28 136 28 359 c 0
 28 584 151 741 329 741 c 0
 393 741 432 724 480 677 c 1
 480 729 l 1
 951 729 l 1
 951 604 l 1
 624 604 l 1
 624 439 l 1
 923 439 l 1
 923 314 l 1
 624 314 l 1
474 178 m 1
 474 540 l 1
 445 591 410 613 356 613 c 0
 249 613 178 512 178 359 c 0
 178 207 249 105 355 105 c 0
 409 105 445 127 474 178 c 1
EndSplineSet
EndChar
StartChar: oe
Encoding: 339 339 272
Width: 944
Flags: W
HStem: -23 113<207 330> 226 93<557 919> 436 113<207 330>
VStem: 23 140<174 352>
Fore
557 226 m 1
 560 103 623 84 671 84 c 0
 720 84 763 112 776 152 c 1
 914 152 l 1
 882 46 785 -23 664 -23 c 0
 592 -23 528 3 485 52 c 1
 434 2 370 -23 290 -23 c 0
 124 -23 23 85 23 263 c 0
 23 441 124 549 290 549 c 0
 370 549 436 524 485 473 c 1
 528 523 590 549 665 549 c 0
 777 549 920 489 920 250 c 0
 920 243 920 238 919 226 c 1
 557 226 l 1
290 436 m 0
 214 436 163 366 163 263 c 0
 163 160 214 90 290 90 c 0
 365 90 417 160 417 261 c 0
 417 367 367 436 290 436 c 0
774 319 m 1
 766 398 729 442 666 442 c 0
 602 442 566 397 559 319 c 1
 774 319 l 1
EndSplineSet
EndChar
StartChar: Scedilla
Encoding: 350 350 283
Width: 667
Flags: W
HStem: -220 50<284 353.5> -23 120<291 387.5> 621 120<233.5 377.5>
VStem: 45 143<460.5 588> 355 86<-157 -105> 489 144<139.5 271>
Fore
340 -23 m 1
 323 -62 l 1
 338 -58 349 -56 364 -56 c 0
 412 -56 441 -83 441 -127 c 0
 441 -187 395 -220 312 -220 c 0
 268 -220 235 -213 174 -192 c 1
 193 -140 l 1
 243 -162 270 -170 298 -170 c 0
 330 -170 355 -152 355 -129 c 0
 355 -108 335 -94 304 -94 c 0
 284 -94 274 -97 255 -106 c 1
 297 -23 l 1
 126 -5 42 72 32 218 c 1
 178 218 l 1
 183 140 240 97 342 97 c 0
 433 97 489 134 489 195 c 0
 489 254 452 282 352 301 c 2
 250 321 l 2
 102 349 45 404 45 517 c 0
 45 659 146 741 321 741 c 0
 434 741 607 706 607 507 c 1
 467 507 l 1
 462 581 409 621 314 621 c 0
 237 621 188 586 188 531 c 0
 188 478 219 457 326 436 c 2
 440 414 l 2
 575 388 633 328 633 214 c 0
 633 65 535 -14 340 -23 c 1
EndSplineSet
EndChar
StartChar: scedilla
Encoding: 351 351 284
Width: 556
Flags: W
HStem: -220 50<225 295> -23 110<232 365.5> 439 110<201.5 342.5>
VStem: 48 140<316 424.5> 296 86<-157 -105> 380 140<106 195>
Fore
166 157 m 1xf8
 174 120 188 87 276 87 c 0
 341 87 380 107 380 140 c 0
 380 162 368 173 333 184 c 2
 166 236 l 2
 135 246 48 263 48 369 c 0
 48 480 133 549 270 549 c 0
 415 549 503 480 505 366 c 1
 370 366 l 1
 369 415 336 439 269 439 c 0
 220 439 188 419 188 389 c 0
 188 367 198 359 237 347 c 2
 414 296 l 2
 485 275 520 230 520 160 c 0xf4
 520 52 430 -23 301 -23 c 2
 283 -23 l 1
 264 -63 l 1
 279 -58 291 -56 306 -56 c 0
 353 -56 382 -83 382 -127 c 0
 382 -187 336 -220 254 -220 c 0
 209 -220 180 -214 115 -192 c 1
 134 -140 l 1
 187 -163 211 -170 239 -170 c 0
 271 -170 296 -152 296 -129 c 0
 296 -108 276 -94 245 -94 c 0
 225 -94 215 -97 196 -106 c 1
 239 -22 l 1
 96 -5 34 48 29 157 c 1
 166 157 l 1xf8
EndSplineSet
EndChar
StartChar: Tbar
Encoding: 358 358 291
Width: 611
Flags: W
HStem: 0 21G<235 385> 709 20G<14 598>
VStem: 235 150<0 604>
Fore
385 604 m 1
 385 0 l 1
 235 0 l 1
 235 604 l 1
 14 604 l 1
 14 729 l 1
 598 729 l 1
 598 604 l 1
 385 604 l 1
EndSplineSet
EndChar
StartChar: tbar
Encoding: 359 359 292
Width: 333
Flags: W
HStem: -23 21G<174 235.5> 436 93<14 83 223 301>
Fore
301 529 m 1
 301 436 l 1
 223 436 l 1
 223 142 l 2
 223 94 232 83 269 83 c 0
 279 83 287 84 301 86 c 1
 301 -12 l 1
 276 -20 251 -23 220 -23 c 0
 128 -23 83 19 83 104 c 2
 83 436 l 1
 14 436 l 1
 14 529 l 1
 83 529 l 1
 83 674 l 1
 223 674 l 1
 223 529 l 1
 301 529 l 1
EndSplineSet
EndChar
StartChar: Uogonek
Encoding: 370 370 303
Width: 722
Flags: W
HStem: -234 51<487.5 549.5> -23 128<304 412> 709 20G<76 226 504 654>
VStem: 76 150<132 729> 373 89<-176.5 -70.5> 504 150<127.5 729>
Fore
654 235 m 2
 654 20 462 -9 462 -132 c 0
 462 -166 487 -183 539 -183 c 0
 560 -183 578 -181 597 -177 c 1
 597 -224 l 1
 570 -231 546 -234 517 -234 c 0
 458 -234 373 -215 373 -138 c 0
 373 -90 400 -55 477 -7 c 1
 429 -20 407 -23 368 -23 c 0
 240 -23 76 29 76 235 c 2
 76 729 l 1
 226 729 l 1
 226 235 l 2
 226 147 271 105 365 105 c 0
 459 105 504 147 504 235 c 2
 504 729 l 1
 654 729 l 5
 654 235 l 2
EndSplineSet
EndChar
StartChar: uogonek
Encoding: 371 371 304
Width: 611
Flags: W
HStem: -233 51<442 516> -23 119<181.5 322> 520 20G<58 198 401 541>
VStem: 58 140<104.5 540> 340 90<-168 -96.5> 401 140<0 540>
Fore
340 -138 m 0xf8
 340 -55 428 -14 465 0 c 1
 401 0 l 1
 401 64 l 1
 361 4 312 -23 239 -23 c 0
 124 -23 58 45 58 164 c 2
 58 540 l 1
 198 540 l 1
 198 193 l 2
 198 128 228 96 288 96 c 0
 356 96 401 138 401 202 c 2
 401 540 l 1
 541 540 l 1
 541 0 l 1xf4
 468 -37 430 -82 430 -129 c 0
 430 -165 454 -182 506 -182 c 0
 526 -182 545 -180 564 -177 c 1
 564 -224 l 1
 536 -231 516 -233 489 -233 c 0
 395 -233 340 -198 340 -138 c 0xf8
EndSplineSet
EndChar
StartChar: longs
Encoding: 383 383 316
Width: 333
Flags: W
HStem: 0 21G<90 230> 436 93<14 90> 709 20G<181.5 237.5>
Fore
230 0 m 1
 90 0 l 1
 90 436 l 1
 14 436 l 1
 14 529 l 1
 90 529 l 1
 90 594 l 2
 90 685 135 729 228 729 c 0
 247 729 282 728 308 726 c 1
 308 621 l 1
 296 623 280 624 268 624 c 0
 242 624 230 610 230 582 c 2
 230 0 l 1
EndSplineSet
EndChar
StartChar: florin
Encoding: 402 402 317
Width: 333
Flags: W
HStem: 436 93<14 90 230 313> 709 20G<181.5 237.5>
Fore
313 529 m 1
 313 436 l 1
 230 436 l 1
 230 -94 l 2
 230 -182 194 -218 107 -218 c 0
 87 -218 52 -216 24 -213 c 1
 24 -101 l 1
 34 -104 40 -105 49 -105 c 0
 79 -105 90 -94 90 -63 c 2
 90 436 l 1
 14 436 l 1
 14 529 l 1
 90 529 l 1
 90 594 l 2
 90 685 135 729 228 729 c 0
 247 729 282 728 308 726 c 1
 308 621 l 1
 296 623 280 624 268 624 c 0
 242 624 230 610 230 582 c 2
 230 529 l 1
 313 529 l 1
EndSplineSet
EndChar
StartChar: iota
Encoding: 953 953 378
Width: 346
Flags: W
HStem: -17 133<146.5 195.5> 524 20G<31 169>
VStem: 31 138<79.5 544>
Fore
169 142 m 1
 170 141 171 116 189 116 c 2
 194 116 l 2
 203 117 223 125 254 141 c 1
 302 14 l 1
 252 -6 211 -17 180 -17 c 0
 113 -17 31 15 31 144 c 2
 31 544 l 1
 169 544 l 1
 169 464 169 223 169 142 c 1
EndSplineSet
EndChar
StartChar: kappa
Encoding: 954 954 379
Width: 576
Flags: W
HStem: -8 21G<43 180 372 540> 523 20G<43 180 350 534>
Fore
540 -8 m 1
 372 -8 l 1
 211 236 l 1
 180 206 l 1
 180 -8 l 1
 43 -8 l 1
 43 543 l 1
 180 543 l 1
 180 374 l 1
 350 543 l 1
 534 543 l 1
 309 329 l 1
 540 -8 l 1
EndSplineSet
EndChar
StartChar: lambda
Encoding: 955 955 380
Width: 620
Flags: W
HStem: -2 21G<17 161> 610 129<122.5 211>
Fore
283 334 m 1
 161 -2 l 1
 17 -2 l 1
 216 515 l 1
 212 527 l 2
 189 603 168 610 138 610 c 0
 107 610 105 603 59 599 c 1
 74 721 l 1
 107 733 131 739 150 739 c 0
 272 739 304 630 341 532 c 2
 487 143 l 2
 497 116 500 113 505 113 c 0
 518 113 548 131 553 134 c 1
 586 22 l 1
 540 -2 505 -13 479 -13 c 0
 415 -13 397 27 379 76 c 2
 379 76 287 323 283 334 c 1
EndSplineSet
EndChar
StartChar: uni03BC
Encoding: 956 956 381
Width: 667
Flags: W
HStem: -9 112<265 321> 523 20G<52 190 398 534>
VStem: 398 136<133 543>
Fore
298 103 m 0
 338 103 398 120 398 218 c 2
 398 543 l 1
 534 543 l 1
 534 164 l 2
 534 102 556 109 559 104 c 2
 595 36 l 1
 542 1 528 -0 513 -0 c 0
 510 0 l 0
 470 0 437 17 422 46 c 1
 395 15 347 -9 295 -9 c 0
 253 -9 225 -1 190 22 c 1
 190 -202 l 1
 52 -202 l 1
 52 543 l 1
 190 543 l 1
 190 218 l 2
 190 154 232 103 298 103 c 0
EndSplineSet
EndChar
StartChar: nu
Encoding: 957 957 382
Width: 564
Flags: W
HStem: 523 20G<-22 124 380 524>
Fore
524 543 m 1
 309 -25 l 1
 193 -25 l 1
 -22 543 l 1
 124 543 l 1
 251 188 l 25
 380 543 l 1
 524 543 l 1
EndSplineSet
EndChar
StartChar: xi
Encoding: 958 958 383
Width: 530
Flags: W
HStem: -14 116<252 334.5> 316 111<258.5 439> 711 20G<39 465>
VStem: 17 135<151.5 234>
Fore
190 511 m 0
 190 475 211 427 331 427 c 2
 439 427 l 1
 439 316 l 1
 303 316 l 2
 214 316 152 266 152 202 c 0
 152 143 214 102 290 102 c 0
 379 102 441 100 471 56 c 0
 488 34 496 6 496 -27 c 0
 496 -70 479 -130 446 -209 c 1
 326 -165 l 1
 338 -133 367 -57 367 -34 c 0
 367 -17 363 -14 298 -14 c 2
 278 -14 l 2
 56 -14 17 109 17 194 c 0
 23 269 36 322 136 377 c 1
 111 390 63 431 63 511 c 0
 63 554 76 584 100 615 c 1
 39 615 l 1
 39 731 l 1
 465 731 l 1
 465 615 l 1
 272 615 l 2
 223 615 190 552 190 511 c 0
EndSplineSet
EndChar
StartChar: pi
Encoding: 960 960 385
Width: 721
Flags: W
HStem: -13 21G<101 243> 525 20G<31 627>
VStem: 101 142<-13 427>
Fore
566 95 m 1
 570 95 608 124 613 127 c 1
 644 10 l 1
 618 -0 575 -18 541 -18 c 0
 453 -18 427 30 427 122 c 2
 427 427 l 1
 243 427 l 1
 243 -13 l 1
 101 -13 l 1
 101 427 l 1
 32 427 l 1
 31 545 l 1
 627 545 l 1
 627 427 l 1
 564 427 l 1
 564 124 l 2
 564 108 564 98 566 95 c 1
EndSplineSet
EndChar
StartChar: rho
Encoding: 961 961 386
Width: 626
Flags: W
HStem: -8 120<268.5 351> 437 118<241 351>
VStem: 426 140<163 388>
Fore
566 277 m 0
 566 49 405 -8 297 -8 c 0
 244 -8 206 5 170 28 c 1
 170 -203 l 1
 32 -203 l 1
 32 277 l 2
 32 499 185 555 297 555 c 0
 405 555 566 499 566 277 c 0
170 270 m 0
 170 144 240 112 297 112 c 0
 350 112 426 144 426 272 c 0
 426 404 351 437 297 437 c 0
 246 437 170 412 170 270 c 0
EndSplineSet
EndChar
StartChar: sigma1
Encoding: 962 962 387
Width: 595
Flags: W
HStem: 429 125<196 330.5>
VStem: 5 142<142.5 359>
Fore
147 273 m 0
 147 12 517 218 517 -23 c 0
 517 -61 503 -98 461 -205 c 1
 325 -157 l 1
 344 -117 360 -73 375 -28 c 0
 375 -25 369 -24 357 -24 c 0
 221 -9 202 -19 115 46 c 0
 49 93 5 178 5 275 c 0
 5 443 114 554 278 554 c 0
 383 554 518 503 518 298 c 1
 382 298 l 1
 382 379 359 429 270 429 c 0
 218 429 147 398 147 273 c 0
EndSplineSet
EndChar
StartChar: sigma
Encoding: 963 963 388
Width: 676
Flags: W
HStem: -12 118<168 362.5> 435 116<218.5 305>
VStem: 6 141<213.5 382> 404 141<189.5 335.5>
Fore
276 -12 m 0
 60 -12 6 157 6 270 c 0
 6 494 161 551 276 551 c 0
 295 551 312 547 328 547 c 0
 618 547 l 1
 618 421 l 1
 503 421 l 1
 532 376 545 325 545 270 c 0
 545 109 449 -12 276 -12 c 0
276 435 m 0
 173 435 147 334 147 270 c 0
 147 178 185 106 276 106 c 0
 326 106 404 131 404 270 c 0
 404 401 334 435 276 435 c 0
EndSplineSet
EndChar
StartChar: tau
Encoding: 964 964 389
Width: 592
Flags: W
HStem: -12 130<264 348> 522 20G<9 526>
Fore
330 -12 m 0
 198 -12 178 58 178 156 c 2
 178 428 l 1
 9 428 l 1
 9 542 l 1
 526 542 l 1
 526 428 l 1
 320 428 l 1
 320 163 l 2
 320 119 323 118 346 118 c 0
 349 118 352 118 354 119 c 0
 360 119 374 122 400 128 c 1
 431 3 l 1
 410 -1 366 -12 330 -12 c 0
EndSplineSet
EndChar
StartChar: upsilon
Encoding: 965 965 390
Width: 575
Flags: W
HStem: -16 121<156.5 305.5> 523 20G<15 153 365 503>
VStem: 365 138<165 543>
Fore
260 105 m 0
 351 105 365 135 365 244 c 2
 365 543 l 1
 503 543 l 1
 503 212 l 2
 503 118 484 82 466 55 c 0
 413 -3 336 -16 262 -16 c 0
 51 -16 15 78 15 212 c 2
 15 543 l 1
 153 543 l 1
 153 244 l 2
 153 238 l 0
 153 137 168 105 260 105 c 0
EndSplineSet
EndChar
StartChar: phi
Encoding: 966 966 391
Width: 801
Flags: W
HStem: -34 20G<307 310> -14 21G<446 454> 525 20G<312 421>
VStem: 17 135<183 340> 307 139<-196 -14> 590 135<182.5 339>
Fore
445 112 m 1
 532 112 590 173 590 260 c 0
 590 343 534 411 445 411 c 1
 445 112 l 1
310 -14 m 1
 132 -14 17 106 17 260 c 0
 17 420 132 500 178 527 c 1
 259 427 l 1
 198 386 152 333 152 264 c 0
 152 184 217 112 312 112 c 1
 312 545 l 1
 421 545 l 2
 607 545 725 419 725 259 c 0
 725 106 617 -14 454 -14 c 2
 446 -14 l 1
 446 -196 l 1
 307 -196 l 1
 307 -14 l 1
 310 -14 l 1
EndSplineSet
EndChar
StartChar: chi
Encoding: 967 967 392
Width: 632
Flags: W
HStem: 522 20G<436 584>
Fore
589 -180 m 1
 561 -193 536 -199 515 -199 c 2
 508 -199 l 2
 451 -199 405 -157 375 -102 c 2
 299 48 l 1
 137 -188 l 1
 -22 -188 l 1
 221 179 l 1
 84 413 l 2
 70 434 70 437 52 437 c 0
 41 434 24 433 1 433 c 1
 1 552 l 1
 33 557 50 559 53 559 c 0
 69 560 79 561 80 561 c 0
 153 561 183 513 195 492 c 2
 302 298 l 1
 436 542 l 1
 584 542 l 1
 381 178 l 1
 503 -49 l 2
 517 -71 520 -71 532 -71 c 0
 535 -71 540 -70 544 -69 c 0
 548 -69 563 -65 589 -54 c 1
 589 -180 l 1
EndSplineSet
EndChar
StartChar: psi
Encoding: 968 968 393
Width: 722
Flags: W
HStem: 520 20G<17 157 505 645>
VStem: 17 140<147 540> 263 136<-205 -12 108 523> 505 140<147.5 540>
CounterMasks: 1 00
Fore
399 108 m 1
 461 114 505 136 505 248 c 2
 505 540 l 1
 645 540 l 1
 645 221 l 2
 645 74 548 -6 399 -12 c 1
 399 -205 l 1
 263 -205 l 1
 263 -12 l 1
 113 -6 17 73 17 221 c 2
 17 540 l 1
 157 540 l 1
 157 248 l 2
 157 146 189 115 263 108 c 1
 263 523 l 1
 399 523 l 1
 399 108 l 1
EndSplineSet
EndChar
StartChar: omega
Encoding: 969 969 394
Width: 800
Flags: W
HStem: -15 116<159.5 258 481.5 581>
VStem: 11 134<168.5 303.5> 303 134<150.5 399> 595 134<169.5 302>
CounterMasks: 1 00
Fore
511 101 m 0
 582 101 595 188 595 241 c 0
 595 363 543 427 468 504 c 1
 597 545 l 1
 699 463 729 312 729 247 c 0
 729 92 648 -15 514 -15 c 0
 449 -15 401 11 370 50 c 5
 339 11 290 -15 226 -15 c 4
 93 -15 11 90 11 247 c 0
 11 304 42 471 144 544 c 1
 273 505 l 1
 204 434 145 366 145 241 c 0
 145 180 161 101 228 101 c 0
 291 104 303 138 303 163 c 2
 303 399 l 1
 437 399 l 1
 437 163 l 2
 437 140 449 104 511 101 c 0
EndSplineSet
EndChar
StartChar: afii10051
Encoding: 1026 1026 402
Width: 790
Flags: W
HStem: -163 93<468 538> 0 21G<202 353> 709 20G<14 536>
Fore
540 504 m 2
 722 504 758 361 758 324 c 2
 758 0 l 2
 736 -166 656 -152 538 -163 c 6
 468 -164 l 5
 468 -70 l 5
 528 -70 l 5
 576 -69 608 -51 608 0 c 0
 608 317 l 2
 608 349 590 369 553 376 c 1
 528 379 l 1
 353 379 l 1
 353 0 l 1
 202 0 l 1
 202 605 l 1
 14 605 l 1
 14 729 l 1
 536 729 l 1
 536 605 l 1
 352 605 l 1
 352 504 l 1
 540 504 l 2
EndSplineSet
EndChar
StartChar: afii10053
Encoding: 1028 1028 404
Width: 722
Flags: W
HStem: -23 126<272.5 464.5> 613 128<275 463>
VStem: 44 444<241 476>
Fore
539 482 m 1
 531 519 508 613 383 613 c 0
 286 613 217 548 197 436 c 1
 488 436 l 1
 488 311 l 1
 196 311 l 1
 208 179 273 103 378 103 c 0
 471 103 530 156 539 249 c 1
 685 249 l 1
 676 82 555 -23 374 -23 c 0
 171 -23 44 124 44 358 c 0
 44 594 172 741 378 741 c 0
 548 741 669 646 682 482 c 1
 539 482 l 1
EndSplineSet
EndChar
StartChar: afii10058
Encoding: 1033 1033 409
Width: 1110
Flags: W
HStem: 0 125<507 855> 309 126<814 932> 709 20G<135 657>
VStem: 135 150<414 729> 914 150<167.5 242>
Fore
844 435 m 2
 1020 435 1064 291 1064 193 c 2
 1064 192 l 2
 1064 80 1018 43 927 14 c 0
 898 5 866 0 829 0 c 2
 507 0 l 1
 507 604 l 1
 285 604 l 1
 285 414 l 2
 285 109 189 0 46 0 c 1
 46 145 l 1
 47 145 l 0
 100 145 135 208 135 460 c 2
 135 729 l 1
 657 729 l 1
 657 435 l 1
 844 435 l 2
817 125 m 0
 893 125 914 135 914 200 c 2
 914 201 l 2
 914 268 881 304 815 309 c 2
 814 309 l 1
 813 310 l 1
 657 310 l 1
 657 125 l 1
 797 125 l 2
 804 125 811 125 817 125 c 0
EndSplineSet
EndChar
StartChar: afii10059
Encoding: 1034 1034 410
Width: 1113
Flags: W
HStem: 0 21G<68 218 507 829> 709 20G<68 218 506 657>
VStem: 914 150<153 300>
Fore
657 729 m 1
 657 469 l 1
 844 469 l 2
 978 469 1064 374 1064 226 c 0
 1064 80 981 0 829 0 c 2
 507 0 l 1
 507 311 l 1
 218 311 l 1
 218 0 l 1
 68 0 l 1
 68 729 l 1
 218 729 l 1
 218 436 l 1
 506 436 l 1
 506 729 l 1
 657 729 l 1
657 344 m 1
 657 125 l 1
 797 125 l 2
 877 125 914 160 914 235 c 0
 914 309 877 344 797 344 c 2
 657 344 l 1
EndSplineSet
EndChar
StartChar: afii10060
Encoding: 1035 1035 411
Width: 790
Flags: W
HStem: 0 21G<202 353 608 758> 709 20G<14 536>
VStem: 608 150<0 342.5>
Fore
540 504 m 2
 722 504 758 361 758 324 c 2
 758 0 l 1
 608 0 l 1
 608 317 l 2
 608 349 590 369 553 376 c 1
 528 379 l 1
 353 379 l 1
 353 0 l 1
 202 0 l 1
 202 605 l 1
 14 605 l 1
 14 729 l 1
 536 729 l 1
 536 605 l 1
 352 605 l 1
 352 504 l 1
 540 504 l 2
EndSplineSet
EndChar
StartChar: afii10145
Encoding: 1039 1039 415
Width: 722
Flags: W
HStem: 0 125<218 508> 709 20G<68 218 508 658>
VStem: 298 130<-150 0>
Fore
428 0 m 1
 428 -150 l 1
 298 -150 l 1
 298 0 l 1
 68 0 l 1
 68 729 l 1
 218 729 l 1
 218 125 l 1
 508 125 l 1
 508 729 l 1
 658 729 l 1
 658 0 l 1
 428 0 l 1
EndSplineSet
EndChar
StartChar: afii10018
Encoding: 1041 1041 417
Width: 722
Flags: W
HStem: 0 21G<82 410> 709 20G<82 594>
VStem: 522 144<173.5 262>
Fore
666 222 m 0
 666 125 615 0 410 0 c 2
 82 0 l 1
 82 729 l 1
 594 729 l 1
 594 604 l 1
 232 604 l 1
 232 463 l 1
 395 463 l 2
 618 463 666 294 666 222 c 0
232 338 m 1
 232 125 l 1
 411 125 l 2
 484 125 522 170 522 231 c 0
 522 293 484 338 411 338 c 2
 232 338 l 1
EndSplineSet
EndChar
StartChar: afii10020
Encoding: 1043 1043 419
Width: 611
Flags: W
HStem: 0 21G<82 232> 709 20G<82 594>
VStem: 82 150<0 729>
Fore
232 0 m 1
 82 0 l 1
 82 729 l 1
 594 729 l 1
 594 604 l 1
 232 604 l 1
 232 0 l 1
EndSplineSet
EndChar
StartChar: afii10021
Encoding: 1044 1044 420
Width: 900
Flags: W
HStem: -20 20G<165 735> 709 20G<230 750>
Fore
139 108 m 2
 192 108 230 255 230 461 c 2
 230 729 l 1
 750 729 l 1
 750 108 l 1
 865 108 l 1
 865 -150 l 1
 735 -150 l 1
 735 0 l 1
 165 0 l 1
 165 -150 l 1
 35 -150 l 1
 35 108 l 1
 139 108 l 2
333 125 m 1
 600 125 l 1
 600 604 l 1
 380 604 l 1
 380 414 l 2
 380 319 373 209 333 125 c 1
EndSplineSet
EndChar
StartChar: afii10024
Encoding: 1046 1046 422
Width: 1093
Flags: W
HStem: 0 21G<22 206 475 625 894 1078> 709 20G<66 230 475 625 870 1034>
VStem: 475 150<0 285 450 729>
Fore
475 285 m 1
 206 0 l 1
 22 0 l 1
 379 378 l 1
 66 729 l 1
 230 729 l 1
 475 450 l 1
 475 729 l 1
 625 729 l 1
 625 450 l 1
 870 729 l 1
 1034 729 l 1
 721 378 l 1
 1078 0 l 1
 894 0 l 1
 625 285 l 1
 625 0 l 1
 475 0 l 1
 475 285 l 1
EndSplineSet
EndChar
StartChar: afii10025
Encoding: 1047 1047 423
Width: 672
Flags: W
HStem: -23 120<241 428> 308 120<250 403> 621 120<274 418.5>
VStem: 464 143<485 588> 489 144<139 253>
Fore
45 507 m 5xf0
 45 706 217 741 331 741 c 4
 506 741 607 659 607 517 c 4xf0
 607 453 587 409 544 377 c 5
 606 343 633 293 633 213 c 4
 633 65 522 -23 334 -23 c 4
 148 -23 41 62 32 218 c 5
 178 218 l 5
 183 140 240 97 342 97 c 4
 433 97 489 134 489 195 c 4xe8
 489 254 454 308 352 308 c 6
 250 308 l 5
 250 428 l 5
 326 428 l 6
 435 428 464 478 464 531 c 4
 464 586 415 621 338 621 c 4
 243 621 190 581 185 507 c 5
 45 507 l 5xf0
EndSplineSet
EndChar
StartChar: afii10026
Encoding: 1048 1048 424
Width: 757
Flags: W
HStem: 0 21G<82 232 525 675> 709 20G<82 232 521 675>
Fore
232 0 m 1
 82 0 l 1
 82 729 l 1
 232 729 l 1
 232 233 l 1
 521 729 l 1
 675 729 l 1
 675 0 l 1
 525 0 l 1
 525 504 l 1
 232 0 l 1
EndSplineSet
EndChar
StartChar: afii10027
Encoding: 1049 1049 425
Width: 757
Flags: W
HStem: 0 21G<82 232 525 675> 709 20G<82 232 521 675> 784 77<337.5 412.5>
Fore
507 927 m 1
 507 916 l 2
 507 841 450 784 375 784 c 0
 300 784 243 841 243 917 c 2
 243 927 l 1
 299 927 l 1
 305 883 330 861 376 861 c 0
 420 861 442 881 451 927 c 1
 507 927 l 1
232 0 m 1
 82 0 l 1
 82 729 l 1
 232 729 l 1
 232 233 l 1
 521 729 l 1
 675 729 l 1
 675 0 l 1
 525 0 l 1
 525 504 l 1
 232 0 l 1
EndSplineSet
EndChar
StartChar: afii10028
Encoding: 1050 1050 426
Width: 750
Flags: W
HStem: 0 21G<82 232 525 725> 709 20G<82 232 517 694>
Fore
232 0 m 1
 82 0 l 1
 82 729 l 1
 232 729 l 1
 232 450 l 1
 517 729 l 1
 694 729 l 1
 328 378 l 1
 725 0 l 1
 525 0 l 1
 232 285 l 1
 232 0 l 1
EndSplineSet
EndChar
StartChar: afii10029
Encoding: 1051 1051 427
Width: 729
Flags: W
HStem: -12 145<36 142> 709 20G<125 647>
VStem: 125 150<400 729>
Fore
497 604 m 1
 275 604 l 1
 275 400 l 2
 275 223 248 -12 36 -12 c 1
 36 133 l 1
 37 133 l 0
 107 133 125 229 125 447 c 2
 125 729 l 1
 647 729 l 1
 647 0 l 1
 497 0 l 1
 497 604 l 1
EndSplineSet
EndChar
StartChar: afii10033
Encoding: 1055 1055 431
Width: 753
Flags: W
HStem: 0 21G<82 232 521 671> 709 20G<82 671>
Fore
521 604 m 1
 232 604 l 1
 232 0 l 1
 82 0 l 1
 82 729 l 1
 671 729 l 1
 671 0 l 1
 521 0 l 1
 521 604 l 1
EndSplineSet
EndChar
StartChar: afii10037
Encoding: 1059 1059 435
Width: 718
Flags: W
HStem: 0 21G<154 328> 709 20G<15 178 522 696>
Fore
328 0 m 1
 154 0 l 1
 268 226 l 1
 15 729 l 1
 178 729 l 1
 350 384 l 1
 522 729 l 1
 696 729 l 1
 328 0 l 1
EndSplineSet
EndChar
StartChar: afii10038
Encoding: 1060 1060 436
Width: 892
Flags: W
HStem: 0 21G<371 521> 94 94<337 371 521 603.5> 540 98<290.5 371 521 549> 709 20G<371 521>
VStem: 30 134<242 500.5> 728 134<242 500.5>
Fore
371 0 m 1
 371 94 l 1
 363 94 351 94 337 94 c 0
 240 94 30 110 30 374 c 0
 30 627 238 638 343 638 c 0
 353 638 363 638 371 638 c 1
 371 729 l 1
 521 729 l 1
 521 638 l 1
 529 638 539 638 549 638 c 0
 654 638 862 627 862 374 c 0
 862 110 652 94 555 94 c 0
 541 94 529 94 521 94 c 1
 521 0 l 1
 371 0 l 1
371 188 m 1
 371 540 l 1
 366 540 361 540 355 540 c 0
 290 540 164 533 164 370 c 0
 164 201 268 188 338 188 c 0
 350 188 362 188 371 188 c 1
521 188 m 1
 530 188 542 188 554 188 c 0
 624 188 728 201 728 370 c 0
 728 533 602 540 537 540 c 0
 531 540 526 540 521 540 c 1
 521 188 l 1
EndSplineSet
EndChar
StartChar: afii10040
Encoding: 1062 1062 438
Width: 816
Flags: W
HStem: -20 20G<82 651> 709 20G<82 232 521 671>
Fore
521 125 m 1
 521 729 l 1
 671 729 l 1
 671 108 l 1
 781 108 l 1
 781 -150 l 1
 651 -150 l 1
 651 0 l 1
 82 0 l 1
 82 729 l 1
 232 729 l 1
 232 125 l 1
 521 125 l 1
EndSplineSet
EndChar
StartChar: afii10041
Encoding: 1063 1063 439
Width: 685
Flags: W
HStem: 0 21G<474 624> 709 20G<68 218 473 624>
VStem: 68 150<356 729>
Fore
474 225 m 1
 286 225 l 2
 168 225 68 306 68 406 c 2
 68 729 l 1
 218 729 l 1
 218 412 l 2
 218 366 262 350 298 350 c 2
 473 350 l 1
 473 729 l 1
 624 729 l 1
 624 0 l 1
 474 0 l 1
 474 225 l 1
EndSplineSet
EndChar
StartChar: afii10042
Encoding: 1064 1064 440
Width: 1057
Flags: W
HStem: 0 21G<68 967> 709 20G<68 218 437 587 817 967>
VStem: 437 150<125 729>
Fore
967 0 m 1
 68 0 l 1
 68 729 l 1
 218 729 l 1
 218 125 l 1
 437 125 l 1
 437 729 l 1
 587 729 l 1
 587 125 l 1
 817 125 l 1
 817 729 l 1
 967 729 l 1
 967 0 l 1
EndSplineSet
EndChar
StartChar: afii10043
Encoding: 1065 1065 441
Width: 1183
Flags: W
HStem: -20 20G<68 962> 709 20G<68 218 447 597 827 977>
VStem: 447 150<125 729>
Fore
962 0 m 1
 68 0 l 1
 68 729 l 1
 218 729 l 1
 218 125 l 1
 447 125 l 1
 447 729 l 1
 597 729 l 1
 597 125 l 1
 827 125 l 1
 827 729 l 1
 977 729 l 1
 977 108 l 1
 1097 108 l 1
 1097 -150 l 1
 962 -150 l 1
 962 0 l 1
EndSplineSet
EndChar
StartChar: afii10044
Encoding: 1066 1066 442
Width: 928
Flags: W
HStem: 0 21G<244 566> 709 20G<14 394>
VStem: 651 150<153 300>
Fore
394 469 m 1
 581 469 l 2
 715 469 801 374 801 226 c 0
 801 80 718 0 566 0 c 2
 244 0 l 1
 244 604 l 1
 14 605 l 1
 14 729 l 1
 394 729 l 1
 394 469 l 1
394 344 m 1
 394 125 l 1
 534 125 l 2
 614 125 651 160 651 235 c 0
 651 309 614 344 534 344 c 2
 394 344 l 1
EndSplineSet
EndChar
StartChar: afii10045
Encoding: 1067 1067 443
Width: 949
Flags: W
HStem: 0 21G<68 390 734 884> 709 20G<68 218 734 884>
VStem: 475 150<153 300>
Fore
884 729 m 1
 884 0 l 1
 734 0 l 1
 734 729 l 1
 884 729 l 1
218 469 m 1
 405 469 l 2
 539 469 625 374 625 226 c 0
 625 80 542 0 390 0 c 2
 68 0 l 1
 68 729 l 1
 218 729 l 1
 218 469 l 1
218 344 m 1
 218 125 l 1
 358 125 l 2
 438 125 475 160 475 235 c 0
 475 309 438 344 358 344 c 2
 218 344 l 1
EndSplineSet
EndChar
StartChar: afii10046
Encoding: 1068 1068 444
Width: 687
Flags: W
HStem: 0 21G<76 398> 709 20G<76 226>
VStem: 483 150<153 300>
Fore
226 469 m 1
 413 469 l 2
 547 469 633 374 633 226 c 0
 633 80 550 0 398 0 c 2
 76 0 l 1
 76 729 l 1
 226 729 l 1
 226 469 l 1
226 344 m 1
 226 125 l 1
 366 125 l 2
 446 125 483 160 483 235 c 0
 483 309 446 344 366 344 c 2
 226 344 l 1
EndSplineSet
EndChar
StartChar: afii10047
Encoding: 1069 1069 445
Width: 722
Flags: W
HStem: -23 126<264.5 456.5> 613 128<268.5 454>
VStem: 241 444<241 476>
Fore
47 482 m 1
 60 646 186 741 351 741 c 0
 557 741 685 594 685 358 c 0
 685 124 558 -23 355 -23 c 0
 174 -23 53 82 44 249 c 1
 190 249 l 1
 199 156 258 103 351 103 c 0
 456 103 521 179 533 311 c 1
 241 311 l 1
 241 436 l 1
 532 436 l 1
 512 548 443 613 346 613 c 0
 221 613 199 519 190 482 c 1
 47 482 l 1
EndSplineSet
EndChar
StartChar: afii10048
Encoding: 1070 1070 446
Width: 1109
Flags: W
HStem: -23 128<567 805> 311 125<218 367> 613 128<571.5 807>
VStem: 893 150<250.5 463>
Fore
702 -23 m 0
 432 -23 372 226 364 311 c 1
 218 311 l 1
 218 0 l 1
 68 0 l 1
 68 729 l 1
 218 729 l 1
 218 436 l 1
 367 436 l 1
 379 506 442 741 701 741 c 0
 913 741 1043 572 1043 354 c 0
 1043 147 908 -23 702 -23 c 0
702 613 m 0
 581 613 511 512 511 359 c 0
 511 206 581 105 702 105 c 0
 822 105 893 206 893 355 c 0
 893 513 825 613 702 613 c 0
EndSplineSet
EndChar
StartChar: afii10049
Encoding: 1071 1071 447
Width: 698
Flags: W
HStem: 0 21G<22 201 483 633> 709 20G<311 633>
VStem: 76 150<433.5 576>
Fore
422 260 m 1
 201 0 l 1
 22 0 l 1
 242 265 l 1
 154 282 76 364 76 503 c 0
 76 649 159 729 311 729 c 2
 633 729 l 1
 633 0 l 1
 483 0 l 1
 483 260 l 1
 422 260 l 1
483 385 m 1
 483 604 l 1
 343 604 l 2
 263 604 226 569 226 494 c 0
 226 420 263 385 343 385 c 2
 483 385 l 1
EndSplineSet
EndChar
StartChar: afii10066
Encoding: 1073 1073 449
Width: 606
Flags: W
HStem: -23 117<224 390.5> 432 117<272 402>
VStem: 50 139<171 360> 425 140<181.5 347.5>
Fore
338 549 m 0
 466 549 565 432 565 263 c 0
 565 100 476 -23 305 -23 c 0
 143 -23 50 50 50 292 c 0
 50 428 68 603 196 684 c 0
 241 712 322 716 386 724 c 0
 434 730 438 776 438 776 c 1
 542 777 l 1
 542 736 542 690 509 666 c 0
 426 606 334 642 253 592 c 0
 204 562 170 516 169 462 c 1
 204 532 271 549 338 549 c 0
307 432 m 0
 237 432 189 363 189 265 c 0
 189 162 236 94 307 94 c 0
 376 94 425 164 425 262 c 0
 425 362 376 432 307 432 c 0
EndSplineSet
EndChar
StartChar: afii10067
Encoding: 1074 1074 450
Width: 572
Flags: W
HStem: 0 110<200 404.5> 430 110<200 398>
Fore
518 155 m 0
 518 89 480 0 329 0 c 2
 60 0 l 1
 60 540 l 1
 326 540 l 2
 470 540 503 448 503 398 c 0
 503 352 474 300 429 286 c 1
 490 268 518 208 518 155 c 0
200 430 m 1
 200 333 l 1
 294 333 l 2
 345 333 368 341 368 380 c 0
 368 420 345 430 294 430 c 2
 200 430 l 1
200 223 m 1
 200 110 l 1
 300 110 l 2
 354 110 379 125 379 170 c 0
 379 216 354 223 300 223 c 2
 200 223 l 1
EndSplineSet
EndChar
StartChar: afii10068
Encoding: 1075 1075 451
Width: 454
Flags: W
HStem: 0 21G<60 200> 520 20G<60 408>
Fore
408 540 m 1
 408 427 l 1
 200 427 l 1
 200 0 l 1
 60 0 l 1
 60 540 l 1
 408 540 l 1
EndSplineSet
EndChar
StartChar: afii10069
Encoding: 1076 1076 452
Width: 685
Flags: W
HStem: -20 20G<133 552> 520 20G<162 580>
VStem: 162 140<317.5 427>
Fore
580 101 m 1
 662 101 l 1
 662 -125 l 1
 552 -125 l 1
 552 0 l 1
 133 0 l 1
 133 -125 l 1
 23 -125 l 1
 23 101 l 1
 85 101 l 2
 138 102 162 252 162 388 c 2
 162 540 l 1
 580 540 l 1
 580 101 l 1
263 113 m 1
 440 113 l 1
 440 427 l 1
 302 427 l 1
 302 376 l 2
 302 259 290 174 263 113 c 1
EndSplineSet
EndChar
StartChar: afii10072
Encoding: 1078 1078 454
Width: 809
Flags: W
HStem: 0 21G<16 195 332 472 609 788> 520 20G<52 200 332 472 604 752>
VStem: 332 140<0 198 351 540>
Fore
332 198 m 1
 195 0 l 1
 16 0 l 1
 229 296 l 1
 52 540 l 1
 200 540 l 1
 332 351 l 1
 332 540 l 1
 472 540 l 1
 472 351 l 1
 604 540 l 1
 752 540 l 1
 575 296 l 1
 788 0 l 1
 609 0 l 1
 472 198 l 1
 472 0 l 1
 332 0 l 1
 332 198 l 1
EndSplineSet
EndChar
StartChar: afii10073
Encoding: 1079 1079 455
Width: 546
Flags: W
HStem: -23 110<202 378.5> 208 110<206 338> 439 110<210.5 351.5>
VStem: 365 140<359 424.5> 380 140<122.5 186.5>
CounterMasks: 1 00
Fore
166 157 m 1xe8
 174 120 188 87 276 87 c 0
 341 87 380 107 380 140 c 0
 380 143 l 0xe8
 380 166 378 208 298 208 c 2
 206 208 l 1
 206 318 l 1
 300 318 l 2
 360 318 365 352 365 376 c 0
 365 381 365 385 365 389 c 0
 365 419 333 439 284 439 c 0
 217 439 184 415 183 366 c 1
 48 366 l 1
 50 480 138 549 283 549 c 0
 420 549 505 480 505 369 c 0xf0
 505 349 503 303 461 271 c 1
 501 246 520 213 520 160 c 0
 520 85 473 -23 284 -23 c 0
 120 -23 33 39 29 157 c 1
 166 157 l 1xe8
EndSplineSet
EndChar
StartChar: afii10074
Encoding: 1080 1080 456
Width: 615
Flags: W
HStem: 0 21G<60 220 415 555> 520 20G<60 200 395 555>
Fore
60 540 m 1
 200 540 l 1
 200 202 l 1
 395 540 l 1
 555 540 l 1
 555 0 l 1
 415 0 l 1
 415 338 l 1
 220 0 l 1
 60 0 l 1
 60 540 l 1
EndSplineSet
EndChar
StartChar: afii10075
Encoding: 1081 1081 457
Width: 615
Flags: W
HStem: 0 21G<60 220 415 555> 520 20G<60 200 395 555> 580 77<270.5 345.5> 703 20G<176 232 384 440>
Fore
60 540 m 1
 200 540 l 1
 200 202 l 1
 395 540 l 1
 555 540 l 1
 555 0 l 1
 415 0 l 1
 415 338 l 1
 220 0 l 1
 60 0 l 1
 60 540 l 1
440 723 m 1
 440 712 l 2
 440 637 383 580 308 580 c 0
 233 580 176 637 176 713 c 2
 176 723 l 1
 232 723 l 1
 238 679 263 657 309 657 c 0
 353 657 376 677 384 723 c 1
 440 723 l 1
EndSplineSet
EndChar
StartChar: afii10076
Encoding: 1082 1082 458
Width: 573
Flags: W
HStem: 0 21G<60 200 367 549> 520 20G<60 200 362 510>
Fore
200 351 m 1
 362 540 l 1
 510 540 l 1
 296 296 l 1
 549 0 l 1
 367 0 l 1
 200 198 l 1
 200 0 l 1
 60 0 l 1
 60 540 l 1
 200 540 l 1
 200 351 l 1
EndSplineSet
EndChar
StartChar: afii10077
Encoding: 1083 1083 459
Width: 577
Flags: W
HStem: 0 21G<377 517> 520 20G<104 517>
VStem: 104 140<310 427>
Fore
104 540 m 1
 517 540 l 1
 517 0 l 1
 377 0 l 1
 377 427 l 1
 244 427 l 1
 244 366 l 2
 244 102 182 -10 29 -10 c 1
 29 125 l 1
 102 126 104 242 104 378 c 2
 104 540 l 1
EndSplineSet
EndChar
StartChar: afii10078
Encoding: 1084 1084 460
Width: 666
Flags: W
HStem: 0 21G<60 200 297 369 466 606> 520 20G<60 235 431 606>
Fore
369 0 m 1
 297 0 l 1
 200 297 l 1
 200 0 l 1
 60 0 l 1
 60 540 l 1
 235 540 l 1
 333 213 l 1
 431 540 l 1
 606 540 l 1
 606 0 l 1
 466 0 l 1
 466 297 l 1
 369 0 l 1
EndSplineSet
EndChar
StartChar: afii10079
Encoding: 1085 1085 461
Width: 603
Flags: W
HStem: 0 21G<60 200 403 543> 520 20G<60 200 403 543>
Fore
60 540 m 1
 200 540 l 1
 200 320 l 1
 403 320 l 1
 403 540 l 1
 543 540 l 1
 543 0 l 1
 403 0 l 1
 403 207 l 1
 200 207 l 1
 200 0 l 1
 60 0 l 1
 60 540 l 1
EndSplineSet
EndChar
StartChar: afii10081
Encoding: 1087 1087 463
Width: 603
Flags: W
HStem: 0 21G<60 200 403 543> 520 20G<60 543>
Fore
60 540 m 1
 543 540 l 1
 543 0 l 1
 403 0 l 1
 403 427 l 1
 200 427 l 1
 200 0 l 1
 60 0 l 1
 60 540 l 1
EndSplineSet
EndChar
StartChar: afii10084
Encoding: 1090 1090 466
Width: 454
Flags: W
HStem: 0 21G<156 296> 520 20G<21 431>
VStem: 156 140<0 427>
Fore
431 540 m 1
 431 427 l 1
 296 427 l 1
 296 0 l 1
 156 0 l 1
 156 427 l 1
 21 427 l 1
 21 540 l 1
 431 540 l 1
EndSplineSet
EndChar
StartChar: afii10086
Encoding: 1092 1092 468
Width: 957
Flags: W
HStem: -24 117<189 321 627 759> 432 117<183.5 321 627 764> 699 20G<404 544>
VStem: 28 140<180 341.5> 404 140<-218 64 211.5 312.5 460 719> 780 140<180 341.5>
CounterMasks: 1 00
Fore
694 549 m 0
 834 549 920 421 920 262 c 0
 920 98 824 -24 694 -24 c 0
 626 -24 578 4 544 64 c 1
 544 -218 l 1
 404 -218 l 1
 404 64 l 1
 370 4 322 -24 254 -24 c 0
 124 -24 28 98 28 262 c 0
 28 421 113 549 254 549 c 0
 322 549 370 520 404 460 c 1
 404 719 l 1
 544 719 l 1
 544 460 l 1
 578 520 626 549 694 549 c 0
286 432 m 0
 215 432 168 363 168 260 c 0
 168 162 217 93 286 93 c 0
 356 93 404 161 404 262 c 0
 404 363 356 432 286 432 c 0
662 432 m 0
 592 432 544 363 544 262 c 0
 544 161 592 93 662 93 c 0
 731 93 780 162 780 260 c 0
 780 363 733 432 662 432 c 0
EndSplineSet
EndChar
StartChar: afii10088
Encoding: 1094 1094 470
Width: 652
Flags: W
HStem: -20 20G<60 519> 520 20G<60 200 403 543>
Fore
60 0 m 1
 60 540 l 1
 200 540 l 1
 200 113 l 1
 403 113 l 1
 403 540 l 1
 543 540 l 1
 543 101 l 1
 629 101 l 1
 629 -125 l 1
 519 -125 l 1
 519 0 l 1
 60 0 l 1
EndSplineSet
EndChar
StartChar: afii10089
Encoding: 1095 1095 471
Width: 578
Flags: W
HStem: 0 21G<378 518> 520 20G<60 200 378 518>
Fore
60 540 m 1
 200 540 l 1
 200 326 l 2
 200 282 222 278 258 278 c 2
 378 278 l 1
 378 540 l 1
 518 540 l 1
 518 0 l 1
 378 0 l 1
 378 165 l 1
 260 165 l 2
 170 165 60 194 60 325 c 2
 60 540 l 1
EndSplineSet
EndChar
StartChar: afii10090
Encoding: 1096 1096 472
Width: 886
Flags: W
HStem: 0 21G<60 826> 520 20G<60 200 371 511 686 826>
VStem: 371 140<113 540>
Fore
826 0 m 1
 60 0 l 1
 60 540 l 1
 200 540 l 1
 200 113 l 1
 371 113 l 1
 371 540 l 1
 511 540 l 1
 511 113 l 1
 686 113 l 1
 686 540 l 1
 826 540 l 1
 826 0 l 1
EndSplineSet
EndChar
StartChar: afii10091
Encoding: 1097 1097 473
Width: 968
Flags: W
HStem: -20 20G<60 835> 520 20G<60 200 371 511 685 825>
VStem: 371 140<113 540>
Fore
835 0 m 1
 60 0 l 1
 60 540 l 1
 200 540 l 1
 200 113 l 1
 371 113 l 1
 371 540 l 1
 511 540 l 1
 511 113 l 1
 685 113 l 1
 685 540 l 1
 825 540 l 1
 825 101 l 1
 945 101 l 1
 945 -125 l 1
 835 -125 l 1
 835 0 l 1
EndSplineSet
EndChar
StartChar: afii10092
Encoding: 1098 1098 474
Width: 693
Flags: W
HStem: 0 21G<191 474> 520 20G<20 331>
VStem: 524 139<135.5 223>
Fore
663 168 m 0
 663 103 635 0 474 0 c 2
 191 0 l 1
 191 427 l 1
 20 427 l 1
 20 540 l 1
 331 540 l 1
 331 359 l 1
 439 359 l 2
 586 359 663 278 663 168 c 0
331 249 m 1
 331 110 l 1
 440 110 l 2
 494 110 524 135 524 180 c 0
 524 226 489 249 435 249 c 2
 331 249 l 1
EndSplineSet
EndChar
StartChar: afii10093
Encoding: 1099 1099 475
Width: 811
Flags: W
HStem: 0 21G<60 343 578 718> 520 20G<60 200 578 718>
VStem: 393 139<135.5 223>
Fore
532 168 m 0
 532 103 504 0 343 0 c 2
 60 0 l 1
 60 540 l 1
 200 540 l 1
 200 359 l 1
 308 359 l 2
 455 359 532 278 532 168 c 0
200 249 m 1
 200 110 l 1
 309 110 l 2
 363 110 393 135 393 180 c 0
 393 226 358 249 304 249 c 2
 200 249 l 1
718 540 m 1
 718 0 l 1
 578 0 l 1
 578 540 l 1
 718 540 l 1
EndSplineSet
EndChar
StartChar: afii10094
Encoding: 1100 1100 476
Width: 562
Flags: W
HStem: 0 21G<60 343> 520 20G<60 200>
VStem: 393 139<135.5 223>
Fore
532 168 m 0
 532 103 504 0 343 0 c 2
 60 0 l 1
 60 540 l 1
 200 540 l 1
 200 359 l 1
 308 359 l 2
 455 359 532 278 532 168 c 0
200 249 m 1
 200 110 l 1
 309 110 l 2
 363 110 393 135 393 180 c 0
 393 226 358 249 304 249 c 2
 200 249 l 1
EndSplineSet
EndChar
StartChar: afii10095
Encoding: 1101 1101 477
Width: 564
Flags: W
HStem: -23 113<203.5 349> 436 113<199.5 347.5>
VStem: 203 319<170 351>
Fore
377 320 m 1
 363 397 336 436 268 436 c 0
 211 436 184 409 168 338 c 1
 34 338 l 1
 44 470 132 549 267 549 c 0
 428 549 522 443 522 259 c 0
 522 81 429 -23 269 -23 c 0
 138 -23 47 58 34 187 c 1
 168 187 l 1
 186 117 214 90 268 90 c 0
 326 90 366 133 378 207 c 1
 203 207 l 1
 203 320 l 1
 377 320 l 1
EndSplineSet
EndChar
StartChar: afii10096
Encoding: 1102 1102 478
Width: 908
Flags: W
HStem: -23 113<481 637> 436 113<481 638.5>
VStem: 672 140<172.5 350.5>
Fore
302 207 m 1
 200 207 l 1
 200 0 l 1
 60 0 l 1
 60 540 l 1
 200 540 l 1
 200 320 l 1
 302 320 l 1
 322 463 408 549 554 549 c 0
 723 549 812 442 812 259 c 0
 812 86 719 -23 555 -23 c 0
 407 -23 321 63 302 207 c 1
555 436 m 0
 479 436 438 366 438 263 c 0
 438 160 479 90 555 90 c 0
 630 90 672 160 672 261 c 0
 672 367 632 436 555 436 c 0
EndSplineSet
EndChar
StartChar: afii10097
Encoding: 1103 1103 479
Width: 596
Flags: W
HStem: 0 21G<25 204 391 531> 520 20G<240 531>
VStem: 51 139<347 418>
Fore
51 385 m 0
 51 451 89 540 240 540 c 2
 531 540 l 1
 531 0 l 1
 391 0 l 1
 391 207 l 1
 347 207 l 1
 204 0 l 1
 25 0 l 1
 180 218 l 1
 97 241 51 305 51 382 c 0
 51 385 l 0
391 317 m 1
 391 430 l 1
 269 430 l 2
 215 430 190 415 190 370 c 0
 190 324 215 317 269 317 c 2
 391 317 l 1
EndSplineSet
EndChar
StartChar: afii10099
Encoding: 1106 1106 482
Width: 606
Flags: W
HStem: -173 63<268 316> 0 21G<92 232> 421 119<307 430> 567 104<22 92 232 402> 709 20G<92 232>
VStem: 92 140<0 567 671 729>
Fore
341 421 m 0
 376 421 427 406 427 322 c 2
 427 321 l 2
 428 112 l 1
 423 -25 324 -108 268 -110 c 1
 268 -172 l 1
 271 -173 275 -173 279 -173 c 0
 353 -173 569 -49 568 132 c 0
 567 353 l 1
 567 354 l 2
 567 503 469 540 391 540 c 0
 324 540 271 511 232 453 c 1
 232 567 l 1
 402 567 l 1
 402 671 l 1
 232 671 l 1
 232 729 l 1
 92 729 l 1
 92 671 l 1
 22 671 l 1
 22 567 l 1
 92 567 l 1
 92 0 l 1
 232 0 l 1
 232 315 l 2
 232 374 273 421 341 421 c 0
EndSplineSet
EndChar
StartChar: afii10101
Encoding: 1108 1108 484
Width: 556
Flags: W
HStem: -23 113<207 352.5> 436 113<208.5 356.5>
VStem: 34 319<170 351>
Fore
353 207 m 1
 178 207 l 1
 190 133 230 90 288 90 c 0
 342 90 370 117 388 187 c 1
 522 187 l 1
 509 58 418 -23 287 -23 c 0
 127 -23 34 81 34 259 c 0
 34 443 128 549 289 549 c 0
 424 549 512 470 522 338 c 1
 388 338 l 1
 372 409 345 436 288 436 c 0
 220 436 193 397 179 320 c 1
 353 320 l 1
 353 207 l 1
EndSplineSet
EndChar
StartChar: afii10106
Encoding: 1113 1113 489
Width: 900
Flags: W
HStem: 0 21G<29 45 403 686> 520 20G<104 543>
VStem: 104 140<314 427>
Fore
862 147 m 2
 862 85 827 0 686 0 c 2
 403 0 l 1
 403 427 l 1
 244 427 l 1
 244 376 l 2
 244 207 222 11 45 0 c 2
 29 0 l 1
 29 135 l 1
 96 136 104 241 104 387 c 2
 104 540 l 1
 543 540 l 1
 543 319 l 1
 651 319 l 2
 746 319 812 288 849 227 c 0
 861 208 862 195 862 178 c 0
 862 170 862 160 862 148 c 2
 862 147 l 2
739 160 m 2
 739 187 721 209 647 209 c 2
 543 209 l 1
 543 110 l 1
 652 110 l 2
 703 110 734 110 739 151 c 1
 739 160 l 2
EndSplineSet
EndChar
StartChar: afii10107
Encoding: 1114 1114 490
Width: 611
Flags: W
HStem: 0 21G<63 203 406 689> 520 20G<63 203 406 546>
Fore
865 147 m 6
 865 85 830 0 689 0 c 6
 406 0 l 5
 406 207 l 5
 203 207 l 1
 203 0 l 1
 63 0 l 1
 63 540 l 1
 203 540 l 1
 203 320 l 1
 406 320 l 5
 406 540 l 5
 546 540 l 5
 546 319 l 5
 654 319 l 6
 749 319 815 288 852 227 c 4
 864 208 865 195 865 178 c 0
 865 170 865 160 865 148 c 6
 865 147 l 6
742 160 m 6
 742 187 724 209 650 209 c 6
 546 209 l 5
 546 110 l 5
 655 110 l 6
 706 110 737 110 742 151 c 5
 742 160 l 6
EndSplineSet
EndChar
StartChar: afii10108
Encoding: 1115 1115 491
Width: 606
Flags: W
HStem: 0 21G<92 232 426 566> 421 119<307 429.5> 567 104<22 92 232 402> 709 20G<92 232>
VStem: 92 140<0 567 671 729> 427 140<321 428.5>
Fore
341 421 m 4
 273 421 232 373 232 315 c 6
 232 0 l 5
 92 0 l 5
 92 567 l 5
 22 567 l 5
 22 671 l 5
 92 671 l 5
 92 729 l 5
 232 729 l 5
 232 671 l 5
 402 671 l 5
 402 567 l 5
 232 567 l 5
 232 453 l 5
 271 511 324 540 391 540 c 4
 468 540 567 503 567 354 c 6
 567 353 l 5
 566 0 l 5
 426 0 l 5
 427 321 l 6
 427 406 377 421 341 421 c 4
EndSplineSet
EndChar
StartChar: afii10193
Encoding: 1119 1119 495
Width: 608
Flags: W
HStem: 0 113<200 404> 520 20G<60 200 404 544>
VStem: 247 110<-125 0>
Fore
357 0 m 1
 357 -125 l 1
 247 -125 l 1
 247 0 l 1
 60 0 l 1
 60 540 l 1
 200 540 l 1
 200 113 l 1
 404 113 l 1
 404 540 l 1
 544 540 l 1
 544 0 l 1
 357 0 l 1
EndSplineSet
EndChar
StartChar: uni048C
Encoding: 1164 1164 496
Width: 687
Flags: W
HStem: 0 125<76 398> 555 79<6 76 226 305> 709 20G<76 226>
VStem: 483 150<153 300>
Fore
226 344 m 1
 226 125 l 1
 366 125 l 2
 446 125 483 160 483 235 c 0
 483 309 446 344 366 344 c 2
 226 344 l 1
226 634 m 1
 305 634 l 1
 305 555 l 1
 226 555 l 1
 226 469 l 1
 413 469 l 2
 547 469 633 374 633 226 c 0
 633 80 550 0 398 0 c 2
 76 0 l 1
 76 555 l 1
 6 555 l 1
 6 634 l 1
 76 634 l 1
 76 729 l 1
 226 729 l 1
 226 634 l 1
EndSplineSet
EndChar
StartChar: uni048D
Encoding: 1165 1165 497
Width: 562
Flags: W
HStem: 0 110<60 351> 392 79<-20 60 200 279> 520 20G<60 200>
VStem: 401 139<122 193>
Fore
200 223 m 1
 200 110 l 1
 322 110 l 2
 376 110 401 125 401 170 c 0
 401 216 376 223 322 223 c 2
 200 223 l 1
540 155 m 0
 540 89 502 0 351 0 c 2
 60 0 l 1
 60 392 l 1
 -20 392 l 1
 -20 471 l 1
 60 471 l 1
 60 540 l 1
 200 540 l 1
 200 471 l 1
 279 471 l 1
 279 392 l 1
 200 392 l 1
 200 333 l 1
 316 333 l 2
 463 333 537 267 540 155 c 0
EndSplineSet
EndChar
StartChar: uni048E
Encoding: 1166 1166 498
Width: 667
Flags: W
HStem: 0 21G<76 226> 709 20G<76 398>
VStem: 483 150<465.5 576>
Fore
468 428 m 1
 478 445 483 467 483 494 c 0
 483 569 446 604 366 604 c 2
 226 604 l 1
 226 385 l 1
 366 385 l 2
 377 385 388 386 397 387 c 1
 352 432 l 1
 408 488 l 1
 468 428 l 1
572 324 m 1
 619 277 l 1
 563 221 l 1
 506 278 l 1
 479 266 447 260 413 260 c 2
 226 260 l 1
 226 0 l 1
 76 0 l 1
 76 729 l 1
 398 729 l 2
 550 729 633 649 633 503 c 0
 633 428 611 367 572 324 c 1
EndSplineSet
EndChar
StartChar: uni048F
Encoding: 1167 1167 499
Width: 611
Flags: W
HStem: -24 117<281 368> 432 117<281 418>
VStem: 58 140<-218 540> 434 140<222.5 341.5>
Fore
414 163 m 1
 427 189 434 223 434 260 c 0
 434 363 387 432 316 432 c 0
 246 432 198 363 198 262 c 0
 198 161 246 93 316 93 c 0
 332 93 347 97 361 104 c 1
 306 159 l 1
 362 215 l 1
 414 163 l 1
348 549 m 0
 488 549 574 421 574 262 c 0
 574 183 552 114 514 63 c 1
 573 4 l 1
 517 -52 l 1
 457 8 l 1
 425 -12 388 -24 348 -24 c 0
 280 -24 232 4 198 64 c 1
 198 -218 l 1
 58 -218 l 1
 58 540 l 1
 198 540 l 1
 198 460 l 1
 232 520 280 549 348 549 c 0
EndSplineSet
EndChar
StartChar: afii10050
Encoding: 1168 1168 500
Width: 611
Flags: W
HStem: 0 21G<74 224>
VStem: 74 150<0 729>
Fore
224 0 m 1
 74 0 l 1
 74 729 l 1
 436 728 l 1
 436 864 l 1
 586 864 l 1
 586 604 l 1
 224 604 l 1
 224 0 l 1
EndSplineSet
EndChar
StartChar: afii10098
Encoding: 1169 1169 501
Width: 454
Flags: W
HStem: 0 21G<64 204> 520 20G<64 284>
Fore
412 666 m 1
 412 427 l 1
 204 427 l 1
 204 0 l 1
 64 0 l 1
 64 540 l 1
 284 540 l 1
 284 666 l 1
 412 666 l 1
EndSplineSet
EndChar
StartChar: uni0492
Encoding: 1170 1170 502
Width: 611
Flags: W
HStem: 0 21G<82 232> 314 125<4 82 232 423> 709 20G<82 594>
Fore
232 439 m 1
 423 439 l 1
 423 314 l 1
 232 314 l 1
 232 0 l 1
 82 0 l 1
 82 314 l 1
 4 314 l 1
 4 439 l 1
 82 439 l 1
 82 729 l 1
 594 729 l 1
 594 604 l 1
 232 604 l 1
 232 439 l 1
EndSplineSet
EndChar
StartChar: uni0493
Encoding: 1171 1171 503
Width: 454
Flags: W
HStem: 0 21G<60 200> 239 90<-6 60 200 304> 520 20G<60 408>
VStem: 60 140<0 239 329 427>
Fore
60 329 m 1
 60 540 l 1
 408 540 l 1
 408 427 l 1
 200 427 l 1
 200 329 l 1
 304 329 l 1
 304 239 l 1
 200 239 l 1
 200 0 l 1
 60 0 l 1
 60 239 l 1
 -6 239 l 1
 -6 329 l 1
 60 329 l 1
EndSplineSet
EndChar
StartChar: uni0494
Encoding: 1172 1172 504
Width: 611
Flags: W
HStem: -172 125<314 425> 0 21G<74 224> 709 20G<74 586>
Fore
224 0 m 1
 74 0 l 1
 74 729 l 1
 586 729 l 1
 586 604 l 1
 224 604 l 1
 224 504 l 1
 351 504 l 2
 499 504 599 408 599 282 c 2
 599 50 l 2
 599 -76 499 -172 351 -172 c 2
 314 -172 l 1
 314 -47 l 1
 339 -47 l 2
 397 -47 449 -10 449 56 c 2
 449 276 l 2
 449 342 397 379 339 379 c 2
 224 379 l 1
 224 0 l 1
EndSplineSet
EndChar
StartChar: uni0495
Encoding: 1173 1173 505
Width: 584
Flags: W
HStem: -187 119<308 396> 0 21G<60 200> 211 119<256.5 379> 520 20G<60 408>
Fore
308 -68 m 1
 375 -68 394 -22 394 32 c 2
 394 111 l 2
 394 190 354 211 288 211 c 0
 225 211 200 168 200 125 c 2
 200 0 l 1
 60 0 l 1
 60 540 l 1
 408 540 l 1
 408 427 l 1
 200 427 l 1
 200 273 l 1
 228 318 269 330 338 330 c 0
 420 330 534 302 534 143 c 2
 534 0 l 2
 534 -150 434 -187 358 -187 c 2
 308 -187 l 1
 308 -68 l 1
EndSplineSet
EndChar
StartChar: uni0496
Encoding: 1174 1174 506
Width: 1093
Flags: W
HStem: -150 258<943 1078> 709 20G<66 230 475 625 870 1034>
VStem: 475 150<0 285 450 729>
Fore
976 108 m 1
 1078 108 l 1
 1078 -150 l 1
 943 -150 l 1
 943 0 l 1
 899 0 l 1
 625 285 l 1
 625 0 l 1
 475 0 l 1
 475 285 l 1
 201 0 l 1
 22 0 l 1
 379 378 l 1
 66 729 l 1
 230 729 l 1
 475 450 l 1
 475 729 l 1
 625 729 l 1
 625 450 l 1
 870 729 l 1
 1034 729 l 1
 721 378 l 1
 976 108 l 1
EndSplineSet
EndChar
StartChar: uni0497
Encoding: 1175 1175 507
Width: 809
Flags: W
HStem: -20 20G<609 678> 520 20G<52 200 332 472 604 752>
VStem: 332 140<0 198 351 540>
Fore
715 101 m 1
 788 101 l 1
 788 -125 l 1
 678 -125 l 1
 678 0 l 1
 609 0 l 1
 472 198 l 1
 472 0 l 1
 332 0 l 1
 332 198 l 1
 195 0 l 1
 16 0 l 1
 229 296 l 1
 52 540 l 1
 200 540 l 1
 332 351 l 1
 332 540 l 1
 472 540 l 1
 472 351 l 1
 604 540 l 1
 752 540 l 1
 575 296 l 1
 715 101 l 1
EndSplineSet
EndChar
StartChar: uni0498
Encoding: 1176 1176 508
Width: 672
Flags: W
HStem: -234 51<272 348.5> 308 120<250 403> 621 120<274 418.5>
VStem: 358 90<-168 -111> 464 143<485 588> 489 144<144 253>
Fore
45 507 m 1xf8
 45 706 217 741 331 741 c 0
 506 741 607 659 607 517 c 0xf8
 607 453 587 409 544 377 c 1
 606 343 633 293 633 213 c 0
 633 75 536 -11 370 -22 c 1
 419 -51 448 -93 448 -139 c 0
 448 -197 393 -234 304 -234 c 0
 276 -234 252 -231 225 -224 c 1
 225 -177 l 1
 243 -181 262 -183 282 -183 c 0
 335 -183 358 -167 358 -133 c 0
 358 -89 340 -61 280 -20 c 1
 128 -5 40 78 32 218 c 1
 178 218 l 1
 183 140 240 97 342 97 c 0
 433 97 489 134 489 195 c 0xf4
 489 254 454 308 352 308 c 2
 250 308 l 1
 250 428 l 1
 326 428 l 2
 435 428 464 478 464 531 c 0
 464 586 415 621 338 621 c 0
 243 621 190 581 185 507 c 1
 45 507 l 1xf8
EndSplineSet
EndChar
StartChar: uni0499
Encoding: 1177 1177 509
Width: 546
Flags: W
HStem: -234 51<230 306.5> 208 110<206 338> 439 110<210.5 351.5>
VStem: 316 90<-168 -111> 365 140<359 424.5> 380 140<83 186.5>
Fore
520 160 m 0xe4
 520 6 366 -17 327 -21 c 1
 377 -51 406 -93 406 -139 c 0
 406 -197 351 -234 262 -234 c 0
 234 -234 210 -231 183 -224 c 1
 183 -177 l 1
 201 -181 220 -183 240 -183 c 0
 293 -183 316 -167 316 -133 c 0xf0
 316 -89 298 -62 240 -21 c 1
 104 -11 33 50 29 157 c 1
 166 157 l 1
 174 120 188 87 276 87 c 0
 341 87 380 107 380 140 c 0
 380 143 l 0xe4
 380 166 378 208 298 208 c 2
 206 208 l 1
 206 318 l 1
 300 318 l 2
 360 318 365 352 365 376 c 0
 365 381 365 385 365 389 c 0
 365 419 333 439 284 439 c 0
 217 439 184 415 183 366 c 1
 48 366 l 1
 50 480 138 549 283 549 c 0
 420 549 505 480 505 369 c 0xe8
 505 349 503 303 461 271 c 1
 501 246 520 213 520 160 c 0xe4
EndSplineSet
EndChar
StartChar: uni049A
Encoding: 1178 1178 510
Width: 750
Flags: W
HStem: -150 258<595 725> 709 20G<82 232 517 694>
Fore
612 108 m 1
 725 108 l 1
 725 -150 l 1
 595 -150 l 1
 595 0 l 1
 525 0 l 1
 232 285 l 1
 232 0 l 1
 82 0 l 1
 82 729 l 1
 232 729 l 1
 232 450 l 1
 517 729 l 1
 694 729 l 1
 328 378 l 1
 612 108 l 1
EndSplineSet
EndChar
StartChar: uni049B
Encoding: 1179 1179 511
Width: 573
Flags: W
HStem: -20 20G<367 439> 520 20G<60 200 362 510>
Fore
463 101 m 1
 549 101 l 1
 549 -125 l 1
 439 -125 l 1
 439 0 l 1
 367 0 l 1
 200 198 l 1
 200 0 l 1
 60 0 l 1
 60 540 l 1
 200 540 l 1
 200 351 l 1
 362 540 l 1
 510 540 l 1
 296 296 l 1
 463 101 l 1
EndSplineSet
EndChar
StartChar: uni049C
Encoding: 1180 1180 512
Width: 722
Flags: W
HStem: 0 21G<82 232 525 725> 709 20G<82 232 517 694>
VStem: 276 79<100 242 493 639>
Fore
276 242 m 1
 232 285 l 1
 232 0 l 1
 82 0 l 1
 82 729 l 1
 232 729 l 1
 232 450 l 1
 276 493 l 1
 276 639 l 1
 355 639 l 1
 355 570 l 1
 517 729 l 1
 694 729 l 1
 355 404 l 1
 355 352 l 1
 725 0 l 1
 525 0 l 1
 355 165 l 1
 355 100 l 1
 276 100 l 1
 276 242 l 1
EndSplineSet
EndChar
StartChar: uni049D
Encoding: 1181 1181 513
Width: 573
Flags: W
HStem: 0 21G<60 200 367 549> 520 20G<60 200 362 510>
VStem: 236 79<35 155 393 519>
Fore
236 155 m 1
 200 198 l 1
 200 0 l 1
 60 0 l 1
 60 540 l 1
 200 540 l 1
 200 351 l 1
 236 393 l 1
 236 519 l 1
 315 519 l 1
 315 485 l 1
 362 540 l 1
 510 540 l 1
 315 318 l 1
 315 274 l 1
 549 0 l 1
 367 0 l 1
 315 62 l 1
 315 35 l 1
 236 35 l 1
 236 155 l 1
EndSplineSet
EndChar
StartChar: uni049E
Encoding: 1182 1182 514
Width: 722
Flags: W
HStem: 0 21G<74 224 538 724> 587 79<2 74 224 301> 709 20G<74 224 509 686>
VStem: 74 150<0 587 666 729>
Fore
224 666 m 1
 301 666 l 1
 301 587 l 1
 224 587 l 1
 224 450 l 1
 509 729 l 1
 686 729 l 1
 320 378 l 1
 724 0 l 1
 538 0 l 1
 224 285 l 1
 224 0 l 1
 74 0 l 1
 74 587 l 1
 2 587 l 1
 2 666 l 1
 74 666 l 1
 74 729 l 1
 224 729 l 1
 224 666 l 1
EndSplineSet
EndChar
StartChar: uni049F
Encoding: 1183 1183 515
Width: 573
Flags: W
HStem: 0 21G<59 199 366 548> 442 59<8 59 199 253> 520 20G<59 199 361 509>
VStem: 59 140<0 442 501 540>
Fore
199 501 m 1
 253 501 l 1
 253 442 l 1
 199 442 l 1
 199 351 l 1
 361 540 l 1
 509 540 l 1
 295 296 l 1
 548 0 l 1
 366 0 l 1
 199 198 l 1
 199 0 l 1
 59 0 l 1
 59 442 l 1
 8 442 l 1
 8 501 l 1
 59 501 l 1
 59 540 l 1
 199 540 l 1
 199 501 l 1
EndSplineSet
EndChar
StartChar: uni04A0
Encoding: 1184 1184 516
Width: 912
Flags: W
HStem: 0 21G<244 394 687 887> 709 20G<14 394 679 856>
VStem: 244 150<0 604>
Fore
394 729 m 1
 394 450 l 1
 679 729 l 1
 856 729 l 1
 490 378 l 1
 887 0 l 1
 687 0 l 1
 394 285 l 1
 394 0 l 1
 244 0 l 1
 244 604 l 1
 14 604 l 1
 14 729 l 1
 394 729 l 1
EndSplineSet
EndChar
StartChar: uni04A1
Encoding: 1185 1185 517
Width: 704
Flags: W
HStem: 0 21G<191 331 498 680> 520 20G<20 331 493 641>
VStem: 191 140<0 427>
Fore
331 540 m 1
 331 351 l 1
 493 540 l 1
 641 540 l 1
 427 296 l 1
 680 0 l 1
 498 0 l 1
 331 198 l 1
 331 0 l 1
 191 0 l 1
 191 427 l 1
 20 427 l 1
 20 540 l 1
 331 540 l 1
EndSplineSet
EndChar
StartChar: uni04A2
Encoding: 1186 1186 518
Width: 753
Flags: W
HStem: -20 20G<521 656> 709 20G<82 232 520 671>
VStem: 521 150<0 331>
Fore
671 108 m 1
 791 108 l 1
 791 -150 l 1
 656 -150 l 1
 656 0 l 1
 521 0 l 1
 521 331 l 1
 232 331 l 1
 232 0 l 1
 82 0 l 1
 82 729 l 1
 232 729 l 1
 232 456 l 1
 520 456 l 1
 520 729 l 1
 671 729 l 1
 671 108 l 1
EndSplineSet
EndChar
StartChar: uni04A3
Encoding: 1187 1187 519
Width: 608
Flags: W
HStem: -20 20G<403 519> 520 20G<60 200 403 543>
VStem: 403 140<0 540>
Fore
543 101 m 1
 629 101 l 1
 629 -125 l 1
 519 -125 l 1
 519 0 l 1
 403 0 l 1
 403 207 l 1
 200 207 l 1
 200 0 l 1
 60 0 l 1
 60 540 l 1
 200 540 l 1
 200 320 l 1
 403 320 l 1
 403 540 l 1
 543 540 l 1
 543 101 l 1
EndSplineSet
EndChar
StartChar: uni04A4
Encoding: 1188 1188 520
Width: 985
Flags: W
HStem: 0 21G<68 218 507 656> 709 20G<68 218 506 968>
Fore
656 0 m 1
 507 0 l 1
 507 331 l 1
 218 331 l 1
 218 0 l 1
 68 0 l 1
 68 729 l 1
 218 729 l 1
 218 456 l 1
 506 456 l 1
 506 729 l 1
 968 729 l 1
 968 604 l 1
 656 604 l 1
 656 0 l 1
EndSplineSet
EndChar
StartChar: uni04A5
Encoding: 1189 1189 521
Width: 787
Flags: W
HStem: 0 21G<60 200 403 543> 520 20G<60 200 403 741>
Fore
543 0 m 1
 403 0 l 1
 403 207 l 1
 200 207 l 1
 200 0 l 1
 60 0 l 1
 60 540 l 1
 200 540 l 1
 200 320 l 1
 403 320 l 1
 403 540 l 1
 741 540 l 1
 741 427 l 1
 543 427 l 1
 543 0 l 1
EndSplineSet
EndChar
StartChar: uni04A6
Encoding: 1190 1190 522
Width: 1092
Flags: W
HStem: -172 125<747 858> 0 21G<68 218 507 657> 709 20G<68 657>
Fore
657 0 m 1
 507 0 l 1
 507 604 l 1
 218 604 l 1
 218 0 l 1
 68 0 l 1
 68 729 l 1
 657 729 l 1
 657 504 l 1
 784 504 l 2
 932 504 1032 408 1032 282 c 2
 1032 50 l 2
 1032 -76 932 -172 784 -172 c 2
 747 -172 l 1
 747 -47 l 1
 772 -47 l 2
 830 -47 882 -10 882 56 c 2
 882 276 l 2
 882 342 830 379 772 379 c 2
 657 379 l 1
 657 0 l 1
EndSplineSet
EndChar
StartChar: uni04A7
Encoding: 1191 1191 523
Width: 925
Flags: W
HStem: -187 119<651 739> 0 21G<60 200 403 543> 211 119<599.5 722> 520 20G<60 543>
Fore
651 -68 m 1
 718 -68 737 -22 737 32 c 2
 737 111 l 2
 737 190 697 211 631 211 c 0
 568 211 543 168 543 125 c 2
 543 0 l 1
 403 0 l 1
 403 427 l 1
 200 427 l 1
 200 0 l 1
 60 0 l 1
 60 540 l 1
 543 540 l 1
 543 273 l 1
 571 318 612 330 681 330 c 0
 763 330 877 302 877 143 c 2
 877 0 l 2
 877 -150 777 -187 701 -187 c 2
 651 -187 l 1
 651 -68 l 1
EndSplineSet
EndChar
StartChar: uni04AA
Encoding: 1194 1194 524
Width: 722
Flags: W
HStem: -234 51<314 390.5> 613 128<275 463>
VStem: 44 150<251.5 476> 400 90<-168 -111>
Fore
539 482 m 1
 531 519 508 613 383 613 c 0
 265 613 194 517 194 356 c 0
 194 197 262 103 378 103 c 0
 471 103 530 156 539 249 c 1
 685 249 l 1
 677 94 572 -8 412 -21 c 1
 461 -51 490 -93 490 -139 c 0
 490 -197 435 -234 346 -234 c 0
 318 -234 294 -231 267 -224 c 1
 267 -177 l 1
 285 -181 304 -183 324 -183 c 0
 377 -183 400 -167 400 -133 c 0
 400 -89 382 -61 321 -19 c 1
 149 4 44 145 44 358 c 0
 44 594 172 741 378 741 c 0
 548 741 669 646 682 482 c 1
 539 482 l 1
EndSplineSet
EndChar
StartChar: uni04AB
Encoding: 1195 1195 525
Width: 556
Flags: W
HStem: -234 51<230 306.5> 436 113<208.5 356.5>
VStem: 34 140<180 351> 316 90<-168 -111>
Fore
288 436 m 0
 191 436 174 334 174 259 c 0
 174 154 217 90 288 90 c 0
 342 90 370 117 388 187 c 1
 522 187 l 1
 510 71 436 -6 326 -20 c 1
 377 -50 406 -92 406 -139 c 0
 406 -197 351 -234 262 -234 c 0
 234 -234 210 -231 183 -224 c 1
 183 -177 l 1
 201 -181 220 -183 240 -183 c 0
 293 -183 316 -167 316 -133 c 0
 316 -89 298 -61 237 -19 c 1
 108 1 34 101 34 259 c 0
 34 443 128 549 289 549 c 0
 424 549 512 470 522 338 c 1
 388 338 l 1
 372 409 345 436 288 436 c 0
EndSplineSet
EndChar
StartChar: uni04AC
Encoding: 1196 1196 526
Width: 611
Flags: W
HStem: -20 20G<235 370> 709 20G<14 598>
VStem: 235 150<0 604>
Fore
385 108 m 1
 505 108 l 1
 505 -150 l 1
 370 -150 l 1
 370 0 l 1
 235 0 l 1
 235 604 l 1
 14 604 l 1
 14 729 l 1
 598 729 l 1
 598 604 l 1
 385 604 l 1
 385 108 l 1
EndSplineSet
EndChar
StartChar: uni04AD
Encoding: 1197 1197 527
Width: 454
Flags: W
HStem: -20 20G<156 272> 520 20G<21 431>
VStem: 156 140<0 427>
Fore
296 101 m 1
 382 101 l 1
 382 -125 l 1
 272 -125 l 1
 272 0 l 1
 156 0 l 1
 156 427 l 1
 21 427 l 1
 21 540 l 1
 431 540 l 1
 431 427 l 1
 296 427 l 1
 296 101 l 1
EndSplineSet
EndChar
StartChar: uni04AE
Encoding: 1198 1198 528
Width: 667
Flags: W
HStem: 0 21G<269 419> 709 20G<27 194 482 650>
VStem: 269 150<0 270>
Fore
419 270 m 1
 419 0 l 1
 269 0 l 1
 269 270 l 1
 27 729 l 1
 194 729 l 1
 343 407 l 1
 482 729 l 1
 650 729 l 1
 419 270 l 1
EndSplineSet
EndChar
StartChar: uni04AF
Encoding: 1199 1199 529
Width: 667
Flags: W
HStem: 520 20G<57 224 452 620>
VStem: 269 150<-189 81>
Fore
419 81 m 1
 419 -189 l 1
 269 -189 l 1
 269 81 l 1
 57 540 l 1
 224 540 l 1
 343 218 l 1
 452 540 l 1
 620 540 l 1
 419 81 l 1
EndSplineSet
EndChar
StartChar: uni04B0
Encoding: 1200 1200 530
Width: 667
Flags: W
HStem: 0 21G<269 419> 145 104<69 269 419 619> 709 20G<27 194 482 650>
Fore
269 145 m 1
 69 145 l 1
 69 249 l 1
 269 249 l 1
 269 270 l 1
 27 729 l 1
 194 729 l 1
 343 407 l 1
 482 729 l 1
 650 729 l 1
 419 270 l 1
 419 249 l 1
 619 249 l 1
 619 145 l 1
 419 145 l 1
 419 0 l 1
 269 0 l 1
 269 145 l 1
EndSplineSet
EndChar
StartChar: uni04B1
Encoding: 1201 1201 531
Width: 667
Flags: W
HStem: -23 104<69 269 419 619> 520 20G<57 224 452 620>
VStem: 269 150<-189 -23>
Fore
419 -23 m 1
 419 -189 l 1
 269 -189 l 1
 269 -23 l 1
 69 -23 l 1
 69 81 l 1
 269 81 l 1
 57 540 l 1
 224 540 l 1
 343 218 l 1
 452 540 l 1
 620 540 l 1
 419 81 l 1
 619 81 l 1
 619 -23 l 1
 419 -23 l 1
EndSplineSet
EndChar
StartChar: uni04B2
Encoding: 1202 1202 532
Width: 667
Flags: W
HStem: -150 258<523 653> 709 20G<30 208 470 644>
Fore
585 108 m 1
 653 108 l 1
 653 -150 l 1
 523 -150 l 1
 523 0 l 1
 475 0 l 1
 335 253 l 1
 196 0 l 1
 22 0 l 1
 252 367 l 1
 30 729 l 1
 208 729 l 1
 336 489 l 1
 470 729 l 1
 644 729 l 1
 419 372 l 1
 585 108 l 1
EndSplineSet
EndChar
StartChar: uni04B3
Encoding: 1203 1203 533
Width: 556
Flags: W
HStem: -20 20G<367 425> 520 20G<20 188 363 531>
Fore
468 101 m 1
 535 101 l 1
 535 -125 l 1
 425 -125 l 1
 425 0 l 1
 367 0 l 1
 276 168 l 1
 184 0 l 1
 16 0 l 1
 196 272 l 1
 20 540 l 1
 188 540 l 1
 276 377 l 1
 363 540 l 1
 531 540 l 1
 355 272 l 1
 468 101 l 1
EndSplineSet
EndChar
StartChar: uni04B4
Encoding: 1204 1204 534
Width: 951
Flags: W
HStem: -20 20G<205 774> 709 20G<14 538 644 794>
Fore
205 604 m 1
 14 604 l 1
 14 729 l 1
 538 729 l 1
 538 604 l 1
 355 604 l 1
 355 125 l 1
 644 125 l 1
 644 729 l 1
 794 729 l 1
 794 108 l 1
 904 108 l 1
 904 -150 l 1
 774 -150 l 1
 774 0 l 1
 205 0 l 1
 205 604 l 1
EndSplineSet
EndChar
StartChar: uni04B5
Encoding: 1205 1205 535
Width: 738
Flags: W
HStem: -20 20G<136 605> 520 20G<21 391 479 619>
Fore
136 427 m 1
 21 427 l 1
 21 540 l 1
 391 540 l 1
 391 427 l 1
 276 427 l 1
 276 113 l 1
 479 113 l 1
 479 540 l 1
 619 540 l 1
 619 101 l 1
 715 101 l 1
 715 -125 l 1
 605 -125 l 1
 605 0 l 1
 136 0 l 1
 136 427 l 1
EndSplineSet
EndChar
StartChar: uni04B6
Encoding: 1206 1206 536
Width: 781
Flags: W
HStem: -20 20G<474 604> 709 20G<68 218 473 624>
VStem: 68 150<384 729>
Fore
604 0 m 1
 474 0 l 1
 474 225 l 1
 316 225 l 2
 168 225 68 321 68 447 c 2
 68 729 l 1
 218 729 l 1
 218 453 l 2
 218 387 270 350 328 350 c 2
 473 350 l 1
 473 729 l 1
 624 729 l 1
 624 108 l 1
 734 108 l 1
 734 -150 l 1
 604 -150 l 1
 604 0 l 1
EndSplineSet
EndChar
StartChar: uni04B7
Encoding: 1207 1207 537
Width: 627
Flags: W
HStem: -20 20G<378 494> 520 20G<60 200 378 518>
VStem: 60 140<278.5 540> 378 140<101 540>
Fore
494 0 m 1
 378 0 l 1
 378 163 l 1
 280 163 l 2
 170 163 60 212 60 345 c 2
 60 540 l 1
 200 540 l 1
 200 346 l 2
 200 298 232 276 278 276 c 2
 378 276 l 1
 378 540 l 1
 518 540 l 1
 518 101 l 1
 604 101 l 1
 604 -125 l 1
 494 -125 l 1
 494 0 l 1
EndSplineSet
EndChar
StartChar: uni04B8
Encoding: 1208 1208 538
Width: 685
Flags: W
HStem: 0 21G<474 624> 709 20G<68 218 473 624>
VStem: 68 150<385 729> 308 79<140 225 350 439>
Fore
308 352 m 1
 308 439 l 1
 387 439 l 1
 387 350 l 1
 473 350 l 1
 473 729 l 1
 624 729 l 1
 624 0 l 1
 474 0 l 1
 474 225 l 1
 387 225 l 1
 387 140 l 1
 308 140 l 1
 308 225 l 1
 168 225 68 323 68 447 c 2
 68 729 l 1
 218 729 l 1
 218 453 l 2
 218 395 259 359 308 352 c 1
EndSplineSet
EndChar
StartChar: uni04B9
Encoding: 1209 1209 539
Width: 578
Flags: W
HStem: 0 21G<378 518> 520 20G<60 200 378 518>
VStem: 60 140<285 540> 248 79<80 164 276 379>
Fore
248 164 m 1
 150 173 60 225 60 345 c 2
 60 540 l 1
 200 540 l 1
 200 346 l 2
 200 309 219 288 248 280 c 1
 248 379 l 1
 327 379 l 1
 327 276 l 1
 378 276 l 1
 378 540 l 1
 518 540 l 1
 518 0 l 1
 378 0 l 1
 378 163 l 1
 327 163 l 1
 327 80 l 1
 248 80 l 1
 248 164 l 1
EndSplineSet
EndChar
StartChar: uni04BA
Encoding: 1210 1210 540
Width: 685
Flags: W
HStem: 0 21G<68 219 474 624> 709 20G<68 218>
VStem: 474 150<0 345>
Fore
218 504 m 1
 376 504 l 2
 524 504 624 408 624 282 c 2
 624 0 l 1
 474 0 l 1
 474 276 l 2
 474 342 422 379 364 379 c 2
 219 379 l 1
 219 0 l 1
 68 0 l 1
 68 729 l 1
 218 729 l 1
 218 504 l 1
EndSplineSet
EndChar
StartChar: uni04BB
Encoding: 1211 1211 541
Width: 578
Flags: W
HStem: 0 21G<60 200 378 518> 520 20G<60 200>
Fore
518 0 m 1
 378 0 l 1
 378 194 l 2
 378 242 346 264 300 264 c 2
 200 264 l 1
 200 0 l 1
 60 0 l 1
 60 540 l 1
 200 540 l 1
 200 377 l 1
 298 377 l 2
 408 377 518 328 518 195 c 2
 518 0 l 1
EndSplineSet
EndChar
StartChar: uni04BC
Encoding: 1212 1212 542
Width: 957
Flags: W
HStem: -23 128<510 695.5> 615 126<524.5 699.5> 677 68<129.5 218.5>
VStem: 25 84<517.5 626> 279 150<242 363>
Fore
442 469 m 1xd8
 774 469 l 1
 765 562 706 615 613 615 c 0
 526 615 466 562 442 469 c 1xd8
917 236 m 1
 904 72 778 -23 613 -23 c 0
 407 -23 279 124 279 360 c 2
 279 363 l 1
 87 364 25 464 25 571 c 0
 25 681 81 745 178 745 c 0
 259 745 311 697 317 618 c 1
 237 618 l 1
 227 661 211 677 177 677 c 0xb8
 119 677 109 615 109 571 c 0
 109 508 134 469 178 469 c 2
 289 469 l 1
 323 639 440 741 609 741 c 0
 790 741 920 620 920 363 c 1
 429 363 l 1
 429 197 499 105 618 105 c 0
 743 105 765 199 774 236 c 1
 917 236 l 1
EndSplineSet
EndChar
StartChar: uni04BD
Encoding: 1213 1213 543
Width: 716
Flags: W
HStem: -23 113<367 512.5> 260 96<108 194 334 682> 436 113<384 516.5> 494 45<90 149>
VStem: 20 56<388 460> 194 140<205.5 260>
Fore
347 356 m 1xec
 543 356 l 1
 527 414 500 436 448 436 c 0
 369 436 353 375 347 356 c 1xec
122 494 m 0xdc
 98 494 76 478 76 423 c 0
 76 381 94 356 122 356 c 2
 204 356 l 1
 232 480 319 549 449 549 c 0xec
 584 549 672 470 682 338 c 2
 682 260 l 1
 334 260 l 1
 334 151 376 90 448 90 c 0
 502 90 530 117 548 187 c 1
 682 187 l 1
 669 58 578 -23 447 -23 c 0
 287 -23 194 81 194 259 c 2
 194 260 l 1
 68 261 20 353 20 423 c 0
 20 497 58 539 122 539 c 0
 176 539 212 508 216 455 c 1
 162 455 l 1
 156 483 145 494 122 494 c 0xdc
EndSplineSet
EndChar
StartChar: uni04BE
Encoding: 1214 1214 544
Width: 957
Flags: W
HStem: -234 51<560 636.5> 615 126<524.5 699.5> 677 68<129.5 218.5>
VStem: 25 84<517.5 626> 279 150<250.5 363> 646 90<-168 -111>
Fore
442 469 m 1xdc
 774 469 l 1
 765 562 706 615 613 615 c 0
 526 615 466 562 442 469 c 1xdc
917 236 m 1
 899 15 705 -16 657 -21 c 1
 707 -50 736 -92 736 -139 c 0
 736 -197 681 -234 592 -234 c 0
 564 -234 540 -231 513 -224 c 1
 513 -177 l 1
 531 -181 550 -183 570 -183 c 0
 623 -183 646 -167 646 -133 c 0
 646 -89 628 -61 569 -21 c 1
 389 -1 279 141 279 360 c 2
 279 363 l 1
 87 364 25 464 25 571 c 0
 25 681 81 745 178 745 c 0
 259 745 311 697 317 618 c 1
 237 618 l 1
 227 661 211 677 177 677 c 0xbc
 119 677 109 615 109 571 c 0
 109 508 134 469 178 469 c 2
 289 469 l 1
 323 639 440 741 609 741 c 0
 790 741 920 620 920 363 c 1
 429 363 l 1
 429 197 499 105 618 105 c 0
 743 105 765 199 774 236 c 1
 917 236 l 1
EndSplineSet
EndChar
StartChar: uni04BF
Encoding: 1215 1215 545
Width: 716
Flags: W
HStem: -234 51<391 467.5> 260 96<108 194 334 682> 436 113<384 516.5> 494 45<90 149>
VStem: 20 56<388 460> 194 140<205.5 260> 477 90<-168 -111>
Fore
347 356 m 1xee
 543 356 l 1
 527 414 500 436 448 436 c 0
 369 436 353 375 347 356 c 1xee
122 494 m 0xde
 98 494 76 478 76 423 c 0
 76 381 94 356 122 356 c 2
 204 356 l 1
 232 480 319 549 449 549 c 0xee
 584 549 672 470 682 338 c 2
 682 260 l 1
 334 260 l 1
 334 151 376 90 448 90 c 0
 502 90 530 117 548 187 c 1
 682 187 l 1
 670 72 596 -5 487 -20 c 1
 537 -50 567 -92 567 -139 c 0
 567 -197 512 -234 423 -234 c 0
 395 -234 371 -231 344 -224 c 1
 344 -177 l 1
 362 -181 381 -183 401 -183 c 0
 454 -183 477 -167 477 -133 c 0
 477 -89 459 -61 398 -19 c 1
 268 0 194 100 194 259 c 2
 194 260 l 1
 68 261 20 353 20 423 c 0
 20 497 58 539 122 539 c 0
 176 539 212 508 216 455 c 1
 162 455 l 1
 156 483 145 494 122 494 c 0xde
EndSplineSet
EndChar
StartChar: uni04C0
Encoding: 1216 1216 546
Width: 278
Flags: W
HStem: 0 21G<63 213> 709 20G<63 213>
Fore
213 729 m 1
 213 0 l 1
 63 0 l 1
 63 729 l 1
 213 729 l 1
EndSplineSet
EndChar
StartChar: uni04C1
Encoding: 1217 1217 547
Width: 1093
Flags: W
HStem: 0 21G<22 206 475 625 894 1078> 709 20G<66 230 475 625 870 1034> 801 77<512.5 587.5>
VStem: 475 150<0 285 450 729>
Fore
682 944 m 1
 682 933 l 2
 682 858 625 801 550 801 c 0
 475 801 418 858 418 934 c 2
 418 944 l 1
 474 944 l 1
 480 900 505 878 551 878 c 0
 595 878 618 898 626 944 c 1
 682 944 l 1
475 285 m 1
 206 0 l 1
 22 0 l 1
 379 378 l 1
 66 729 l 1
 230 729 l 1
 475 450 l 1
 475 729 l 1
 625 729 l 1
 625 450 l 1
 870 729 l 1
 1034 729 l 1
 721 378 l 1
 1078 0 l 1
 894 0 l 1
 625 285 l 1
 625 0 l 1
 475 0 l 1
 475 285 l 1
EndSplineSet
EndChar
StartChar: uni04C2
Encoding: 1218 1218 548
Width: 809
Flags: W
HStem: 0 21G<16 195 332 472 609 788> 520 20G<52 200 332 472 604 752> 609 77<364.5 439.5>
VStem: 332 140<0 198 351 540>
Fore
534 752 m 1
 534 741 l 2
 534 666 477 609 402 609 c 0
 327 609 270 666 270 742 c 2
 270 752 l 1
 326 752 l 1
 332 708 357 686 403 686 c 0
 447 686 470 706 478 752 c 1
 534 752 l 1
332 198 m 1
 195 0 l 1
 16 0 l 1
 229 296 l 1
 52 540 l 1
 200 540 l 1
 332 351 l 1
 332 540 l 1
 472 540 l 1
 472 351 l 1
 604 540 l 1
 752 540 l 1
 575 296 l 1
 788 0 l 1
 609 0 l 1
 472 198 l 1
 472 0 l 1
 332 0 l 1
 332 198 l 1
EndSplineSet
EndChar
StartChar: uni04C3
Encoding: 1219 1219 549
Width: 750
Flags: W
HStem: -172 125<347 458> 0 21G<82 232> 253 125<328 458> 709 20G<82 232 517 694>
Fore
384 378 m 2
 532 378 632 282 632 156 c 2
 632 50 l 2
 632 -76 532 -172 384 -172 c 2
 347 -172 l 1
 347 -47 l 1
 372 -47 l 2
 430 -47 482 -10 482 56 c 2
 482 150 l 2
 482 216 430 253 372 253 c 2
 232 253 l 1
 232 0 l 1
 82 0 l 1
 82 729 l 1
 232 729 l 1
 232 450 l 1
 517 729 l 1
 694 729 l 1
 328 378 l 1
 384 378 l 2
EndSplineSet
EndChar
StartChar: uni04C4
Encoding: 1220 1220 550
Width: 573
Flags: W
HStem: -188 119<265 368.5> 0 21G<60 200> 520 20G<60 200 362 510>
Fore
315 297 m 2
 422 297 491 232 491 110 c 2
 491 -1 l 2
 491 -123 422 -188 315 -188 c 2
 265 -188 l 1
 265 -69 l 1
 319 -69 351 -40 351 31 c 2
 351 78 l 2
 351 149 319 178 265 178 c 2
 200 178 l 1
 200 0 l 1
 60 0 l 1
 60 540 l 1
 200 540 l 1
 200 351 l 1
 362 540 l 1
 510 540 l 1
 296 296 l 1
 315 297 l 2
EndSplineSet
EndChar
StartChar: uni04C7
Encoding: 1223 1223 551
Width: 722
Flags: W
HStem: -172 125<372 483> 0 21G<68 218> 709 20G<68 218 506 657>
VStem: 507 150<-13 331>
Fore
507 56 m 2
 507 331 l 1
 218 331 l 1
 218 0 l 1
 68 0 l 1
 68 729 l 1
 218 729 l 1
 218 456 l 1
 506 456 l 1
 506 729 l 1
 657 729 l 1
 657 50 l 2
 657 -76 557 -172 409 -172 c 2
 372 -172 l 1
 372 -47 l 1
 397 -47 l 2
 455 -47 507 -10 507 56 c 2
EndSplineSet
EndChar
StartChar: uni04C8
Encoding: 1224 1224 552
Width: 608
Flags: W
HStem: -187 119<317 420.5> 0 21G<60 200> 520 20G<60 200 403 543>
VStem: 403 140<-61 540>
Fore
403 32 m 2
 403 207 l 1
 200 207 l 1
 200 0 l 1
 60 0 l 1
 60 540 l 1
 200 540 l 1
 200 320 l 1
 403 320 l 1
 403 540 l 1
 543 540 l 1
 543 0 l 2
 543 -122 474 -187 367 -187 c 2
 317 -187 l 1
 317 -68 l 1
 371 -68 403 -39 403 32 c 2
EndSplineSet
EndChar
StartChar: uni04CB
Encoding: 1227 1227 553
Width: 685
Flags: W
HStem: 0 21G<494 624> 709 20G<68 218 473 624>
VStem: 68 150<384 729>
Fore
494 0 m 1
 494 -150 l 1
 364 -150 l 1
 364 108 l 1
 474 108 l 1
 474 225 l 1
 316 225 l 2
 168 225 68 321 68 447 c 2
 68 729 l 1
 218 729 l 1
 218 453 l 2
 218 387 270 350 328 350 c 2
 473 350 l 1
 473 729 l 1
 624 729 l 1
 624 0 l 1
 494 0 l 1
EndSplineSet
EndChar
StartChar: uni04CC
Encoding: 1228 1228 554
Width: 578
Flags: W
HStem: 0 21G<402 518> 520 20G<60 200 378 518>
VStem: 60 140<278.5 540>
Fore
402 0 m 1
 402 -125 l 1
 292 -125 l 1
 292 101 l 1
 378 101 l 1
 378 163 l 1
 280 163 l 2
 170 163 60 212 60 345 c 2
 60 540 l 1
 200 540 l 1
 200 346 l 2
 200 298 232 276 278 276 c 2
 378 276 l 1
 378 540 l 1
 518 540 l 1
 518 0 l 1
 402 0 l 1
EndSplineSet
EndChar
StartChar: uni04D4
Encoding: 1236 1236 559
Width: 1000
Flags: W
HStem: 0 21G<1 154 430 966> 314 125<580 919> 709 20G<264 946>
Fore
430 152 m 1
 207 152 l 1
 154 0 l 1
 1 0 l 1
 264 729 l 1
 946 729 l 1
 946 604 l 1
 580 604 l 1
 580 439 l 1
 919 439 l 1
 919 314 l 1
 580 314 l 1
 580 125 l 1
 966 125 l 1
 966 0 l 1
 430 0 l 1
 430 152 l 1
430 277 m 1
 430 604 l 1
 363 604 l 1
 249 277 l 1
 430 277 l 1
EndSplineSet
EndChar
StartChar: uni04D5
Encoding: 1237 1237 560
Width: 889
Flags: W
HStem: -24 113<143.5 279> 226 93<494 856> 436 113<196.5 310>
VStem: 27 140<90.5 190>
Fore
494 226 m 1
 494 105 560 84 608 84 c 0
 656 84 700 113 712 152 c 1
 850 152 l 1
 819 45 721 -23 600 -23 c 0
 512 -23 442 13 400 81 c 1
 338 8 276 -24 195 -24 c 0
 92 -24 27 40 27 141 c 0
 27 239 78 294 186 312 c 2
 242 322 l 2
 295 331 354 334 354 383 c 0
 354 419 326 436 269 436 c 0
 206 436 181 416 174 362 c 1
 43 362 l 1
 45 486 122 549 271 549 c 0
 349 549 408 532 446 499 c 1
 487 532 540 549 601 549 c 0
 713 549 857 489 857 250 c 0
 857 245 857 238 856 226 c 1
 494 226 l 1
354 216 m 2
 354 254 l 1
 337 244 325 240 295 235 c 2
 247 228 l 2
 194 221 167 196 167 155 c 0
 167 114 196 89 243 89 c 0
 315 89 354 134 354 216 c 2
495 319 m 1
 711 319 l 1
 704 400 667 442 602 442 c 0
 538 442 501 400 495 319 c 1
EndSplineSet
EndChar
StartChar: uni04D8
Encoding: 1240 1240 563
Width: 722
Flags: W
HStem: -23 126<264.5 456.5> 613 128<268.5 454>
VStem: 535 150<241 476>
Fore
522 249 m 1
 190 249 l 1
 199 156 258 103 351 103 c 0
 438 103 498 156 522 249 c 1
47 482 m 1
 60 646 186 741 351 741 c 0
 557 741 685 594 685 358 c 0
 685 124 558 -23 355 -23 c 0
 174 -23 44 98 44 355 c 1
 535 355 l 1
 535 356 l 0
 535 517 464 613 346 613 c 0
 221 613 199 519 190 482 c 1
 47 482 l 1
EndSplineSet
EndChar
StartChar: afii10846
Encoding: 1241 1241 564
Width: 556
Flags: W
HStem: -23 113<199.5 347.5> 170 96<34 382> 436 113<203.5 349>
VStem: 382 140<175 356>
Fore
382 266 m 1
 382 267 l 0
 382 372 339 436 268 436 c 0
 214 436 186 409 168 339 c 1
 34 339 l 1
 47 468 138 549 269 549 c 0
 429 549 522 445 522 267 c 0
 522 83 428 -23 267 -23 c 0
 132 -23 44 56 34 188 c 1
 34 266 l 1
 382 266 l 1
369 170 m 1
 173 170 l 1
 189 112 216 90 268 90 c 0
 348 90 363 152 369 170 c 1
EndSplineSet
EndChar
StartChar: uni04E0
Encoding: 1248 1248 571
Width: 672
Flags: W
HStem: -23 120<241 428> 308 120<250 403> 621 120<274 418.5>
VStem: 464 143<485 588> 489 144<139 253>
Fore
45 507 m 1xf0
 45 706 217 741 331 741 c 0
 506 741 607 659 607 517 c 0xf0
 607 453 587 409 544 377 c 1
 606 343 633 293 633 213 c 0
 633 65 522 -23 334 -23 c 0
 148 -23 41 62 32 218 c 1
 178 218 l 1
 183 140 240 97 342 97 c 0
 433 97 489 134 489 195 c 0xe8
 489 254 454 308 352 308 c 2
 250 308 l 1
 250 428 l 1
 326 428 l 2
 435 428 464 478 464 531 c 0
 464 586 415 621 338 621 c 0
 243 621 190 581 185 507 c 1
 45 507 l 1xf0
EndSplineSet
EndChar
StartChar: uni04E1
Encoding: 1249 1249 572
Width: 546
Flags: W
HStem: -23 110<202 378.5> 208 110<206 338> 439 110<210.5 351.5>
VStem: 365 140<359 424.5> 380 140<122.5 186.5>
CounterMasks: 1 00
Fore
166 157 m 1xe8
 174 120 188 87 276 87 c 0
 341 87 380 107 380 140 c 0
 380 143 l 0xe8
 380 166 378 208 298 208 c 2
 206 208 l 1
 206 318 l 1
 300 318 l 2
 360 318 365 352 365 376 c 0
 365 381 365 385 365 389 c 0
 365 419 333 439 284 439 c 0
 217 439 184 415 183 366 c 1
 48 366 l 1
 50 480 138 549 283 549 c 0
 420 549 505 480 505 369 c 0xf0
 505 349 503 303 461 271 c 1
 501 246 520 213 520 160 c 0
 520 85 473 -23 284 -23 c 0
 120 -23 33 39 29 157 c 1
 166 157 l 1xe8
EndSplineSet
EndChar
StartChar: uni04E8
Encoding: 1256 1256 579
Width: 778
Flags: W
HStem: -23 128<284 500.5> 321 79<192 591> 613 128<284 495.5>
Fore
40 359 m 0
 40 581 178 741 390 741 c 0
 601 741 742 586 742 354 c 0
 742 145 610 -23 391 -23 c 0
 177 -23 40 137 40 359 c 0
590 400 m 1
 576 532 502 613 391 613 c 0
 281 613 205 530 192 400 c 1
 590 400 l 1
591 321 m 1
 192 321 l 1
 204 189 280 105 391 105 c 0
 502 105 579 191 591 321 c 1
EndSplineSet
EndChar
StartChar: uni04E9
Encoding: 1257 1257 580
Width: 611
Flags: W
HStem: -23 113<219 384> 224 79<178 427> 436 113<218.5 385.5>
Fore
301 549 m 0
 470 549 569 442 569 259 c 0
 569 86 466 -23 302 -23 c 0
 136 -23 35 85 35 263 c 0
 35 440 136 549 301 549 c 0
426 303 m 1
 415 385 368 436 302 436 c 0
 236 436 189 384 178 303 c 1
 426 303 l 1
427 224 m 1
 178 224 l 1
 189 143 236 90 302 90 c 0
 367 90 415 143 427 224 c 1
EndSplineSet
EndChar
StartChar: afii57799
Encoding: 1456 1456 595
Width: 82
Flags: W
HStem: -254 82<0 82> -142 82<0 82>
VStem: 0 82<-254 -172 -142 -60>
Fore
0 -172 m 1
 82 -172 l 1
 82 -254 l 1
 0 -254 l 1
 0 -172 l 1
0 -60 m 1
 82 -60 l 1
 82 -142 l 1
 0 -142 l 1
 0 -60 l 1
EndSplineSet
EndChar
StartChar: afii57801
Encoding: 1457 1457 596
Width: 347
Flags: W
HStem: -254 82<65 147 265 347> -142 82<0 82 129 212 265 347>
VStem: 0 82<-142 -60> 65 82<-254 -172> 129 83<-142 -60> 265 82<-254 -172 -142 -60>
Fore
65 -172 m 1xd4
 147 -172 l 1
 147 -254 l 1
 65 -254 l 1
 65 -172 l 1xd4
0 -60 m 1xe4
 82 -60 l 1
 82 -142 l 1
 0 -142 l 1
 0 -60 l 1xe4
129 -60 m 1xcc
 212 -60 l 1
 212 -142 l 1
 129 -142 l 1
 129 -60 l 1xcc
265 -60 m 1
 347 -60 l 1
 347 -142 l 1
 265 -142 l 1
 265 -60 l 1
265 -172 m 1
 347 -172 l 1
 347 -254 l 1
 265 -254 l 1
 265 -172 l 1
EndSplineSet
EndChar
StartChar: afii57800
Encoding: 1458 1458 597
Width: 341
Flags: W
HStem: -254 82<259 341> -142 82<0 200 259 341>
VStem: 259 82<-254 -172 -142 -60>
Fore
0 -60 m 1
 200 -60 l 1
 200 -142 l 1
 0 -142 l 1
 0 -60 l 1
259 -60 m 1
 341 -60 l 1
 341 -142 l 1
 259 -142 l 1
 259 -60 l 1
259 -172 m 1
 341 -172 l 1
 341 -254 l 1
 259 -254 l 1
 259 -172 l 1
EndSplineSet
EndChar
StartChar: afii57802
Encoding: 1459 1459 598
Width: 341
Flags: W
HStem: -254 82<259 341> -142 82<0 200 259 341>
VStem: 59 82<-248 -142> 259 82<-254 -172 -142 -60>
Fore
259 -172 m 1
 341 -172 l 1
 341 -254 l 1
 259 -254 l 1
 259 -172 l 1
259 -60 m 1
 341 -60 l 1
 341 -142 l 1
 259 -142 l 1
 259 -60 l 1
141 -142 m 1
 141 -248 l 1
 59 -248 l 1
 59 -142 l 1
 0 -142 l 1
 0 -60 l 1
 200 -60 l 1
 200 -142 l 1
 141 -142 l 1
EndSplineSet
EndChar
StartChar: afii57793
Encoding: 1460 1460 599
Width: 82
Flags: W
HStem: -142 82<0 82>
VStem: 0 82<-142 -60>
Fore
0 -60 m 1
 82 -60 l 1
 82 -142 l 1
 0 -142 l 1
 0 -60 l 1
EndSplineSet
EndChar
StartChar: afii57794
Encoding: 1461 1461 600
Width: 211
Flags: W
HStem: -142 82<0 82 129 212>
VStem: 0 82<-142 -60> 129 83<-142 -60>
Fore
0 -60 m 1
 82 -60 l 1
 82 -142 l 1
 0 -142 l 1
 0 -60 l 1
129 -60 m 1
 212 -60 l 1
 212 -142 l 1
 129 -142 l 1
 129 -60 l 1
EndSplineSet
EndChar
StartChar: afii57795
Encoding: 1462 1462 601
Width: 211
Flags: W
HStem: -254 82<65 147> -142 82<0 82 129 212>
VStem: 0 82<-142 -60> 65 82<-254 -172> 129 83<-142 -60>
Fore
65 -172 m 1xd0
 147 -172 l 1
 147 -254 l 1
 65 -254 l 1
 65 -172 l 1xd0
0 -60 m 1xe0
 82 -60 l 1
 82 -142 l 1
 0 -142 l 1
 0 -60 l 1xe0
129 -60 m 1xc8
 212 -60 l 1
 212 -142 l 1
 129 -142 l 1
 129 -60 l 1xc8
EndSplineSet
EndChar
StartChar: afii57798
Encoding: 1463 1463 602
Width: 200
Flags: W
HStem: -142 82<0 200>
Fore
0 -60 m 1
 200 -60 l 1
 200 -142 l 1
 0 -142 l 1
 0 -60 l 1
EndSplineSet
EndChar
StartChar: afii57797
Encoding: 1464 1464 603
Width: 200
Flags: W
HStem: -142 82<0 200>
VStem: 59 82<-248 -142>
Fore
141 -142 m 1
 141 -248 l 1
 59 -248 l 1
 59 -142 l 1
 0 -142 l 1
 0 -60 l 1
 200 -60 l 1
 200 -142 l 1
 141 -142 l 1
EndSplineSet
EndChar
StartChar: afii57806
Encoding: 1465 1465 604
Width: 82
Flags: W
HStem: 660 82<0 82>
VStem: 0 82<660 742>
Fore
0 742 m 1
 82 742 l 1
 82 660 l 1
 0 660 l 1
 0 742 l 1
EndSplineSet
EndChar
StartChar: afii57796
Encoding: 1467 1467 605
Width: 341
Flags: W
HStem: -254 82<259 341> -195 82<129 212> -142 82<0 82>
VStem: 0 82<-142 -60> 129 83<-195 -113> 259 82<-254 -172>
CounterMasks: 1 00
Fore
259 -172 m 1x9c
 341 -172 l 1
 341 -254 l 1
 259 -254 l 1
 259 -172 l 1x9c
129 -113 m 1x5c
 212 -113 l 1
 212 -195 l 1
 129 -195 l 1
 129 -113 l 1x5c
0 -60 m 1x3c
 82 -60 l 1
 82 -142 l 1
 0 -142 l 1
 0 -60 l 1x3c
EndSplineSet
EndChar
StartChar: afii57807
Encoding: 1468 1468 606
Width: 82
Flags: W
HStem: 257 82<0 82>
VStem: 0 82<257 339>
Fore
0 339 m 1
 82 339 l 1
 82 257 l 1
 0 257 l 1
 0 339 l 1
EndSplineSet
EndChar
StartChar: afii57839
Encoding: 1469 1469 607
Width: 82
Flags: W
VStem: 0 82<-248 -60>
Fore
82 -60 m 1
 82 -248 l 1
 0 -248 l 1
 0 -60 l 1
 82 -60 l 1
EndSplineSet
EndChar
StartChar: afii57645
Encoding: 1470 1470 608
Width: 516
Flags: W
Fore
63 485 m 1
 63 600 l 1
 444 600 l 1
 444 485 l 1
 63 485 l 1
EndSplineSet
EndChar
StartChar: afii57841
Encoding: 1471 1471 609
Width: 200
Flags: W
HStem: 660 82<0 200>
Fore
0 742 m 1
 200 742 l 1
 200 660 l 1
 0 660 l 1
 0 742 l 1
EndSplineSet
EndChar
StartChar: afii57842
Encoding: 1472 1472 610
Width: 297
Flags: W
HStem: 680 20G<79 218>
Fore
79 -100 m 1
 79 700 l 1
 218 700 l 1
 218 -100 l 1
 79 -100 l 1
EndSplineSet
EndChar
StartChar: afii57804
Encoding: 1473 1473 611
Width: 1038
Flags: W
HStem: 639 82<650 732>
VStem: 650 82<639 721>
Fore
650 721 m 1
 732 721 l 1
 732 639 l 1
 650 639 l 1
 650 721 l 1
EndSplineSet
EndChar
StartChar: afii57803
Encoding: 1474 1474 612
Width: 1038
Flags: W
HStem: 639 82<101 183>
VStem: 101 82<639 721>
Fore
101 721 m 1
 183 721 l 1
 183 639 l 1
 101 639 l 1
 101 721 l 1
EndSplineSet
EndChar
StartChar: uni05C4
Encoding: 1476 1476 614
Width: 82
Flags: W
HStem: 660 82<0 82>
VStem: 0 82<660 742>
Fore
0 742 m 1
 82 742 l 1
 82 660 l 1
 0 660 l 1
 0 742 l 1
EndSplineSet
EndChar
StartChar: afii57664
Encoding: 1488 1488 615
Width: 714
Flags: W
HStem: 0 21G<89 228 487 650>
VStem: 89 139<0 158> 482 139<433 600>
Fore
621 433 m 2
 596 297 538 240 498 212 c 1
 650 0 l 1
 487 0 l 1
 286 285 l 1
 247 237 241 207 228 148 c 1
 228 0 l 1
 89 0 l 1
 89 158 l 2
 105 245 132 331 212 388 c 1
 61 600 l 1
 222 600 l 1
 425 315 l 1
 463 362 469 389 482 444 c 1
 482 600 l 1
 621 600 l 1
 621 433 l 2
EndSplineSet
EndChar
StartChar: afii57665
Encoding: 1489 1489 616
Width: 651
Flags: W
HStem: 0 21G<77 610> 485 115<77 259>
Fore
259 600 m 2
 324 593 487 579 519 374 c 2
 519 115 l 1
 610 115 l 1
 610 0 l 1
 77 0 l 1
 77 115 l 1
 380 115 l 1
 380 365 l 2
 355 476 316 472 247 485 c 2
 77 485 l 1
 77 600 l 1
 259 600 l 2
EndSplineSet
EndChar
StartChar: afii57666
Encoding: 1490 1490 617
Width: 557
Flags: W
HStem: 0 21G<47 220 363 503> 485 115<115 200>
Fore
347 138 m 1
 220 0 l 1
 47 0 l 1
 224 194 l 1
 341 194 l 1
 322 361 l 2
 298 456 294 465 188 485 c 2
 115 485 l 1
 115 600 l 1
 200 600 l 2
 437 573 446 434 460 378 c 2
 503 0 l 1
 363 0 l 1
 347 138 l 1
EndSplineSet
EndChar
StartChar: afii57667
Encoding: 1491 1491 618
Width: 638
Flags: W
HStem: 0 21G<344 483>
VStem: 344 139<0 485>
Fore
344 485 m 1
 63 485 l 1
 63 600 l 1
 566 600 l 1
 566 485 l 1
 483 485 l 1
 483 0 l 1
 344 0 l 1
 344 485 l 1
EndSplineSet
EndChar
StartChar: afii57668
Encoding: 1492 1492 619
Width: 682
Flags: W
HStem: 0 21G<79 218 473 612> 485 115<79 352>
VStem: 473 139<0 374>
Fore
473 365 m 2
 448 476 409 472 340 485 c 2
 79 485 l 1
 79 600 l 1
 352 600 l 2
 419 593 580 579 612 374 c 1
 612 0 l 1
 473 0 l 1
 473 365 l 2
79 0 m 1
 79 349 l 1
 218 349 l 1
 218 0 l 1
 79 0 l 1
EndSplineSet
EndChar
StartChar: afii57669
Encoding: 1493 1493 620
Width: 297
Flags: W
HStem: 0 21G<79 218>
Fore
79 0 m 1
 79 600 l 1
 218 600 l 1
 218 0 l 1
 79 0 l 1
EndSplineSet
EndChar
StartChar: afii57670
Encoding: 1494 1494 621
Width: 443
Flags: W
HStem: 0 21G<149 288>
VStem: 149 139<0 485>
Fore
149 485 m 1
 63 485 l 1
 63 600 l 1
 371 600 l 1
 371 485 l 1
 288 485 l 1
 288 0 l 1
 149 0 l 1
 149 485 l 1
EndSplineSet
EndChar
StartChar: afii57671
Encoding: 1495 1495 622
Width: 682
Flags: W
HStem: 0 21G<79 218 473 612> 485 115<218 352>
VStem: 473 139<0 374>
Fore
473 365 m 2
 448 476 409 472 340 485 c 2
 218 485 l 1
 218 0 l 1
 79 0 l 1
 79 600 l 1
 352 600 l 2
 408 597 579 582 612 374 c 2
 612 0 l 1
 473 0 l 1
 473 365 l 2
EndSplineSet
EndChar
StartChar: afii57672
Encoding: 1496 1496 623
Width: 670
Flags: W
HStem: 0 21G<319 374.5>
Fore
340 485 m 2
 313 485 294 473 294 473 c 1
 294 595 l 1
 307 597 311 600 345 600 c 0
 390 600 512 577 560 502 c 0
 592 456 609 426 609 374 c 0
 609 226 l 2
 597 148 563 75 499 44 c 0
 458 21 407 0 342 0 c 0
 296 0 174 23 125 98 c 0
 93 144 76 174 76 226 c 0
 76 600 l 1
 215 600 l 1
 215 235 l 2
 225 194 232 160 262 141 c 0
 306 118 307 116 342 115 c 0
 455 118 464 206 470 235 c 2
 470 365 l 2
 462 400 456 440 422 459 c 0
 381 480 379 485 340 485 c 2
EndSplineSet
EndChar
StartChar: afii57673
Encoding: 1497 1497 624
Width: 284
Flags: W
Fore
212 333 m 1
 73 276 l 1
 73 600 l 1
 212 600 l 1
 212 333 l 1
EndSplineSet
EndChar
StartChar: afii57674
Encoding: 1498 1498 625
Width: 590
Flags: W
HStem: 485 115<62 259>
VStem: 381 139<-200 400>
Fore
381 365 m 2
 356 474 319 472 248 485 c 2
 62 485 l 1
 62 600 l 1
 259 600 l 2
 391 585 448 538 471 502 c 0
 503 456 520 426 520 374 c 0
 520 -200 l 1
 381 -200 l 1
 381 365 l 2
EndSplineSet
EndChar
StartChar: afii57675
Encoding: 1499 1499 626
Width: 595
Flags: W
HStem: 0 21G<76 273> 485 115<76 273>
Fore
395 365 m 2
 370 474 333 472 262 485 c 2
 76 485 l 1
 76 600 l 1
 273 600 l 2
 405 585 461 538 485 502 c 0
 517 456 534 426 534 374 c 0
 534 226 l 2
 521 148 488 75 424 44 c 0
 371 16 335 7 273 0 c 2
 76 0 l 1
 76 115 l 1
 262 115 l 2
 335 129 370 126 395 235 c 2
 395 365 l 2
EndSplineSet
EndChar
StartChar: afii57676
Encoding: 1500 1500 627
Width: 667
Flags: W
HStem: 0 21G<271 410> 730 20G<62 201>
VStem: 271 139<0 187>
Fore
410 101 m 2
 410 0 l 1
 271 0 l 1
 271 107 l 1
 277 154 275 188 307 233 c 0
 394 352 432 263 456 419 c 2
 456 485 l 1
 62 485 l 1
 62 750 l 1
 201 750 l 1
 201 600 l 1
 595 600 l 1
 595 412 l 2
 576 156 410 273 410 101 c 2
EndSplineSet
EndChar
StartChar: afii57677
Encoding: 1501 1501 628
Width: 683
Flags: W
HStem: 0 21G<80 613> 485 115<219 455.5>
Fore
346 600 m 2
 565 600 613 419 613 369 c 2
 613 0 l 1
 80 0 l 1
 80 600 l 1
 346 600 l 2
474 369 m 2
 469 467 374 484 346 485 c 2
 219 485 l 1
 219 115 l 1
 474 115 l 1
 474 369 l 2
EndSplineSet
EndChar
StartChar: afii57678
Encoding: 1502 1502 629
Width: 704
Flags: W
HStem: 0 21G<86 226 363 633> 485 115<67 440.5>
Fore
494 369 m 2
 494 434 442 485 367 485 c 2
 298 485 l 1
 226 0 l 1
 86 0 l 1
 158 485 l 1
 67 485 l 1
 67 600 l 1
 367 600 l 2
 514 600 633 504 633 369 c 2
 633 0 l 1
 363 0 l 1
 363 115 l 1
 494 115 l 1
 494 369 l 2
EndSplineSet
EndChar
StartChar: afii57679
Encoding: 1503 1503 630
Width: 297
Flags: W
Fore
79 -200 m 1
 79 600 l 1
 218 600 l 1
 218 -200 l 1
 79 -200 l 1
EndSplineSet
EndChar
StartChar: afii57680
Encoding: 1504 1504 631
Width: 429
Flags: W
HStem: 0 21G<73 359>
Fore
220 365 m 2
 210 410 195 485 84 485 c 1
 84 600 l 1
 148 600 348 567 359 374 c 2
 359 0 l 1
 73 0 l 1
 73 115 l 1
 220 115 l 1
 220 365 l 2
EndSplineSet
EndChar
StartChar: afii57681
Encoding: 1505 1505 632
Width: 670
Flags: W
HStem: 0 21G<312 338 337 342 341 342.5 342 346 345.5 377.5> 485 115<215 348>
VStem: 76 139<226 600>
Fore
342 0 m 2
 340 -0 339 -0 337 -0 c 0
 287 -0 87 34 76 226 c 2
 76 600 l 1
 348 600 l 2
 402 597 576 582 609 374 c 2
 609 226 l 2
 596 148 563 75 499 44 c 0
 458 22 409 -0 346 -0 c 0
 345 -0 343 -0 342 0 c 2
470 365 m 2
 445 474 407 472 337 485 c 2
 215 485 l 1
 215 235 l 2
 224 194 231 160 262 141 c 0
 306 118 307 116 342 115 c 0
 454 118 463 206 470 235 c 2
 470 365 l 2
EndSplineSet
EndChar
StartChar: afii57682
Encoding: 1506 1506 633
Width: 653
Flags: W
VStem: 440 139<252 600>
Fore
346 136 m 1
 424 167 424 189 440 262 c 2
 440 600 l 1
 579 600 l 1
 579 252 l 1
 569 197 565 155 516 101 c 0
 472 53 431 34 377 21 c 0
 60 -55 l 1
 60 65 l 1
 212 101 l 1
 99 600 l 1
 241 600 l 1
 346 136 l 1
EndSplineSet
EndChar
StartChar: afii57683
Encoding: 1507 1507 634
Width: 661
Flags: W
HStem: 241 115<243.5 319> 486 115<211 328>
VStem: 72 139<382.5 486>
Fore
211 407 m 2
 211 358 221 356 266 356 c 2
 319 356 l 1
 319 241 l 1
 254 241 l 1
 217 246 170 243 121 284 c 0
 71 327 72 370 72 398 c 2
 72 601 l 1
 328 601 l 2
 371 600 493 593 563 475 c 0
 589 433 590 404 590 373 c 0
 590 -200 l 1
 451 -200 l 1
 451 367 l 2
 447 396 453 438 377 476 c 0
 358 486 258 486 211 486 c 1
 211 407 l 2
EndSplineSet
EndChar
StartChar: afii57684
Encoding: 1508 1508 635
Width: 660
Flags: W
HStem: 0 21G<79 335> 240 115<251 326> 485 115<218 335>
VStem: 79 139<382 485>
Fore
218 406 m 2
 218 358 229 355 273 355 c 2
 326 355 l 1
 326 240 l 1
 261 240 l 1
 224 245 177 241 128 283 c 0
 78 326 79 369 79 397 c 2
 79 600 l 1
 335 600 l 2
 377 599 499 595 570 474 c 0
 596 432 597 403 597 372 c 0
 597 228 l 1
 593 197 596 168 570 126 c 0
 499 6 383 4 335 0 c 1
 79 0 l 1
 79 115 l 1
 327 115 l 2
 368 120 402 114 446 180 c 0
 456 194 458 201 458 234 c 0
 458 366 l 2
 455 395 460 437 384 475 c 0
 365 485 265 485 218 485 c 1
 218 406 l 2
EndSplineSet
EndChar
StartChar: afii57685
Encoding: 1509 1509 636
Width: 616
Flags: W
VStem: 228 139<-200 286> 405 139<433 600>
Fore
544 433 m 2
 523 316 450 262 367 249 c 1
 367 -200 l 1
 228 -200 l 1
 228 286 l 1
 27 600 l 1
 185 600 l 1
 337 362 l 1
 385 366 399 408 405 444 c 2
 405 600 l 1
 544 600 l 1
 544 433 l 2
EndSplineSet
EndChar
StartChar: afii57686
Encoding: 1510 1510 637
Width: 671
Flags: W
HStem: 0 21G<86 606>
VStem: 440 139<433 600>
Fore
579 433 m 2
 572 394 542 290 440 258 c 1
 606 0 l 1
 86 0 l 1
 86 115 l 1
 374 115 l 1
 61 600 l 1
 219 600 l 1
 373 362 l 1
 417 366 428 404 440 444 c 2
 440 600 l 1
 579 600 l 1
 579 433 l 2
EndSplineSet
EndChar
StartChar: afii57687
Encoding: 1511 1511 638
Width: 672
Flags: W
Fore
341 164 m 1
 425 180 441 201 460 285 c 2
 460 485 l 1
 80 485 l 1
 80 600 l 1
 599 600 l 1
 599 276 l 2
 588 196 554 129 489 94 c 1
 437 65 403 51 335 49 c 1
 335 165 l 1
 341 164 l 1
219 371 m 1
 219 -200 l 1
 80 -200 l 1
 80 371 l 1
 219 371 l 1
EndSplineSet
EndChar
StartChar: afii57688
Encoding: 1512 1512 639
Width: 600
Flags: W
HStem: 0 21G<391 530> 485 115<63 270>
VStem: 391 139<0 374>
Fore
391 365 m 2
 366 476 327 472 258 485 c 2
 63 485 l 1
 63 600 l 1
 270 600 l 2
 337 593 498 579 530 374 c 1
 530 0 l 1
 391 0 l 1
 391 365 l 2
EndSplineSet
EndChar
StartChar: afii57689
Encoding: 1513 1513 640
Width: 840
Flags: W
HStem: 0 21G<382 461>
VStem: 351 139<311.5 600> 627 139<207 600>
Fore
766 260 m 0
 766 154 654 0 461 0 c 2
 382 0 l 2
 273 0 171 53 114 142 c 0
 87 181 76 223 76 265 c 2
 76 600 l 1
 215 600 l 1
 215 323 l 1
 283 323 l 2
 324 323 351 349 351 387 c 2
 351 600 l 1
 490 600 l 1
 490 387 l 2
 490 236 336 208 294 208 c 0
 290 208 286 208 283 208 c 0
 230 208 l 1
 236 198 l 2
 289 124 353 115 382 115 c 2
 461 115 l 2
 529 115 627 176 627 265 c 2
 627 600 l 1
 766 600 l 1
 766 265 l 1
 766 263 766 262 766 260 c 0
EndSplineSet
EndChar
StartChar: afii57690
Encoding: 1514 1514 641
Width: 756
Flags: W
HStem: -0 115<81.5 119> 485 115<123 425>
VStem: 546 139<0 374>
Fore
546 366 m 2
 524 458 517 465 413 485 c 2
 328 485 l 1
 328 229 l 2
 321 164 329 90 237 44 c 0
 208 29 151 -0 87 -0 c 0
 76 -0 62 5 62 5 c 1
 62 121 l 1
 62 121 79 115 90 115 c 0
 95 115 99 115 102 115 c 0
 135 115 167 139 176 153 c 0
 190 174 189 186 189 233 c 0
 189 485 l 1
 123 485 l 1
 123 600 l 1
 425 600 l 2
 490 593 653 582 685 374 c 2
 685 0 l 1
 546 0 l 1
 546 366 l 2
EndSplineSet
EndChar
StartChar: afii57716
Encoding: 1520 1520 642
Width: 554
Flags: W
HStem: 0 21G<79 218 336 475>
Fore
79 0 m 1
 79 600 l 1
 218 600 l 1
 218 0 l 1
 79 0 l 1
336 0 m 1
 336 600 l 1
 475 600 l 1
 475 0 l 1
 336 0 l 1
EndSplineSet
EndChar
StartChar: afii57717
Encoding: 1521 1521 643
Width: 550
Flags: W
HStem: 0 21G<332 471>
Fore
212 333 m 1
 73 276 l 1
 73 600 l 1
 212 600 l 1
 212 333 l 1
332 0 m 1
 332 600 l 1
 471 600 l 1
 471 0 l 1
 332 0 l 1
EndSplineSet
EndChar
StartChar: afii57718
Encoding: 1522 1522 644
Width: 542
Flags: W
Fore
212 333 m 1
 73 276 l 1
 73 600 l 1
 212 600 l 1
 212 333 l 1
470 333 m 1
 331 276 l 1
 331 600 l 1
 470 600 l 1
 470 333 l 1
EndSplineSet
EndChar
StartChar: uni05F3
Encoding: 1523 1523 645
Width: 238
Flags: W
HStem: 709 20G<50 188>
VStem: 50 138<599 729>
Fore
188 729 m 1
 188 599 l 1
 146 470 l 1
 90 470 l 1
 50 599 l 1
 50 729 l 1
 188 729 l 1
EndSplineSet
EndChar
StartChar: uni05F4
Encoding: 1524 1524 646
Width: 474
Flags: W
HStem: 709 20G<50 188 286 424>
VStem: 50 138<599 729> 286 138<599 729>
Fore
188 729 m 1
 188 599 l 1
 146 470 l 1
 90 470 l 1
 50 599 l 1
 50 729 l 1
 188 729 l 1
424 729 m 1
 424 599 l 1
 382 470 l 1
 326 470 l 1
 286 599 l 1
 286 729 l 1
 424 729 l 1
EndSplineSet
EndChar
StartChar: uni0617
Encoding: 1559 1559 647
Width: 556
Flags: W
HStem: 0 21G<308 448> 689 20G<283 448>
Fore
522 273 m 1
 522 157 l 1
 448 157 l 1
 448 0 l 1
 308 0 l 1
 308 157 l 1
 24 157 l 1
 24 275 l 1
 283 709 l 1
 448 709 l 1
 448 273 l 1
 522 273 l 1
308 273 m 1
 308 576 l 1
 123 273 l 1
 308 273 l 1
EndSplineSet
EndChar
StartChar: uni0618
Encoding: 1560 1560 648
Width: 778
Flags: W
HStem: -23 128<284.5 432> 613 128<290 483>
VStem: 42 150<248.5 472.5>
Fore
570 496 m 1
 549 558 500 613 396 613 c 0
 269 613 192 518 192 361 c 0
 192 211 279 105 400 105 c 0
 437 105 572 129 585 267 c 1
 419 267 l 1
 419 392 l 1
 711 392 l 1
 711 -2 l 1
 621 -2 l 1
 603 94 l 1
 547 12 481 -23 383 -23 c 0
 186 -23 42 138 42 359 c 0
 42 586 185 741 395 741 c 0
 571 741 693 646 711 496 c 1
 570 496 l 1
EndSplineSet
EndChar
StartChar: uni0619
Encoding: 1561 1561 649
Width: 944
Flags: W
HStem: 0 21G<219 354 595 730> 709 20G<13 172 398 546 773 932>
Fore
730 0 m 1
 595 0 l 1
 473 569 l 1
 354 0 l 1
 219 0 l 1
 13 729 l 1
 172 729 l 1
 285 183 l 1
 398 729 l 1
 546 729 l 1
 664 182 l 1
 773 729 l 1
 932 729 l 1
 730 0 l 1
EndSplineSet
EndChar
StartChar: uni061A
Encoding: 1562 1562 650
Width: 611
Flags: W
HStem: -218 90<212.5 365.5> -23 117<188.5 322.5> 432 117<194 323>
VStem: 34 140<173 340.5> 410 131<-81.5 309>
Fore
408 540 m 1
 541 540 l 1
 541 -18 l 2
 541 -145 447 -218 284 -218 c 0
 141 -218 47 -159 45 -65 c 1
 190 -65 l 1
 201 -106 236 -128 289 -128 c 0
 359 -128 408 -83 408 -18 c 2
 408 55 l 1
 356 -4 318 -23 255 -23 c 0
 122 -23 34 89 34 257 c 0
 34 424 130 549 258 549 c 0
 320 549 366 521 408 457 c 1
 408 540 l 1
288 432 m 0
 220 432 174 361 174 259 c 0
 174 161 220 94 286 94 c 0
 359 94 410 161 410 259 c 0
 410 359 358 432 288 432 c 0
EndSplineSet
EndChar
StartChar: afii57403
Encoding: 1563 1563 651
Width: 278
Flags: W
HStem: 0 21G<67 207> 709 20G<67 207>
Fore
207 729 m 1
 207 0 l 1
 67 0 l 1
 67 729 l 1
 207 729 l 1
EndSplineSet
EndChar
StartChar: uni061C
Encoding: 1564 1564 652
Width: 889
Flags: W
HStem: 0 21G<60 200 372 512 684 824> 430 119<266 380.5 578 706>
VStem: 372 140<0 381.5> 684 140<0 434.5>
Fore
60 540 m 1
 199 540 l 1
 199 473 l 1
 245 528 285 549 347 549 c 0
 414 549 468 520 494 469 c 1
 536 525 584 549 652 549 c 0
 760 549 824 487 824 382 c 2
 824 0 l 1
 684 0 l 1
 684 360 l 2
 684 403 655 430 608 430 c 0
 548 430 512 390 512 324 c 2
 512 0 l 1
 372 0 l 1
 372 360 l 2
 372 403 343 430 296 430 c 0
 236 430 200 390 200 324 c 2
 200 0 l 1
 60 0 l 1
 60 540 l 1
EndSplineSet
EndChar
StartChar: afii57409
Encoding: 1569 1569 653
Width: 844
VWidth: 2048
Flags: W
HStem: 536 20G<577 615 614 619>
VStem: 489 83<409 467.5>
Fore
572 427 m 0
 572 391 614 367 642 367 c 0
 655 367 683 373 727 385 c 2
 796 403 l 1
 810 324 l 1
 412 223 l 1
 390 301 l 1
 529 334 l 1
 517 346 489 393 489 436 c 0
 489 499 540 556 614 556 c 0
 616 556 617 556 619 556 c 2
 647 554 l 1
 678 548 l 1
 717 539 l 1
 713 507 l 1
 710 486 l 1
 709 467 l 1
 668 474 l 1
 653 476 l 1
 639 477 l 2
 638 477 636 477 635 477 c 0
 594 463 l 0
 579 453 572 441 572 427 c 0
EndSplineSet
EndChar
StartChar: afii57416
Encoding: 1576 1576 654
Width: 923
VWidth: 2048
Flags: W
HStem: 0 21G<210 783>
VStem: 44 113<123.5 246> 802 121<110 174.5>
Fore
509 -201 m 1
 395 -201 l 1
 395 -86 l 1
 509 -86 l 1
 509 -201 l 1
210 0 m 2
 77 0 44 73 44 174 c 2
 44 246 l 1
 157 246 l 1
 157 192 l 2
 157 126 201 133 232 129 c 2
 763 129 l 2
 789 129 802 138 802 155 c 0
 802 168 796 178 792 185 c 2
 741 284 l 1
 839 352 l 1
 904 244 923 192 923 157 c 0
 923 63 874 0 783 0 c 2
 210 0 l 2
EndSplineSet
EndChar
StartChar: afii57418
Encoding: 1578 1578 655
Width: 922
VWidth: 2048
Flags: W
HStem: 0 21G<210 783>
VStem: 44 113<123.5 246> 802 121<110 174.5>
Fore
210 0 m 2
 77 0 44 73 44 174 c 2
 44 246 l 1
 157 246 l 1
 157 192 l 2
 157 126 201 133 232 129 c 2
 763 129 l 2
 789 129 802 138 802 155 c 0
 802 168 796 178 792 185 c 2
 741 284 l 1
 839 352 l 1
 904 244 923 192 923 157 c 0
 923 63 874 0 783 0 c 2
 210 0 l 2
575 324 m 1
 474 324 l 1
 474 425 l 1
 575 425 l 1
 575 324 l 1
438 324 m 1
 337 324 l 1
 337 425 l 1
 438 425 l 1
 438 324 l 1
EndSplineSet
EndChar
StartChar: afii57419
Encoding: 1579 1579 656
Width: 922
VWidth: 2048
Flags: W
HStem: 0 21G<210 783>
VStem: 44 113<123.5 246> 331 100<306 409> 802 121<110 174.5>
Fore
210 0 m 2
 77 0 44 73 44 174 c 2
 44 246 l 1
 157 246 l 1
 157 192 l 2
 157 126 201 133 232 129 c 2
 763 129 l 2
 789 129 802 138 802 155 c 0
 802 168 796 178 792 185 c 2
 741 284 l 1
 839 352 l 1
 904 244 923 192 923 157 c 0
 923 63 874 0 783 0 c 2
 210 0 l 2
557 409 m 1
 456 409 l 1
 456 306 l 1
 557 306 l 1
 557 409 l 1
431 409 m 1
 331 409 l 1
 331 306 l 1
 431 306 l 1
 431 409 l 1
493 530 m 1
 390 530 l 1
 390 428 l 1
 493 428 l 1
 493 530 l 1
EndSplineSet
EndChar
StartChar: afii57421
Encoding: 1581 1581 657
Width: 649
VWidth: 2048
Flags: W
HStem: -355 128<218.5 394> 274 122<546.5 640> 286 127<176 271.5>
VStem: 35 121<-121 14.5>
Fore
258 286 m 0xb0
 170 286 124 274 105 255 c 1
 48 350 l 1
 64 371 117 413 176 413 c 0
 177 413 179 413 180 413 c 2xb0
 640 396 l 1
 628 274 l 1
 624 274 621 274 617 274 c 0xd0
 476 274 370 200 295 138 c 0
 228 82 156 15 156 -60 c 0
 156 -154 233 -227 358 -227 c 0
 430 -227 511 -200 565 -177 c 1
 620 -282 l 1
 529 -331 417 -355 357 -355 c 0
 80 -355 35 -173 35 -69 c 0
 35 98 202 218 338 284 c 1
 314 286 285 286 258 286 c 0xb0
EndSplineSet
EndChar
StartChar: afii57422
Encoding: 1582 1582 658
Width: 704
VWidth: 2048
Flags: W
HStem: -355 128<218.5 394> 274 122<546.5 640> 286 127<176 271.5>
VStem: 35 121<-121 14.5>
Fore
258 286 m 0xb0
 170 286 124 274 105 255 c 1
 48 350 l 1
 64 371 117 413 176 413 c 0
 177 413 179 413 180 413 c 2xb0
 640 396 l 1
 628 274 l 1
 624 274 621 274 617 274 c 0xd0
 476 274 370 200 295 138 c 0
 228 82 156 15 156 -60 c 0
 156 -154 233 -227 358 -227 c 0
 430 -227 511 -200 565 -177 c 1
 620 -282 l 1
 529 -331 417 -355 357 -355 c 0
 80 -355 35 -173 35 -69 c 0
 35 98 202 218 338 284 c 1
 314 286 285 286 258 286 c 0xb0
371 479 m 1
 258 479 l 1
 258 593 l 1
 371 593 l 1
 371 479 l 1
EndSplineSet
EndChar
StartChar: afii57427
Encoding: 1587 1587 659
Width: 1221
VWidth: 2048
Flags: W
HStem: -269 134<276 456.5> 34 136<954 1035>
VStem: 63 109<-54 41> 574 115<1.5 93>
Fore
172 21 m 0
 172 -47 214 -135 382 -135 c 0
 531 -135 574 -49 574 52 c 0
 574 134 510 247 507 253 c 2
 481 300 l 1
 577 361 l 1
 624 275 l 26
 650 227 691 170 735 170 c 0
 781 170 793 213 793 244 c 2
 793 364 l 1
 900 364 l 1
 900 282 l 2
 903 235 918 170 990 170 c 0
 1027 170 1046 188 1046 223 c 0
 1046 239 1036 264 1015 300 c 2
 992 340 l 1
 1089 400 l 1
 1115 354 l 26
 1144 302 1164 240 1164 210 c 0
 1164 147 1161 149 1156 136 c 0
 1127 63 1067 34 1003 34 c 0
 961 34 917 61 872 115 c 1
 856 92 830 36 757 36 c 0
 716 36 700 52 689 58 c 1
 689 30 678 -73 668 -83 c 1
 663 -96 l 0
 615 -198 533 -269 367 -269 c 0
 185 -269 63 -144 63 36 c 2
 63 41 l 2
 63 109 79 139 96 182 c 1
 196 148 l 1
 176 98 172 49 172 21 c 0
EndSplineSet
EndChar
StartChar: uni1FBF
Encoding: 8127 8127 836
Width: 278
HStem: 693 60<86 216>
VStem: 160 56<666 699>
Fore
86 753 m 5
 216 753 l 5
 216 699 l 6
 216 633 205 576 84 563 c 1
 84 610 l 1
 140 620 160 649 160 692 c 6
 160 693 l 5
 86 693 l 5
 86 753 l 5
EndSplineSet
EndChar
StartChar: uni1FFD
Encoding: 8189 8189 891
Width: 333
Fore
317 754 m 1
 187 588 l 1
 117 588 l 1
 191 754 l 1
 317 754 l 1
EndSplineSet
EndChar
StartChar: circumflex
Encoding: 710 710 912
Width: 333
Flags: W
Fore
116 757 m 1
 223 757 l 1
 326 607 l 1
 248 607 l 1
 166 707 l 1
 84 607 l 1
 8 607 l 1
 116 757 l 1
EndSplineSet
EndChar
StartChar: caron
Encoding: 711 711 913
Width: 333
Flags: W
Fore
219 607 m 1
 112 607 l 1
 9 757 l 1
 87 757 l 1
 169 660 l 1
 251 757 l 1
 327 757 l 1
 219 607 l 1
EndSplineSet
EndChar
StartChar: breve
Encoding: 728 728 914
Width: 333
Flags: W
HStem: 605 77<129.5 204.5> 728 20G<35 91 243 299>
Fore
299 748 m 1
 299 737 l 2
 299 662 242 605 167 605 c 0
 92 605 35 662 35 738 c 2
 35 748 l 1
 91 748 l 1
 97 704 122 682 168 682 c 0
 212 682 235 702 243 748 c 1
 299 748 l 1
EndSplineSet
EndChar
StartChar: dotaccent
Encoding: 729 729 915
Width: 333
Flags: W
HStem: 723 20G<112 222>
Fore
222 743 m 1
 222 621 l 1
 112 621 l 1
 112 743 l 1
 222 743 l 1
EndSplineSet
EndChar
StartChar: ring
Encoding: 730 730 916
Width: 333
Flags: W
HStem: 590 48<142 191.5> 722 48<142.5 193>
VStem: 77 48<655 705> 209 48<654.5 704.5>
Fore
168 770 m 0
 218 770 257 730 257 679 c 0
 257 630 216 590 167 590 c 0
 117 590 77 630 77 680 c 0
 77 730 117 770 168 770 c 0
168 722 m 0
 144 722 125 703 125 680 c 0
 125 657 144 638 168 638 c 0
 190 638 209 657 209 680 c 0
 209 703 191 722 168 722 c 0
EndSplineSet
EndChar
StartChar: ogonek
Encoding: 731 731 917
Width: 333
Flags: W
HStem: -234 51<144.5 221> -20 20G<169 244>
VStem: 45 90<-168 -107.5>
Fore
169 0 m 1
 244 0 l 1
 159 -53 135 -82 135 -133 c 0
 135 -167 158 -183 211 -183 c 0
 231 -183 250 -181 268 -177 c 1
 268 -224 l 1
 241 -231 217 -234 189 -234 c 0
 100 -234 45 -197 45 -139 c 0
 45 -80 92 -28 169 0 c 1
EndSplineSet
EndChar
StartChar: tilde
Encoding: 732 732 918
Width: 333
Flags: W
HStem: 622 79<242.5 279.5> 666 79<57.5 98.5>
Fore
282 749 m 1x80
 345 749 l 1
 341 664 309 622 250 622 c 0x80
 235 622 216 626 195 634 c 2
 124 660 l 2
 112 664 103 666 94 666 c 0
 70 666 59 653 54 621 c 1
 -9 621 l 1
 -5 699 30 745 85 745 c 0x40
 104 745 105 745 141 732 c 2
 212 707 l 2
 219 704 239 701 246 701 c 0
 267 701 279 717 282 749 c 1x80
EndSplineSet
EndChar
StartChar: hungarumlaut
Encoding: 733 733 919
Width: 333
Flags: W
Fore
152 757 m 1
 26 610 l 1
 -44 610 l 1
 26 757 l 1
 152 757 l 1
340 757 m 1
 214 610 l 1
 144 610 l 1
 214 757 l 1
 340 757 l 1
EndSplineSet
EndChar
StartChar: uni030F
Encoding: 783 783 930
Width: 0
Flags: W
TeX: 0 0 0 0
Fore
-189 757 m 5
 -63 757 l 5
 7 610 l 5
 -63 610 l 5
 -189 757 l 5
-377 757 m 5
 -251 757 l 5
 -181 610 l 5
 -251 610 l 5
 -377 757 l 5
EndSplineSet
EndChar
StartChar: uni0374
Encoding: 884 884 933
Width: 379
Flags: W
Fore
329 789 m 5
 120 603 l 5
 56 603 l 5
 147 789 l 5
 329 789 l 5
EndSplineSet
EndChar
StartChar: uni0375
Encoding: 885 885 934
Width: 379
Flags: W
HStem: -20 20G<267 331>
Fore
58 -186 m 1
 267 0 l 1
 331 0 l 1
 240 -186 l 1
 58 -186 l 1
EndSplineSet
EndChar
StartChar: uni037A
Encoding: 890 890 935
Width: 332
Flags: W
HStem: -253 178<130 253>
VStem: 130 91<-103.5 -75>
Fore
252 -216 m 0
 287 -216 278 -211 287 -192 c 1
 316 -192 l 1
 316 -252 288 -253 218 -253 c 0
 155 -253 130 -225 130 -174 c 2
 130 -75 l 1
 221 -75 l 1
 221 -82 221 -88 221 -94 c 0
 221 -113 220 -129 220 -144 c 0
 220 -192 224 -216 252 -216 c 0
EndSplineSet
EndChar
StartChar: tonos
Encoding: 900 900 937
Width: 325
Flags: W
AnchorPoint: "1 top" 96 571 mark 0
Fore
166 789 m 1
 132 588 l 1
 56 588 l 1
 33 789 l 1
 166 789 l 1
EndSplineSet
EndChar
StartChar: anoteleia
Encoding: 903 903 940
Width: 474
Flags: W
Fore
172 287 m 4
 172 330 203 362 250 362 c 4
 298 362 328 329 328 287 c 4
 328 245 297 213 250 213 c 4
 202 213 172 246 172 287 c 4
EndSplineSet
EndChar
StartChar: Gamma
Encoding: 915 915 949
Width: 642
Flags: W
HStem: 0 21G<57 203> 709 20G<57 591>
Fore
591 595 m 1
 203 595 l 1
 203 0 l 1
 57 0 l 1
 57 729 l 1
 591 729 l 1
 591 595 l 1
EndSplineSet
EndChar
StartChar: Delta
Encoding: 916 916 950
Width: 726
Flags: W
HStem: 0 21G<0 724> 709 20G<281 426>
Fore
0 0 m 1
 281 729 l 1
 426 729 l 1
 724 0 l 1
 0 0 l 1
517 125 m 1
 355 549 l 1
 203 125 l 1
 517 125 l 1
EndSplineSet
EndChar
StartChar: Theta
Encoding: 920 920 954
Width: 810
Flags: W
HStem: 3 121<316 485> 606 120<279.5 492.5>
VStem: 27 143<215 470.5> 599 144<252.5 474.5>
Fore
385 726 m 0
 600 726 743 585 743 364 c 0
 743 141 585 3 385 3 c 0
 247 3 27 74 27 356 c 0
 27 585 174 726 385 726 c 0
170 355 m 0
 170 217 251 124 383 124 c 0
 475 124 599 172 599 364 c 0
 599 557 471 606 385 606 c 0
 234 606 170 498 170 355 c 0
571 314 m 1
 195 314 l 1
 195 436 l 1
 571 436 l 1
 571 314 l 1
EndSplineSet
EndChar
StartChar: Lambda
Encoding: 923 923 957
Width: 744
Flags: W
HStem: 697 20G<309 435>
Fore
373 539 m 1
 178 3 l 1
 34 3 l 1
 309 717 l 1
 435 717 l 1
 727 3 l 1
 578 3 l 1
 373 539 l 1
EndSplineSet
EndChar
StartChar: Mu
Encoding: 924 924 958
Width: 860
Flags: W
HStem: -7 21G<31 176 342 467 636 781> 705 20G<31 222 606 781>
Fore
781 -7 m 1
 636 -7 l 1
 636 448 l 1
 467 -7 l 1
 342 -7 l 1
 176 454 l 1
 176 -7 l 1
 31 -7 l 1
 31 725 l 1
 222 725 l 1
 242 711 415 205 415 205 c 1
 475 382 544 550 606 725 c 1
 781 725 l 1
 781 -7 l 1
EndSplineSet
EndChar
StartChar: Nu
Encoding: 925 925 959
Width: 714
Flags: W
HStem: -8 21G<31 173 510 645> 704 20G<31 168 505 645>
Fore
645 -8 m 1
 510 -8 l 1
 173 473 l 1
 173 -8 l 1
 31 -8 l 1
 31 724 l 1
 168 724 l 1
 505 242 l 1
 505 724 l 1
 645 724 l 1
 645 -8 l 1
EndSplineSet
EndChar
StartChar: Xi
Encoding: 926 926 960
Width: 690
Flags: W
HStem: 1 21G<45 629>
Fore
613 600 m 1
 45 600 l 1
 45 727 l 1
 613 727 l 1
 613 600 l 1
557 310 m 1
 107 310 l 1
 107 437 l 1
 557 437 l 1
 557 310 l 1
629 1 m 1
 45 1 l 1
 45 128 l 1
 629 128 l 1
 629 1 l 1
EndSplineSet
EndChar
StartChar: Omicron
Encoding: 927 927 961
Width: 822
Flags: W
HStem: -12 120<320.5 453.5> 609 121<319.5 453.5>
VStem: 54 132<211.5 506> 588 132<213 504>
Fore
387 730 m 0
 520 730 720 647 720 361 c 0
 720 65 520 -12 387 -12 c 0
 254 -12 54 62 54 361 c 0
 54 651 252 730 387 730 c 0
387 108 m 0
 465 108 588 146 588 359 c 0
 588 572 465 609 387 609 c 0
 309 609 186 572 186 359 c 0
 186 146 309 108 387 108 c 0
EndSplineSet
EndChar
StartChar: Pi
Encoding: 928 928 962
Width: 781
Flags: W
HStem: -7 21G<55 199 521 665> 704 20G<55 665>
Fore
665 -7 m 1
 521 -7 l 1
 521 596 l 1
 199 596 l 1
 199 -7 l 1
 55 -7 l 1
 55 724 l 1
 665 724 l 1
 665 -7 l 1
EndSplineSet
EndChar
StartChar: Rho
Encoding: 929 929 963
Width: 698
Flags: W
HStem: -8 21G<53 197> 704 20G<53 348>
VStem: 501 148<455 535>
Fore
649 503 m 0
 649 407 605 271 356 271 c 2
 197 271 l 1
 197 -8 l 1
 53 -8 l 1
 53 724 l 1
 348 724 l 2
 437 724 514 721 573 671 c 0
 624 629 649 567 649 503 c 0
358 399 m 2
 472 399 501 437 501 499 c 0
 501 548 480 578 437 591 c 0
 420 594 393 595 356 595 c 2
 197 595 l 1
 197 399 l 1
 358 399 l 2
EndSplineSet
EndChar
StartChar: Sigma
Encoding: 931 931 964
Width: 688
Flags: W
HStem: -10 21G<15 631> 703 20G<49 611>
Fore
425 382 m 1
 202 118 l 1
 631 118 l 1
 631 -10 l 1
 15 -10 l 1
 15 107 l 1
 244 382 l 1
 49 610 l 1
 49 723 l 1
 611 723 l 1
 611 595 l 1
 243 595 l 1
 244 594 425 382 425 382 c 1
EndSplineSet
EndChar
StartChar: Tau
Encoding: 932 932 965
Width: 688
Flags: W
HStem: 1 21G<250 394> 712 20G<14 632>
VStem: 250 144<1 604>
Fore
632 604 m 1
 394 604 l 1
 394 1 l 1
 250 1 l 1
 250 604 l 1
 14 604 l 1
 14 732 l 1
 632 732 l 1
 632 604 l 1
EndSplineSet
EndChar
StartChar: Upsilon
Encoding: 933 933 966
Width: 804
Flags: W
HStem: 0 21G<312 456> 712 20G<14 189 593 765>
VStem: 312 144<0 307>
Fore
765 732 m 1
 456 307 l 1
 456 0 l 1
 312 0 l 1
 312 307 l 1
 14 732 l 1
 189 732 l 1
 338 515 l 1
 363 476 381 449 390 434 c 1
 454 536 525 633 593 732 c 1
 765 732 l 1
EndSplineSet
EndChar
StartChar: Phi
Encoding: 934 934 967
Width: 777
Flags: W
HStem: -13 21G<292 425> 703 20G<293 424>
VStem: 4 141<299.5 472> 293 131<644 723> 572 141<225.5 399.5>
CounterMasks: 1 00
Fore
4 348 m 0
 4 596 233 640 293 644 c 1
 293 723 l 1
 424 723 l 1
 424 644 l 1
 503 639 569 612 622 561 c 0
 683 503 713 432 713 348 c 0
 713 103 485 62 425 58 c 1
 425 -13 l 1
 292 -13 l 1
 292 58 l 1
 212 63 146 90 94 138 c 0
 34 193 4 263 4 348 c 0
572 353 m 0
 572 446 507 505 425 523 c 1
 425 175 l 1
 511 194 572 257 572 353 c 0
292 175 m 1
 292 523 l 1
 209 505 145 447 145 353 c 0
 145 246 218 191 292 175 c 1
EndSplineSet
EndChar
StartChar: Chi
Encoding: 935 935 968
Width: 783
Flags: W
HStem: -7 21G<3 181 586 767> 708 20G<38 213 580 748>
Fore
767 -7 m 1
 586 -7 l 1
 521 84 449 171 385 264 c 1
 369 239 219 43 181 -7 c 1
 3 -7 l 1
 303 376 l 1
 38 728 l 1
 213 728 l 1
 267 649 340 569 390 489 c 1
 443 559 523 655 580 728 c 1
 748 728 l 1
 474 380 l 1
 767 -7 l 1
EndSplineSet
EndChar
